<svg width="148" height="148" viewBox="0 0 148 148" fill="none" xmlns="http://www.w3.org/2000/svg">
<path fill-rule="evenodd" clip-rule="evenodd" d="M74 148C114.869 148 148 114.869 148 74C148 33.1309 114.869 0 74 0C33.1309 0 0 33.1309 0 74C0 114.869 33.1309 148 74 148ZM71.1753 55.3429L71.1754 55.3441V55.3442V55.3444C71.2938 58.2135 71.3913 60.5778 71.2749 63.6319C71.1032 68.1351 68.204 70.979 63.7221 71.2462C60.5784 71.4336 57.4118 71.4004 54.2619 71.2871C46.0375 70.9916 39.3434 64.9994 38.2155 57.0405C37.0622 48.9024 42.1432 41.2044 50.273 38.7725C58.031 36.4518 66.1047 40.0746 69.8288 47.5732C70.2701 48.462 71.0074 50.7218 71.0503 52.0503C71.0888 53.2466 71.1334 54.3264 71.1753 55.3429ZM90.9105 43.6908C101.178 42.2332 109.247 48.2234 109.95 57.415C110.663 66.7371 103.642 73.8896 93.6532 74.0062C91.9957 74.0255 90.3376 74.0223 88.6801 74.0067C81.7585 73.9415 79.1611 71.3229 79.0972 64.36C78.9815 51.7436 81.5275 45.5653 90.9105 43.6908ZM99.9581 103.936C103.619 98.8373 103.281 92.6696 98.7424 86.2218C92.9953 80.2218 83.5232 81.4853 79.3778 82.395C77.7289 82.9205 76.5409 85.3759 75.429 87.6738L75.429 87.6739C75.299 87.9426 75.1701 88.2091 75.0415 88.4701C74.5426 89.9669 74.1816 92.5115 74.2074 94.3306C74.3167 102.033 77.6475 106.993 84.1749 109.211C89.9163 111.161 96.3027 109.027 99.9581 103.936ZM53.4627 79.0729C55.5837 78.6097 57.6445 78.7187 59.3409 79.1925C61.309 79.7421 63.4792 80.6306 64.8436 82.0582C67.6954 85.0422 67.2252 95.0573 64.4466 99.0806C61.1085 103.914 55.5561 105.877 50.0776 104.16C44.2096 102.321 40.8667 97.6132 41.0463 91.4412C41.2374 84.8701 45.0885 80.9011 53.4627 79.0729Z" fill="url(#paint0_linear_230_18)"/>
<defs>
<linearGradient id="paint0_linear_230_18" x1="74" y1="0" x2="74" y2="148" gradientUnits="userSpaceOnUse">
<stop stop-color="#FF8551"/>
<stop offset="1" stop-color="#FF6565"/>
</linearGradient>
</defs>
</svg>
