<svg width="148" height="148" viewBox="0 0 148 148" fill="none" xmlns="http://www.w3.org/2000/svg">
<path fill-rule="evenodd" clip-rule="evenodd" d="M74 148C114.869 148 148 114.869 148 74C148 33.1309 114.869 0 74 0C33.1309 0 0 33.1309 0 74C0 114.869 33.1309 148 74 148ZM99.875 39C104.293 39 107.875 42.5817 107.875 47V70.983C107.875 73.1141 107.025 75.1571 105.513 76.6589L66.9693 114.944C63.8421 118.05 58.7914 118.041 55.6747 114.925L31.6759 90.9259C28.5443 87.7943 28.5529 82.7143 31.695 79.5932L70.2227 41.3241C71.7214 39.8355 73.748 39 75.8604 39H99.875ZM79.75 60.875C79.75 64.3268 82.5482 67.125 86 67.125C89.4518 67.125 92.25 64.3268 92.25 60.875C92.25 57.4232 89.4518 54.625 86 54.625C82.5482 54.625 79.75 57.4232 79.75 60.875Z" fill="url(#paint0_linear_230_23)"/>
<defs>
<linearGradient id="paint0_linear_230_23" x1="74" y1="0" x2="74" y2="148" gradientUnits="userSpaceOnUse">
<stop stop-color="#FF8551"/>
<stop offset="1" stop-color="#FF6565"/>
</linearGradient>
</defs>
</svg>
