<svg width="148" height="148" viewBox="0 0 148 148" fill="none" xmlns="http://www.w3.org/2000/svg">
<path fill-rule="evenodd" clip-rule="evenodd" d="M74 148C114.869 148 148 114.869 148 74C148 33.1309 114.869 0 74 0C33.1309 0 0 33.1309 0 74C0 114.869 33.1309 148 74 148ZM108 45.3684C108 42.4035 105.596 40 102.632 40C99.6668 40 97.2632 42.4035 97.2632 45.3684V50.7368H50.7368V45.3684C50.7368 42.4035 48.3333 40 45.3684 40C42.4035 40 40 42.4035 40 45.3684V52.5263C40 57.4678 44.0059 61.4737 48.9474 61.4737H99.0526C103.994 61.4737 108 57.4678 108 52.5263V45.3684ZM108 102.632C108 105.596 105.596 108 102.632 108C99.6668 108 97.2632 105.596 97.2632 102.632V97.2632H50.7368V102.632C50.7368 105.596 48.3333 108 45.3684 108C42.4035 108 40 105.596 40 102.632V95.4737C40 90.5322 44.0059 86.5263 48.9474 86.5263H99.0526C103.994 86.5263 108 90.5322 108 95.4737V102.632ZM93.6842 74C93.6842 76.9648 91.2806 79.3684 88.3158 79.3684H59.6842C56.7193 79.3684 54.3158 76.9648 54.3158 74C54.3158 71.0352 56.7193 68.6316 59.6842 68.6316H88.3158C91.2806 68.6316 93.6842 71.0352 93.6842 74Z" fill="url(#paint0_linear_230_19)"/>
<defs>
<linearGradient id="paint0_linear_230_19" x1="74" y1="0" x2="74" y2="148" gradientUnits="userSpaceOnUse">
<stop stop-color="#FF8551"/>
<stop offset="1" stop-color="#FF6565"/>
</linearGradient>
</defs>
</svg>
