<svg width="148" height="148" viewBox="0 0 148 148" fill="none" xmlns="http://www.w3.org/2000/svg">
<path fill-rule="evenodd" clip-rule="evenodd" d="M74 148C114.869 148 148 114.869 148 74C148 33.1309 114.869 0 74 0C33.1309 0 0 33.1309 0 74C0 114.869 33.1309 148 74 148ZM110 65.4149C110 49.1694 96.8306 36 80.5851 36C64.3395 36 51.1701 49.1694 51.1701 65.4149C51.1701 70.9788 52.715 76.182 55.399 80.6189L34.0676 101.949C31.3108 104.706 31.3108 109.175 34.0676 111.932C36.8246 114.689 41.2945 114.689 44.0515 111.932L65.2893 90.6944C69.818 93.285 75.0212 94.8299 80.5851 94.8299C96.8306 94.8299 110 81.6604 110 65.4149ZM97.4483 65.5861C97.4483 74.994 89.8217 82.6206 80.4138 82.6206C71.006 82.6206 63.3794 74.994 63.3794 65.5861C63.3794 56.1782 71.006 48.5516 80.4138 48.5516C89.8217 48.5516 97.4483 56.1782 97.4483 65.5861Z" fill="url(#paint0_linear_230_22)"/>
<defs>
<linearGradient id="paint0_linear_230_22" x1="74" y1="0" x2="74" y2="148" gradientUnits="userSpaceOnUse">
<stop stop-color="#FF8551"/>
<stop offset="1" stop-color="#FF6565"/>
</linearGradient>
</defs>
</svg>
