<svg width="72" height="72" viewBox="0 0 72 72" fill="none" xmlns="http://www.w3.org/2000/svg">
<path fill-rule="evenodd" clip-rule="evenodd" d="M36 64.0139C51.4717 64.0139 64.0139 51.4717 64.0139 36C64.0139 20.5283 51.4717 7.98608 36 7.98608C20.5283 7.98608 7.98607 20.5283 7.98607 36C7.98607 51.4717 20.5283 64.0139 36 64.0139ZM36 66.0139C52.5762 66.0139 66.0139 52.5763 66.0139 36C66.0139 19.4238 52.5762 5.98608 36 5.98608C19.4238 5.98608 5.98607 19.4238 5.98607 36C5.98607 52.5763 19.4238 66.0139 36 66.0139Z" fill="#202020"/>
<path d="M48.9395 32.1677C48.9395 34.2842 47.2237 36 45.1071 36C42.9906 36 41.2748 34.2842 41.2748 32.1677C41.2748 30.0511 42.9906 28.3353 45.1071 28.3353C47.2237 28.3353 48.9395 30.0511 48.9395 32.1677Z" fill="#202020"/>
<path fill-rule="evenodd" clip-rule="evenodd" d="M50.2221 19.5226C50.562 19.9579 50.4847 20.5863 50.0494 20.9262L41.0248 27.9729C40.5895 28.3128 39.9611 28.2354 39.6212 27.8001C39.2813 27.3648 39.3587 26.7364 39.794 26.3965L48.8185 19.3499C49.2538 19.01 49.8822 19.0873 50.2221 19.5226Z" fill="#202020"/>
<path d="M23.102 32.1677C23.102 34.2842 24.8178 36 26.9344 36C29.0509 36 30.7667 34.2842 30.7667 32.1677C30.7667 30.0511 29.0509 28.3353 26.9344 28.3353C24.8178 28.3353 23.102 30.0511 23.102 32.1677Z" fill="#202020"/>
<path fill-rule="evenodd" clip-rule="evenodd" d="M21.8193 19.5226C21.4794 19.9579 21.5568 20.5863 21.9921 20.9262L31.0166 27.9729C31.452 28.3128 32.0804 28.2354 32.4203 27.8001C32.7602 27.3648 32.6828 26.7364 32.2475 26.3965L23.223 19.3499C22.7877 19.01 22.1592 19.0873 21.8193 19.5226Z" fill="#202020"/>
<path fill-rule="evenodd" clip-rule="evenodd" d="M36 45.34C30.9862 45.34 26.4754 47.4875 23.3347 50.916C22.9616 51.3233 22.3291 51.351 21.9218 50.9779C21.5146 50.6049 21.4869 49.9723 21.8599 49.5651C25.3635 45.7404 30.4022 43.34 36 43.34C41.5978 43.34 46.6365 45.7404 50.1401 49.5651C50.5131 49.9723 50.4854 50.6049 50.0782 50.9779C49.6709 51.351 49.0384 51.3233 48.6653 50.916C45.5246 47.4875 41.0138 45.34 36 45.34Z" fill="#202020"/>
</svg>
