<svg width="72" height="72" viewBox="0 0 72 72" fill="none" xmlns="http://www.w3.org/2000/svg">
<path fill-rule="evenodd" clip-rule="evenodd" d="M36.0009 10C31.4708 10 27.139 11.6802 23.9553 14.6517C20.774 17.6209 19.0009 21.6327 19.0009 25.8C19.0009 34.0357 16.9251 39.9092 14.4366 43.9813C13.2756 45.8809 12.4182 47.2841 11.8549 48.2749C11.5723 48.7719 11.3776 49.1411 11.2584 49.4043C11.2088 49.5138 11.1787 49.5908 11.1617 49.641C11.17 49.7077 11.1777 49.7445 11.1822 49.7622C11.1957 49.776 11.2256 49.8041 11.2845 49.8504C11.3249 49.8602 11.3886 49.8729 11.4824 49.8862C11.7223 49.9201 12.0725 49.9461 12.5591 49.964C13.5295 49.9998 14.9225 50 16.8191 50H55.1829C57.0795 50 58.4724 49.9998 59.4428 49.964C59.9294 49.9461 60.2796 49.9201 60.5195 49.8862C60.6133 49.8729 60.677 49.8603 60.7173 49.8504C60.7764 49.804 60.8063 49.7759 60.8198 49.7621C60.8243 49.7444 60.832 49.7077 60.8402 49.6411C60.8232 49.5908 60.7932 49.5139 60.7435 49.4044C60.6242 49.1411 60.4295 48.7719 60.147 48.2749C59.5836 47.2841 58.7263 45.8809 57.5654 43.9813C55.0767 39.9092 53.0009 34.0357 53.0009 25.8C53.0009 21.6327 51.228 17.6209 48.0464 14.6517C44.8628 11.6803 40.531 10 36.0009 10ZM60.8158 49.7756C60.8158 49.7756 60.816 49.7751 60.8163 49.7742L60.8158 49.7756ZM11.1727 49.7518C11.1727 49.7518 11.173 49.7521 11.1735 49.7528L11.1727 49.7518ZM11.1856 49.7743C11.186 49.7752 11.1861 49.7757 11.1861 49.7757L11.1856 49.7743ZM22.5907 13.1895C26.1583 9.85976 30.9832 8 36.0009 8C41.0186 8 45.8434 9.85976 49.411 13.1895C52.9813 16.5216 55.0009 21.056 55.0009 25.8C55.0009 33.6815 56.9823 39.1918 59.272 42.9383L59.2857 42.9608C60.4317 44.8362 61.305 46.2653 61.8856 47.2864C62.1762 47.7975 62.4073 48.2304 62.5652 48.5787C62.644 48.7526 62.714 48.926 62.7638 49.0909C62.8076 49.2362 62.8647 49.4654 62.8427 49.7177C62.8152 50.0318 62.7618 50.3927 62.566 50.7417C62.3703 51.0906 62.0903 51.3242 61.8369 51.5114C61.6501 51.6492 61.4478 51.7219 61.3011 51.7643C61.1427 51.8101 60.9713 51.8422 60.7992 51.8665C60.4555 51.9151 60.0233 51.944 59.5165 51.9627C58.5046 52 57.0746 52 55.2085 52H46.0009V54C46.0009 59.523 41.5239 64 36.0009 64C30.4782 64 26.0009 59.523 26.0009 54V53.9984L26.0042 52H16.7935C14.9273 52 13.4973 52 12.4854 51.9627C11.9785 51.944 11.5464 51.9151 11.2027 51.8665C11.0306 51.8422 10.8592 51.8101 10.7008 51.7643C10.5541 51.7219 10.352 51.6494 10.1652 51.5115C9.91168 51.3244 9.63155 51.0906 9.43583 50.7416C9.2401 50.3926 9.18673 50.0319 9.15926 49.718C9.1372 49.4657 9.19425 49.2363 9.2381 49.091C9.28782 48.9261 9.3579 48.7527 9.43667 48.5788C9.59455 48.2304 9.82565 47.7975 10.1162 47.2864C10.6979 46.2633 11.5734 44.8308 12.7227 42.9502L12.73 42.9383C15.0196 39.1918 17.0009 33.6815 17.0009 25.8C17.0009 21.056 19.0207 16.5215 22.5907 13.1895ZM28.0042 52L28.0009 54C28.0009 53.9998 28.0009 54.0002 28.0009 54C28.0012 58.4182 31.5829 62 36.0009 62C40.4193 62 44.0009 58.4184 44.0009 54V52H28.0042Z" fill="#202020"/>
</svg>
