<svg width="72" height="72" viewBox="0 0 72 72" fill="none" xmlns="http://www.w3.org/2000/svg">
<path fill-rule="evenodd" clip-rule="evenodd" d="M9 8C9.55229 8 10 8.44772 10 9V53.4C10 55.0966 10.0008 56.309 10.0784 57.2594C10.1551 58.1981 10.3018 58.7928 10.545 59.27C11.0243 60.2108 11.7892 60.9757 12.73 61.4549C13.2072 61.6981 13.802 61.8449 14.7406 61.9216C15.691 61.9992 16.9033 62 18.6 62H63C63.5523 62 64 62.4477 64 63C64 63.5523 63.5523 64 63 64H18.5556C16.913 64 15.6191 64 14.5778 63.9149C13.5155 63.8281 12.6283 63.6478 11.8222 63.2371C10.5049 62.566 9.43404 61.495 8.76297 60.178C8.35217 59.3718 8.17186 58.4846 8.08507 57.4223C7.99999 56.3809 7.99999 55.0869 8 53.4444L8 9C8 8.44772 8.44772 8 9 8ZM63.6402 20.2318C64.0645 20.5853 64.1218 21.2159 63.7682 21.6402L48.7682 39.6402C48.5884 39.856 48.326 39.9862 48.0453 39.999C47.7646 40.0117 47.4916 39.9058 47.2929 39.7071L36.0672 28.4814L21.7682 45.6402C21.4147 46.0645 20.7841 46.1218 20.3598 45.7682C19.9355 45.4147 19.8782 44.7841 20.2318 44.3598L35.2318 26.3598C35.4116 26.144 35.674 26.0138 35.9547 26.001C36.2354 25.9883 36.5084 26.0942 36.7071 26.2929L47.9328 37.5186L62.2318 20.3598C62.5853 19.9355 63.2159 19.8782 63.6402 20.2318Z" fill="#202020"/>
</svg>
