<svg width="72" height="72" viewBox="0 0 72 72" fill="none" xmlns="http://www.w3.org/2000/svg">
<path fill-rule="evenodd" clip-rule="evenodd" d="M36 10C21.6406 10 10 21.6406 10 36C10 50.3595 21.6406 62 36 62C50.3595 62 62 50.3595 62 36C62 21.6406 50.3595 10 36 10ZM8 36C8 20.536 20.536 8 36 8C51.4641 8 64 20.536 64 36C64 51.4641 51.4641 64 36 64C20.536 64 8 51.4641 8 36ZM36 20C36.5523 20 37 20.4477 37 21V34.2338L42.9855 30.6425C43.4591 30.3584 44.0733 30.5119 44.3575 30.9855C44.6416 31.4591 44.4881 32.0733 44.0145 32.3575L36.5145 36.8575C36.2056 37.0429 35.8208 37.0477 35.5073 36.8702C35.1938 36.6927 35 36.3603 35 36V21C35 20.4477 35.4477 20 36 20Z" fill="#202020"/>
</svg>
