<svg width="72" height="72" viewBox="0 0 72 72" fill="none" xmlns="http://www.w3.org/2000/svg">
<path fill-rule="evenodd" clip-rule="evenodd" d="M18.9401 7.25195C14.6032 7.25195 11.0874 10.7677 11.0874 15.1047C11.0874 19.4416 14.6032 22.9574 18.9401 22.9574C23.2771 22.9574 26.7928 19.4416 26.7928 15.1047C26.7928 10.7677 23.2771 7.25195 18.9401 7.25195ZM9.08738 15.1047C9.08738 9.66317 13.4986 5.25195 18.9401 5.25195C24.3816 5.25195 28.7928 9.66317 28.7928 15.1047C28.7928 20.5462 24.3816 24.9574 18.9401 24.9574C13.4986 24.9574 9.08738 20.5462 9.08738 15.1047Z" fill="#202020"/>
<path fill-rule="evenodd" clip-rule="evenodd" d="M36.0619 28.7138C30.3968 28.7138 25.8043 33.3063 25.8043 38.9714C25.8043 44.6365 30.3968 49.2289 36.0619 49.2289C41.727 49.2289 46.3194 44.6365 46.3194 38.9714C46.3194 33.3063 41.727 28.7138 36.0619 28.7138ZM23.8043 38.9714C23.8043 32.2017 29.2922 26.7138 36.0619 26.7138C42.8315 26.7138 48.3194 32.2017 48.3194 38.9714C48.3194 45.7411 42.8315 51.2289 36.0619 51.2289C29.2922 51.2289 23.8043 45.7411 23.8043 38.9714Z" fill="#202020"/>
<path fill-rule="evenodd" clip-rule="evenodd" d="M53.4194 7.25195C57.7563 7.25195 61.2721 10.7677 61.2721 15.1047C61.2721 19.4416 57.7563 22.9574 53.4194 22.9574C49.0824 22.9574 45.5666 19.4416 45.5666 15.1047C45.5666 10.7677 49.0824 7.25195 53.4194 7.25195ZM63.2721 15.1047C63.2721 9.66317 58.8609 5.25195 53.4194 5.25195C47.9779 5.25195 43.5666 9.66317 43.5666 15.1047C43.5666 20.5462 47.9779 24.9574 53.4194 24.9574C58.8609 24.9574 63.2721 20.5462 63.2721 15.1047Z" fill="#202020"/>
<path fill-rule="evenodd" clip-rule="evenodd" d="M36.0618 57.6531C28.3023 57.6531 21.3343 61.037 16.5507 66.4128C16.1836 66.8254 15.5515 66.8622 15.1389 66.4951C14.7263 66.128 14.6895 65.4959 15.0566 65.0833C20.2036 59.299 27.7076 55.6531 36.0618 55.6531C44.4161 55.6531 51.9201 59.299 57.0671 65.0833C57.4342 65.4959 57.3974 66.128 56.9848 66.4951C56.5722 66.8622 55.9401 66.8254 55.5729 66.4128C50.7894 61.037 43.8214 57.6531 36.0618 57.6531Z" fill="#202020"/>
<path fill-rule="evenodd" clip-rule="evenodd" d="M18.701 29.8981C13.4453 29.8981 8.72608 32.1896 5.48561 35.8313C5.11848 36.2439 4.48638 36.2807 4.07379 35.9136C3.6612 35.5465 3.62436 34.9144 3.99149 34.5018C7.5954 30.4517 12.8506 27.8981 18.701 27.8981C19.2532 27.8981 19.701 28.3458 19.701 28.8981C19.701 29.4504 19.2532 29.8981 18.701 29.8981Z" fill="#202020"/>
<path fill-rule="evenodd" clip-rule="evenodd" d="M53.299 29.8981C58.5547 29.8981 63.2739 32.1896 66.5144 35.8313C66.8815 36.2439 67.5136 36.2807 67.9262 35.9136C68.3388 35.5465 68.3756 34.9144 68.0085 34.5018C64.4046 30.4517 59.1494 27.8981 53.299 27.8981C52.7467 27.8981 52.299 28.3458 52.299 28.8981C52.299 29.4504 52.7467 29.8981 53.299 29.8981Z" fill="#202020"/>
</svg>
