<svg width="72" height="72" viewBox="0 0 72 72" fill="none" xmlns="http://www.w3.org/2000/svg">
<path fill-rule="evenodd" clip-rule="evenodd" d="M36 64.0139C51.4717 64.0139 64.0139 51.4717 64.0139 36C64.0139 20.5283 51.4717 7.98608 36 7.98608C20.5283 7.98608 7.98608 20.5283 7.98608 36C7.98608 51.4717 20.5283 64.0139 36 64.0139ZM36 66.0139C52.5763 66.0139 66.0139 52.5763 66.0139 36C66.0139 19.4238 52.5763 5.98608 36 5.98608C19.4238 5.98608 5.98608 19.4238 5.98608 36C5.98608 52.5763 19.4238 66.0139 36 66.0139Z" fill="#202020"/>
<path fill-rule="evenodd" clip-rule="evenodd" d="M45.6162 23.2471C44.002 23.2471 42.609 23.683 41.6961 24.3095C41.2407 24.622 40.6182 24.5062 40.3057 24.0508C39.9932 23.5954 40.1091 22.9729 40.5644 22.6604C41.8677 21.7661 43.6735 21.2471 45.6162 21.2471C47.5589 21.2471 49.3647 21.7661 50.668 22.6604C51.1234 22.9729 51.2392 23.5954 50.9267 24.0508C50.6142 24.5062 49.9917 24.622 49.5364 24.3095C48.6234 23.683 47.2304 23.2471 45.6162 23.2471Z" fill="#202020"/>
<path fill-rule="evenodd" clip-rule="evenodd" d="M36.0078 47.6476C33.9888 48.1886 32.5621 49.3213 32.0289 50.3767C31.7799 50.8697 31.1784 51.0674 30.6854 50.8184C30.1925 50.5694 29.9947 49.9679 30.2438 49.4749C31.1104 47.7595 33.1104 46.3534 35.4902 45.7158C37.8699 45.0781 40.305 45.2958 41.9132 46.3481C42.3754 46.6505 42.5049 47.2703 42.2025 47.7324C41.9001 48.1945 41.2803 48.3241 40.8182 48.0217C39.8287 47.3742 38.0268 47.1066 36.0078 47.6476Z" fill="#202020"/>
<path fill-rule="evenodd" clip-rule="evenodd" d="M31.7153 23.1203C31.9167 23.6345 31.6631 24.2147 31.1489 24.4161C29.6229 25.0138 27.3068 25.9143 25.3177 26.6734C24.3236 27.0528 23.4079 27.3981 22.7123 27.653C22.3652 27.7802 22.0678 27.8867 21.8409 27.9641C21.7281 28.0026 21.6264 28.0361 21.5418 28.0619C21.4816 28.0803 21.3607 28.117 21.2459 28.1334C20.6992 28.2115 20.1927 27.8317 20.1145 27.2849C20.0387 26.754 20.3946 26.261 20.9159 26.1614C20.9238 26.1592 20.9376 26.1553 20.9582 26.149C21.0128 26.1323 21.0912 26.1067 21.1948 26.0714C21.4008 26.001 21.682 25.9004 22.0242 25.7751C22.7072 25.5248 23.6131 25.1832 24.6045 24.8049C26.5864 24.0485 28.8967 23.1503 30.4195 22.5538C30.9337 22.3524 31.5139 22.606 31.7153 23.1203Z" fill="#202020"/>
<path d="M30.7842 32.1068C30.7842 34.195 29.0913 35.8879 27.0031 35.8879C24.9148 35.8879 23.222 34.195 23.222 32.1068C23.222 30.0185 24.9148 28.3257 27.0031 28.3257C29.0913 28.3257 30.7842 30.0185 30.7842 32.1068Z" fill="#202020"/>
<path d="M48.9039 32.1068C48.9039 34.195 47.2111 35.8879 45.1228 35.8879C43.0346 35.8879 41.3417 34.195 41.3417 32.1068C41.3417 30.0185 43.0346 28.3257 45.1228 28.3257C47.2111 28.3257 48.9039 30.0185 48.9039 32.1068Z" fill="#202020"/>
</svg>
