<svg width="72" height="72" viewBox="0 0 72 72" fill="none" xmlns="http://www.w3.org/2000/svg">
<path fill-rule="evenodd" clip-rule="evenodd" d="M2.4875 7.875C2.4875 7.32272 2.93522 6.875 3.4875 6.875H68.5125C69.0648 6.875 69.5125 7.32272 69.5125 7.875C69.5125 8.42728 69.0648 8.875 68.5125 8.875H61.75V47.465C61.75 48.5696 60.8546 49.465 59.75 49.465H44.6111L52.7082 63.6287C52.9823 64.1082 52.8158 64.7191 52.3363 64.9932C51.8569 65.2673 51.246 65.1008 50.9719 64.6213L42.3073 49.465H29.7827L21.1182 64.6213C20.8441 65.1008 20.2332 65.2673 19.7537 64.9932C19.2742 64.7191 19.1078 64.1082 19.3819 63.6287L27.479 49.465H12.25C11.1454 49.465 10.25 48.5696 10.25 47.465V8.875L3.4875 8.875C2.93522 8.875 2.4875 8.42728 2.4875 7.875ZM12.25 8.875V47.465H59.75V8.875L12.25 8.875ZM47.25 18.485C47.8023 18.485 48.25 18.9327 48.25 19.485L48.25 37.035C48.25 37.5873 47.8023 38.035 47.25 38.035C46.6977 38.035 46.25 37.5873 46.25 37.035L46.25 19.485C46.25 18.9327 46.6977 18.485 47.25 18.485ZM36 22.985C36.5523 22.985 37 23.4327 37 23.985L37 37.035C37 37.5873 36.5523 38.035 36 38.035C35.4477 38.035 35 37.5873 35 37.035L35 23.985C35 23.4327 35.4477 22.985 36 22.985ZM24.66 27.485C25.2123 27.485 25.66 27.9327 25.66 28.485V36.99C25.66 37.5423 25.2123 37.99 24.66 37.99C24.1077 37.99 23.66 37.5423 23.66 36.99V28.485C23.66 27.9327 24.1077 27.485 24.66 27.485Z" fill="#202020"/>
</svg>
