<svg width="24" height="24" viewBox="0 0 24 24" fill="none" xmlns="http://www.w3.org/2000/svg">
<path d="M19.1276 5.89008L19.1455 14.8771C19.1455 15.1653 19.0375 15.4174 18.8574 15.5975C18.6773 15.7776 18.4251 15.8857 18.137 15.8857C17.5607 15.8857 17.1104 15.4355 17.1104 14.8592V8.33949L6.5925 18.8573C6.19628 19.2536 5.54791 19.2536 5.15169 18.8573C4.75547 18.4612 4.75547 17.8128 5.15169 17.4165L15.6696 6.89864H9.1139C8.53761 6.89865 8.08734 6.44839 8.08734 5.87207C8.08734 5.29575 8.53761 4.84549 9.1139 4.84549L18.1009 4.8635C18.6773 4.8635 19.1455 5.33177 19.1276 5.89008Z" fill="#5D8243"/>
</svg>
