<svg width="25" height="24" viewBox="0 0 25 24" fill="none" xmlns="http://www.w3.org/2000/svg">
<path d="M19.6276 5.89008L19.6455 14.8771C19.6455 15.1653 19.5375 15.4174 19.3574 15.5975C19.1773 15.7776 18.9251 15.8857 18.637 15.8857C18.0607 15.8857 17.6104 15.4355 17.6104 14.8592V8.33949L7.0925 18.8573C6.69628 19.2536 6.04791 19.2536 5.65169 18.8573C5.25547 18.4612 5.25547 17.8128 5.65169 17.4165L16.1696 6.89864H9.6139C9.03761 6.89865 8.58734 6.44839 8.58734 5.87207C8.58734 5.29575 9.03761 4.84549 9.6139 4.84549L18.6009 4.8635C19.1773 4.8635 19.6455 5.33177 19.6276 5.89008Z" fill="white"/>
</svg>
