<svg width="72" height="72" viewBox="0 0 72 72" fill="none" xmlns="http://www.w3.org/2000/svg">
<path fill-rule="evenodd" clip-rule="evenodd" d="M28.0497 51.2569C30.3521 47.4487 31.8411 42.0594 31.8411 36C31.8411 29.9405 30.3521 24.5512 28.0497 20.743C25.7247 16.8973 22.7871 14.96 19.9115 14.96C17.0359 14.96 14.0983 16.8973 11.7733 20.743C9.4709 24.5512 7.98187 29.9405 7.98187 36C7.98187 42.0594 9.4709 47.4487 11.7733 51.2569C14.0983 55.1026 17.0359 57.04 19.9115 57.04C22.7871 57.04 25.7247 55.1026 28.0497 51.2569ZM19.9115 59.04C27.6046 59.04 33.8411 48.7246 33.8411 36C33.8411 23.2753 27.6046 12.96 19.9115 12.96C12.2184 12.96 5.98187 23.2753 5.98187 36C5.98187 48.7246 12.2184 59.04 19.9115 59.04Z" fill="#202020"/>
<path fill-rule="evenodd" clip-rule="evenodd" d="M14.1876 44.0874C17.6149 44.0874 20.3933 41.309 20.3933 37.8817C20.3933 34.4544 17.6149 31.676 14.1876 31.676C10.7603 31.676 7.98187 34.4544 7.98187 37.8817C7.98187 41.309 10.7603 44.0874 14.1876 44.0874ZM14.1876 46.0874C18.7194 46.0874 22.3933 42.4136 22.3933 37.8817C22.3933 33.3498 18.7194 29.676 14.1876 29.676C9.65569 29.676 5.98187 33.3498 5.98187 37.8817C5.98187 42.4136 9.65569 46.0874 14.1876 46.0874Z" fill="#202020"/>
<path fill-rule="evenodd" clip-rule="evenodd" d="M12.3257 36.1137C13.4405 36.1137 14.3442 35.21 14.3442 34.0951C14.3442 32.9803 13.4405 32.0766 12.3257 32.0766C11.2108 32.0766 10.3071 32.9803 10.3071 34.0951C10.3071 35.21 11.2108 36.1137 12.3257 36.1137ZM12.3257 38.1137C14.5451 38.1137 16.3442 36.3145 16.3442 34.0951C16.3442 31.8757 14.5451 30.0766 12.3257 30.0766C10.1063 30.0766 8.30708 31.8757 8.30708 34.0951C8.30708 36.3145 10.1063 38.1137 12.3257 38.1137Z" fill="#202020"/>
<path fill-rule="evenodd" clip-rule="evenodd" d="M60.2267 51.2569C62.5291 47.4487 64.0181 42.0594 64.0181 36C64.0181 29.9405 62.5291 24.5512 60.2267 20.743C57.9017 16.8973 54.9641 14.96 52.0885 14.96C49.2129 14.96 46.2753 16.8973 43.9503 20.743C41.6479 24.5512 40.1589 29.9405 40.1589 36C40.1589 42.0594 41.6479 47.4487 43.9503 51.2569C46.2753 55.1026 49.2129 57.04 52.0885 57.04C54.9641 57.04 57.9017 55.1026 60.2267 51.2569ZM52.0885 59.04C59.7816 59.04 66.0181 48.7246 66.0181 36C66.0181 23.2753 59.7816 12.96 52.0885 12.96C44.3954 12.96 38.1589 23.2753 38.1589 36C38.1589 48.7246 44.3954 59.04 52.0885 59.04Z" fill="#202020"/>
<path fill-rule="evenodd" clip-rule="evenodd" d="M46.3646 44.0874C49.7919 44.0874 52.5702 41.309 52.5702 37.8817C52.5702 34.4544 49.7919 31.676 46.3646 31.676C42.9372 31.676 40.1589 34.4544 40.1589 37.8817C40.1589 41.309 42.9372 44.0874 46.3646 44.0874ZM46.3646 46.0874C50.8964 46.0874 54.5702 42.4136 54.5702 37.8817C54.5702 33.3498 50.8964 29.676 46.3646 29.676C41.8327 29.676 38.1589 33.3498 38.1589 37.8817C38.1589 42.4136 41.8327 46.0874 46.3646 46.0874Z" fill="#202020"/>
<path fill-rule="evenodd" clip-rule="evenodd" d="M44.5026 36.1137C45.6175 36.1137 46.5212 35.21 46.5212 34.0951C46.5212 32.9803 45.6175 32.0766 44.5026 32.0766C43.3878 32.0766 42.4841 32.9803 42.4841 34.0951C42.4841 35.21 43.3878 36.1137 44.5026 36.1137ZM44.5026 38.1137C46.722 38.1137 48.5212 36.3145 48.5212 34.0951C48.5212 31.8757 46.722 30.0766 44.5026 30.0766C42.2832 30.0766 40.4841 31.8757 40.4841 34.0951C40.4841 36.3145 42.2832 38.1137 44.5026 38.1137Z" fill="#202020"/>
</svg>
