<svg width="72" height="72" viewBox="0 0 72 72" fill="none" xmlns="http://www.w3.org/2000/svg">
<path fill-rule="evenodd" clip-rule="evenodd" d="M31.5909 20.335L31.5883 20.2726L31.5882 20.2705C31.5531 19.4179 31.5153 18.5032 31.4827 17.4899C31.4728 17.1831 31.3648 16.6171 31.1708 15.95C30.9814 15.2985 30.7709 14.7563 30.6568 14.5265C27.9184 9.01253 22.062 6.43405 16.4732 8.10587L15.9 6.18976C22.4648 4.226 29.2967 7.2916 32.4481 13.6369C32.8215 14.389 33.4454 16.3012 33.4817 17.4254C33.514 18.4293 33.5514 19.3363 33.5866 20.1902L33.5875 20.2116L33.5876 20.2126C33.6877 22.6404 33.7702 24.6413 33.6717 27.2257C33.5265 31.0363 31.0732 33.4428 27.2806 33.6689C24.6204 33.8274 21.9409 33.7994 19.2754 33.7035C12.316 33.4534 6.65146 28.3829 5.69703 21.6481C4.72112 14.7616 9.02063 8.24763 15.9 6.18976L16.4732 8.10587C10.4949 9.89417 6.84685 15.5079 7.67725 21.3674C8.49294 27.1233 13.3362 31.4888 19.3472 31.7048C21.9824 31.7996 24.5913 31.8256 27.1616 31.6724C28.6584 31.5832 29.728 31.0793 30.4293 30.3777C31.126 29.6806 31.6167 28.6311 31.6732 27.1495C31.7678 24.6676 31.6904 22.7465 31.5909 20.3361L31.5909 20.335ZM36.1532 53.2028C36.2457 59.7205 39.0642 63.9176 44.5877 65.7945C49.446 67.4446 54.8502 65.6388 57.9433 61.3308C61.0412 57.0163 60.7552 51.7973 56.9146 46.3412C52.0515 41.264 44.0362 42.3331 40.5284 43.1029C39.1332 43.5476 38.128 45.625 37.1872 47.5694L37.1762 47.5921C37.0698 47.8119 36.9643 48.03 36.859 48.2437C36.4369 49.5102 36.1314 51.6635 36.1532 53.2028ZM38.7184 48.9945C38.3949 50.042 38.1346 51.8749 38.153 53.1744C38.1953 56.1567 38.8581 58.4289 39.9952 60.1254C41.1204 61.8042 42.8175 63.0807 45.2309 63.9008M38.7184 48.9945C38.8047 48.8183 38.8904 48.6411 38.9743 48.4677L38.9847 48.4462L38.9873 48.4409C39.4728 47.4374 39.8998 46.5632 40.3534 45.8803C40.5743 45.5477 40.7648 45.3184 40.922 45.1702C41.0107 45.0865 41.0725 45.0442 41.1065 45.0241C42.7685 44.6693 45.3514 44.2829 48.0362 44.5216C50.7538 44.7632 53.3968 45.6257 55.3679 47.6194C57.074 50.0799 57.9027 52.3585 58.0351 54.3939C58.1679 56.4349 57.6114 58.364 56.3187 60.1644C53.7153 63.7903 49.2175 65.2547 45.2309 63.9008M19.0257 42.2458C15.6851 42.9751 13.5133 44.0782 12.1663 45.4309C10.8685 46.7343 10.1605 48.446 10.0916 50.8159C9.96552 55.1485 12.227 58.3252 16.3328 59.6119L15.7347 61.5204C10.7692 59.9642 7.94047 55.9805 8.09244 50.7578C8.25415 45.1974 11.5129 41.8388 18.5991 40.2918C20.3939 39.8998 22.1378 39.9921 23.5733 40.393C25.2386 40.8581 27.0751 41.6099 28.2296 42.8179C30.6428 45.343 30.2449 53.8177 27.8937 57.2222C25.069 61.3122 20.3706 62.9733 15.7347 61.5204L16.3328 59.6119C20.1058 60.7944 23.9053 59.4777 26.248 56.0857C27.1058 54.8436 27.7627 52.3256 27.8493 49.6262C27.8912 48.3215 27.7944 47.0906 27.5728 46.0859C27.3408 45.0345 27.0199 44.4469 26.7838 44.1998C26.0147 43.3951 24.6163 42.7608 23.0353 42.3193C21.914 42.0061 20.5012 41.9235 19.0257 42.2458ZM50.6239 12.324C58.3288 11.2552 63.9126 15.6893 64.4043 22.1175C64.9093 28.7201 60.0204 33.9177 52.5848 34.0045C51.2001 34.0206 49.8117 34.018 48.4188 34.0049C45.6609 33.9789 44.3141 33.4336 43.5885 32.7028C42.8593 31.9686 42.3164 30.6043 42.2909 27.8234C42.2424 22.5397 42.7717 19 44.0386 16.6313C45.2042 14.4519 47.1253 13.0336 50.6239 12.324ZM50.2873 10.3516C58.9756 9.11819 65.8036 14.1871 66.3984 21.965C67.0018 29.8533 61.0606 35.9057 52.6082 36.0044C51.2056 36.0207 49.8025 36.018 48.3999 36.0048C42.5429 35.9496 40.345 33.7338 40.2909 27.8418C40.193 17.1659 42.3475 11.9378 50.2873 10.3516Z" fill="#202020"/>
</svg>
