<svg width="72" height="72" viewBox="0 0 72 72" fill="none" xmlns="http://www.w3.org/2000/svg">
<path fill-rule="evenodd" clip-rule="evenodd" d="M35.7575 17.0299C35.9167 16.99 36.0833 16.99 36.2425 17.0299L69.2425 25.2799C69.6877 25.3911 70 25.7911 70 26.25C70 26.7089 69.6877 27.1089 69.2425 27.2201L55.052 30.7678C55.1148 30.8986 55.15 31.0452 55.15 31.2V47.6515C55.15 48.0012 54.9673 48.3255 54.6682 48.5068L54.15 47.6515C54.6682 48.5068 54.6685 48.5066 54.6682 48.5068L54.6649 48.5087L54.6586 48.5125L54.637 48.5254C54.6186 48.5364 54.5923 48.5519 54.5583 48.5717C54.4903 48.6113 54.3915 48.668 54.2635 48.7395C54.0074 48.8824 53.6343 49.0842 53.157 49.3252C52.2028 49.8069 50.8297 50.4467 49.1416 51.0859C45.7727 52.3616 41.1107 53.65 36 53.65C30.8893 53.65 26.2273 52.3616 22.8584 51.0859C21.1703 50.4467 19.7972 49.8069 18.843 49.3252C18.3657 49.0842 17.9926 48.8824 17.7365 48.7395C17.6085 48.668 17.5097 48.6113 17.4417 48.5717C17.4077 48.5519 17.3814 48.5364 17.363 48.5254L17.3414 48.5125L17.3351 48.5087L17.3331 48.5075C17.3328 48.5073 17.3318 48.5068 17.85 47.6515L17.3318 48.5068C17.0327 48.3255 16.85 48.0012 16.85 47.6515V31.2C16.85 31.0452 16.8852 30.8986 16.948 30.7678L8.5 28.6558L8.5 51.5H12.9C13.4523 51.5 13.9 51.9477 13.9 52.5V62.4C13.9 62.9523 13.4523 63.4 12.9 63.4H3C2.44772 63.4 2 62.9523 2 62.4V52.5C2 51.9477 2.44772 51.5 3 51.5H6.5L6.5 28.5C6.5 28.3843 6.51966 28.2731 6.55582 28.1697L2.75746 27.2201C2.3123 27.1089 2 26.7089 2 26.25C2 25.7911 2.3123 25.3911 2.75746 25.2799L35.7575 17.0299ZM6.5 53.5H4V61.4H11.9V53.5H8.5V55.5C8.5 56.0523 8.05228 56.5 7.5 56.5C6.94771 56.5 6.5 56.0523 6.5 55.5V53.5ZM18.85 31.2433V47.0699C19.0751 47.1934 19.3756 47.3536 19.7445 47.5398C20.6465 47.9953 21.9547 48.6052 23.5666 49.2155C26.7977 50.4391 31.2107 51.65 36 51.65C40.7893 51.65 45.2023 50.4391 48.4334 49.2155C50.0453 48.6052 51.3535 47.9953 52.2555 47.5398C52.6244 47.3536 52.9249 47.1934 53.15 47.0699V31.2433L36.2425 35.4701C36.0833 35.51 35.9167 35.51 35.7575 35.4701L18.85 31.2433ZM7.12311 26.25L36 33.4692L64.8769 26.25L36 19.0308L7.12311 26.25Z" fill="#202020"/>
</svg>
