<svg width="72" height="72" viewBox="0 0 72 72" fill="none" xmlns="http://www.w3.org/2000/svg">
<path fill-rule="evenodd" clip-rule="evenodd" d="M37.7714 16.1125C36.2205 15.393 34.4572 15.2769 32.8253 15.7868L20.6069 19.6051C20.0889 19.7669 19.5378 19.4783 19.3759 18.9603C19.214 18.4423 19.5027 17.8912 20.0207 17.7293L32.2391 13.9111C34.3372 13.2554 36.6044 13.4047 38.5984 14.3298L45.83 17.6846H51.4919C52.0346 17.6846 52.4745 18.1245 52.4745 18.6672C52.4745 19.2099 52.0346 19.6498 51.4919 19.6498H45.634C45.6197 19.6501 45.6054 19.6501 45.5911 19.6498H39.6187L29.0695 30.2778C28.0619 31.293 28.4416 33.0101 29.7833 33.5057L31.1471 34.0095C34.5719 35.2745 38.4038 34.7251 41.3351 32.5487L43.7179 30.7797L56.2693 39.918C56.708 40.2374 56.8047 40.852 56.4853 41.2907C56.1659 41.7294 55.5513 41.8261 55.1126 41.5067L43.7293 33.2189L42.5066 34.1266C39.0423 36.6986 34.5136 37.3479 30.4662 35.8529L29.1024 35.3492C26.419 34.358 25.6595 30.9237 27.6747 28.8934L38.8005 17.6846H41.1603L37.7714 16.1125Z" fill="#202020"/>
<path fill-rule="evenodd" clip-rule="evenodd" d="M10.8268 34.7531C11.1612 34.3257 11.7787 34.2503 12.2061 34.5846L26.3036 45.6132C27.073 46.2151 27.9618 46.6463 28.9109 46.8779L40.677 49.7494C42.977 50.3107 45.404 49.6497 47.1017 47.9996L55.1737 40.1539L59.5455 34.7411C59.8865 34.319 60.5052 34.2532 60.9273 34.5941C61.3495 34.9351 61.4153 35.5538 61.0743 35.9759L56.6282 41.4807L48.4714 49.4088C46.2886 51.5304 43.1682 52.3802 40.2111 51.6585L28.445 48.787C27.2247 48.4892 26.082 47.9349 25.0927 47.161L10.9953 36.1325C10.5679 35.7981 10.4924 35.1805 10.8268 34.7531Z" fill="#202020"/>
<path fill-rule="evenodd" clip-rule="evenodd" d="M15.2695 48.7792C15.6264 48.3704 16.2471 48.3283 16.6559 48.6852L21.811 53.1856C22.6493 53.9175 23.6525 54.435 24.7348 54.6938L32.5097 56.553C33.0375 56.6792 33.363 57.2094 33.2368 57.7372C33.1106 58.265 32.5804 58.5905 32.0526 58.4643L24.2777 56.6051C22.8863 56.2723 21.5963 55.607 20.5186 54.6661L15.3635 50.1656C14.9547 49.8087 14.9126 49.188 15.2695 48.7792Z" fill="#202020"/>
<path fill-rule="evenodd" clip-rule="evenodd" d="M11.2006 16.917L5.07445 28.6316C4.57149 29.5934 4.94343 30.7808 5.9052 31.2837L11.2688 34.0886L19.2163 18.8912L13.8528 16.0863C12.891 15.5833 11.7036 15.9552 11.2006 16.917ZM3.33301 27.7209C2.32709 29.6445 3.07096 32.0193 4.9945 33.0252L12.0995 36.7408L21.8685 18.0604L14.7634 14.3448C12.8399 13.3389 10.4651 14.0828 9.45919 16.0063L3.33301 27.7209Z" fill="#202020"/>
<path fill-rule="evenodd" clip-rule="evenodd" d="M60.7994 17.14L66.9255 28.8546C67.4285 29.8164 67.0566 31.0038 66.0948 31.5067L60.7312 34.3116L52.7836 19.1141L58.1472 16.3093C59.109 15.8063 60.2964 16.1782 60.7994 17.14ZM68.667 27.9439C69.6729 29.8675 68.929 32.2423 67.0055 33.2482L59.9005 36.9638L50.1315 18.2834L57.2365 14.5678C59.1601 13.5619 61.5349 14.3058 62.5408 16.2293L68.667 27.9439Z" fill="#202020"/>
</svg>
