<svg width="72" height="72" viewBox="0 0 72 72" fill="none" xmlns="http://www.w3.org/2000/svg">
<path fill-rule="evenodd" clip-rule="evenodd" d="M11 9C11 8.44772 11.4477 8 12 8H60C60.5523 8 61 8.44772 61 9C61 9.55228 60.5523 10 60 10H57.9795C57.6724 17.4759 53.9351 24.4181 47.8165 28.7886L37.7205 36L47.8165 43.2113C53.9351 47.582 57.6724 54.5241 57.9795 62H60C60.5523 62 61 62.4477 61 63C61 63.5523 60.5523 64 60 64H12C11.4477 64 11 63.5523 11 63C11 62.4477 11.4477 62 12 62H14.0205C14.3276 54.5241 18.0648 47.582 24.1835 43.2113L34.2795 36L24.1836 28.7886C18.0648 24.4181 14.3276 17.4759 14.0205 10H12C11.4477 10 11 9.55228 11 9ZM16.0224 10C16.3281 16.8297 19.753 23.1661 25.346 27.1611L36 34.7711L46.6541 27.1611C52.247 23.1661 55.6719 16.8297 55.9776 10H16.0224ZM36 37.2289L25.346 44.8387C19.753 48.834 16.3281 55.1703 16.0224 62H55.9776C55.6719 55.1703 52.247 48.834 46.654 44.8387L36 37.2289ZM29 18C29 17.4477 29.4477 17 30 17H42C42.5523 17 43 17.4477 43 18C43 18.5523 42.5523 19 42 19H30C29.4477 19 29 18.5523 29 18ZM26 54C26 53.4477 26.4477 53 27 53H45C45.5523 53 46 53.4477 46 54C46 54.5523 45.5523 55 45 55H27C26.4477 55 26 54.5523 26 54Z" fill="#202020"/>
</svg>
