<svg width="72" height="72" viewBox="0 0 72 72" fill="none" xmlns="http://www.w3.org/2000/svg">
<path fill-rule="evenodd" clip-rule="evenodd" d="M61.1418 8.87517L40.0894 7.89041C39.5085 7.86229 38.9383 8.08229 38.5225 8.49819L8.49831 38.5226C8.49825 38.5227 8.49837 38.5225 8.49831 38.5226C8.10755 38.9136 7.888 39.4435 7.888 39.9957C7.888 40.5483 8.10746 41.0781 8.49812 41.4687L30.5317 63.5021C30.9383 63.9088 31.468 64.1121 32.0046 64.1121C32.5405 64.1121 33.0703 63.9092 33.4777 63.5021C33.4776 63.5023 33.4778 63.502 33.4777 63.5021L63.5017 33.4781C63.9163 33.0635 64.1371 32.4932 64.1097 31.9078L63.1253 10.8586C63.0751 9.78474 62.2157 8.92537 61.1418 8.87517ZM34.8919 64.9164C34.0945 65.7134 33.0494 66.1121 32.0046 66.1121C30.9596 66.1121 29.9145 65.7136 29.1175 64.9164L7.08391 42.8829C6.31814 42.1172 5.888 41.0787 5.888 39.9957C5.888 38.9126 6.31835 37.8743 7.08391 37.1086L37.1081 7.08416C37.9206 6.27144 39.0388 5.83721 40.1861 5.89274L61.2353 6.87735C63.3403 6.97575 65.0247 8.66019 65.1231 10.7652L66.1075 31.8144C66.1612 32.9623 65.7284 34.0798 64.9159 34.8923L34.8919 64.9164ZM54.2833 27.5343C51.61 30.2076 47.2755 30.2076 44.6022 27.5343C41.9289 24.861 41.9289 20.5265 44.6022 17.8532C47.2755 15.1799 51.61 15.1799 54.2833 17.8532C56.9565 20.5264 56.9568 24.8607 54.2833 27.5343ZM46.0164 26.1201C47.9086 28.0123 50.9768 28.0123 52.8691 26.1201C54.7615 24.2276 54.7613 21.1597 52.8691 19.2674C50.9768 17.3751 47.9086 17.3751 46.0164 19.2674C44.1241 21.1597 44.1241 24.2278 46.0164 26.1201Z" fill="#202020"/>
</svg>
