<svg width="72" height="72" viewBox="0 0 72 72" fill="none" xmlns="http://www.w3.org/2000/svg">
<path fill-rule="evenodd" clip-rule="evenodd" d="M14 30.6C14 18.1451 23.8234 8 36 8C48.1767 8 58 18.1451 58 30.6C58 36.8729 55.2359 42.4832 51.238 47.8228C47.8876 52.2975 43.5992 56.671 39.2195 61.1376C38.3867 61.987 37.5506 62.8397 36.717 63.6971C36.5287 63.8907 36.2701 64 36 64C35.7299 64 35.4713 63.8907 35.283 63.6971C34.4494 62.8397 33.6133 61.987 32.7805 61.1376C28.4008 56.671 24.1124 52.2975 20.762 47.8228C16.7641 42.4832 14 36.8729 14 30.6ZM36 10C24.9807 10 16 19.1962 16 30.6C16 36.2563 18.4859 41.446 22.363 46.6241C25.6261 50.9822 29.8025 55.2424 34.1839 59.7118C34.786 60.326 35.392 60.9441 36 61.567C36.608 60.9441 37.214 60.326 37.8161 59.7118C42.1975 55.2424 46.3739 50.9822 49.637 46.6241C53.5141 41.446 56 36.2563 56 30.6C56 19.1962 47.0193 10 36 10Z" fill="#202020"/>
<path fill-rule="evenodd" clip-rule="evenodd" d="M29 30C29 26.134 32.1339 23 36 23C39.8661 23 43 26.134 43 30C43 33.8661 39.8661 37 36 37C32.1339 37 29 33.8661 29 30ZM36 25C33.2385 25 31 27.2386 31 30C31 32.7615 33.2385 35 36 35C38.7615 35 41 32.7615 41 30C41 27.2386 38.7615 25 36 25Z" fill="#202020"/>
</svg>
