<svg width="111" height="57" viewBox="0 0 111 57" fill="none" xmlns="http://www.w3.org/2000/svg">
<path d="M63.6448 55.8103V1.83314H83.6163C88.8341 1.83314 93.4607 2.89984 97.4962 5.03322C101.532 7.1666 104.693 10.251 106.981 14.2864C109.294 18.2962 110.451 23.1413 110.451 28.8217C110.451 34.5022 109.294 39.3601 106.981 43.3955C104.693 47.4053 101.532 50.4768 97.4962 52.6102C93.4607 54.7436 88.8341 55.8103 83.6163 55.8103H63.6448ZM70.9703 49.1788H83.6163C87.7289 49.1788 91.1731 48.3306 93.9491 46.6342C96.7508 44.912 98.8585 42.5216 100.272 39.4629C101.712 36.4042 102.431 32.8571 102.431 28.8217C102.431 24.7863 101.712 21.2392 100.272 18.1805C98.8585 15.1218 96.7508 12.7442 93.9491 11.0478C91.1731 9.32569 87.7289 8.46462 83.6163 8.46462H70.9703V49.1788Z" fill="#202020"/>
<path d="M32.3357 26.2C35.3173 26.2 37.9005 25.5445 40.0853 24.2337C42.2701 22.9228 43.9537 21.1364 45.136 18.8745C46.3441 16.6126 46.9481 14.0937 46.9481 11.3177C46.9481 8.49035 46.1385 6.38267 44.5192 4.99468C42.8998 3.581 40.2138 2.87416 36.4611 2.87416H25.0874L26.5525 0.676514H39.2371C43.1697 0.676514 46.3569 1.13917 48.7988 2.0645C51.2663 2.96411 53.0784 4.23643 54.235 5.88145C55.3917 7.52647 55.97 9.41567 55.97 11.5491C55.97 14.5821 55.1604 17.2809 53.541 19.6456C51.9217 21.9846 49.557 23.8353 46.4469 25.1976C43.3368 26.5598 39.5198 27.2924 34.996 27.3952V27.3181C36.9238 27.3181 38.5431 27.6265 39.854 28.2434C41.1649 28.8346 42.2444 29.7342 43.0926 30.9423C43.9665 32.1503 44.7119 33.6668 45.3288 35.4918L49.647 48.5619C50.2382 50.3098 50.7522 51.5949 51.1892 52.4174C51.6518 53.24 52.2173 53.7669 52.8856 53.9982C53.5796 54.2295 54.5306 54.3323 55.7387 54.3066L55.2375 55.8103C52.5129 56.0673 50.2767 56.1573 48.5289 56.0802C46.7811 56.0031 45.3674 55.7203 44.2878 55.232C43.234 54.7179 42.3986 53.9596 41.7817 52.9572C41.1906 51.9291 40.6508 50.6054 40.1624 48.986L36.1913 35.9159C35.5487 33.6283 34.9832 31.9575 34.4948 30.9037C34.0065 29.8242 33.4795 29.143 32.9141 28.8603C32.3486 28.5518 31.6032 28.3976 30.6779 28.3976H17.9161L17.8776 26.2H32.3357ZM16.9908 53.3813L23.044 55.0006L22.8126 55.8103H0.450684L0.720569 55.0006L7.42915 53.3428L22.7741 3.10548L16.6824 1.48617L16.9137 0.676514H33.0683L16.9908 53.3813Z" fill="#202020"/>
<path d="M90.4421 22.4137C90.4421 25.0772 87.3903 27.8392 85.5592 27.8392C83.7281 27.8392 80.6763 25.0772 80.6763 22.4137C80.6763 19.7502 83.7281 16.9882 85.5592 16.9882C87.3903 16.9882 90.4421 19.7502 90.4421 22.4137Z" fill="#202020"/>
<path d="M90.4422 35.7966C90.4422 38.4601 87.3903 41.2221 85.5592 41.2221C83.7281 41.2221 80.6763 38.4601 80.6763 35.7966C80.6763 33.1331 83.7281 30.3711 85.5592 30.3711C87.3903 30.3711 90.4422 33.1331 90.4422 35.7966Z" fill="#202020"/>
<path d="M92.2506 33.9881C89.5872 33.9881 86.8251 30.9363 86.8251 29.1052C86.8251 27.2741 89.5872 24.2222 92.2506 24.2222C94.9141 24.2222 97.6761 27.2741 97.6761 29.1052C97.6761 30.9363 94.9141 33.9881 92.2506 33.9881Z" fill="#202020"/>
<path d="M78.8677 33.9881C76.2043 33.9881 73.4423 30.9363 73.4423 29.1052C73.4423 27.2741 76.2043 24.2223 78.8677 24.2223C81.5312 24.2223 84.2932 27.2741 84.2932 29.1052C84.2932 30.9363 81.5312 33.9881 78.8677 33.9881Z" fill="#202020"/>
</svg>
