<svg width="72" height="78" viewBox="0 0 72 78" fill="none" xmlns="http://www.w3.org/2000/svg">
<path d="M64.6785 54.5266C67.5849 49.6113 69.4187 44.2538 69.4187 38.9543C69.4187 34.2894 67.9977 29.5793 65.6749 25.1656C63.9864 21.5305 61.6465 18.2593 58.8052 15.5019C51.8082 7.84336 42.7357 2.54858 36.0468 2.54858C28.6266 2.54858 18.2734 9.06424 11.0739 18.0944C10.2449 19.0938 9.47452 20.1436 8.76806 21.2384C5.08925 26.7163 2.6748 32.8736 2.6748 38.9543C2.6748 56.8267 23.5323 75.3601 36.0468 75.3601C43.3085 75.3601 53.3795 69.1197 60.5544 60.389C62.1338 58.599 63.5195 56.6339 64.6785 54.5266Z" fill="#72A242"/>
</svg>
