<svg width="78" height="78" viewBox="0 0 78 78" fill="none" xmlns="http://www.w3.org/2000/svg">
<path d="M54.6279 17.7067C54.6279 26.2312 44.8605 35.071 39 35.071C33.1396 35.071 23.3721 26.2312 23.3721 17.7067C23.3721 9.18224 33.1396 0.342407 39 0.342407C44.8605 0.342407 54.6279 9.18224 54.6279 17.7067Z" fill="#72A242"/>
<path d="M54.6279 60.5387C54.6279 69.0632 44.8605 77.903 39 77.903C33.1396 77.903 23.3721 69.0632 23.3721 60.5387C23.3721 52.0142 33.1396 43.1744 39 43.1744C44.8605 43.1744 54.6279 52.0142 54.6279 60.5387Z" fill="#72A242"/>
<path d="M60.416 54.7506C51.8915 54.7506 43.0517 44.9832 43.0517 39.1227C43.0517 33.2623 51.8915 23.4948 60.416 23.4948C68.9405 23.4948 77.7803 33.2623 77.7803 39.1227C77.7803 44.9832 68.9405 54.7506 60.416 54.7506Z" fill="#72A242"/>
<path d="M17.584 54.7506C9.05955 54.7506 0.219726 44.9832 0.219727 39.1227C0.219727 33.2622 9.05956 23.4948 17.584 23.4948C26.1085 23.4948 34.9484 33.2623 34.9484 39.1227C34.9484 44.9832 26.1085 54.7506 17.584 54.7506Z" fill="#72A242"/>
</svg>
