<svg width="76" height="76" viewBox="0 0 76 76" fill="none" xmlns="http://www.w3.org/2000/svg">
<path d="M53.2733 17.0699C53.2733 25.401 43.7275 34.0403 38 34.0403C32.2725 34.0403 22.7267 25.401 22.7267 17.0699C22.7267 8.73884 32.2725 0.0995789 38 0.0995789C43.7275 0.0995789 53.2733 8.73884 53.2733 17.0699Z" fill="white"/>
<path d="M53.2733 58.9301C53.2733 67.2612 43.7275 75.9004 38 75.9004C32.2725 75.9004 22.7267 67.2612 22.7267 58.9301C22.7267 50.599 32.2725 41.9597 38 41.9597C43.7275 41.9597 53.2733 50.599 53.2733 58.9301Z" fill="white"/>
<path d="M58.9301 53.2733C50.599 53.2733 41.9597 43.7275 41.9597 38C41.9597 32.2725 50.599 22.7267 58.9301 22.7267C67.2612 22.7267 75.9004 32.2725 75.9004 38C75.9004 43.7275 67.2612 53.2733 58.9301 53.2733Z" fill="white"/>
<path d="M17.0699 53.2733C8.73883 53.2733 0.0995633 43.7275 0.0995636 38C0.0995638 32.2725 8.73883 22.7267 17.0699 22.7267C25.401 22.7267 34.0402 32.2725 34.0402 38C34.0402 43.7275 25.401 53.2733 17.0699 53.2733Z" fill="white"/>
</svg>
