<svg width="77" height="77" viewBox="0 0 77 77" fill="none" xmlns="http://www.w3.org/2000/svg">
<path d="M38.3765 35.6077C39.7729 35.6077 41.48 34.9047 43.1349 33.7415C41.9718 35.3964 41.2687 37.1035 41.2687 38.5C41.2687 39.8964 41.9718 41.6035 43.1349 43.2584C41.48 42.0952 39.7729 41.3922 38.3765 41.3922C36.9801 41.3922 35.2729 42.0952 33.618 43.2584C34.7812 41.6035 35.4842 39.8964 35.4842 38.5C35.4842 37.1035 34.7812 35.3964 33.618 33.7415C35.2729 34.9047 36.9801 35.6077 38.3765 35.6077Z" fill="#72A242"/>
<path fill-rule="evenodd" clip-rule="evenodd" d="M38.3773 76.7014C59.4754 76.7014 76.5788 59.598 76.5788 38.5C76.5788 17.4019 59.4754 0.298462 38.3773 0.298462C17.2792 0.298462 0.175781 17.4019 0.175781 38.5C0.175781 59.598 17.2792 76.7014 38.3773 76.7014ZM29.553 29.6765C28.1587 27.7065 27.2208 25.4444 27.2208 23.2125C27.2208 17.1275 34.1931 10.8173 38.3765 10.8173C42.5598 10.8173 49.5321 17.1275 49.5321 23.2125C49.5321 25.4444 48.5942 27.7065 47.1999 29.6765C49.1699 28.2822 51.432 27.3443 53.6639 27.3443C59.7489 27.3443 66.0591 34.3166 66.0591 38.5C66.0591 42.6833 59.7489 49.6556 53.6639 49.6556C51.432 49.6556 49.1699 48.7177 47.1999 47.3234C48.5942 49.2934 49.5321 51.5555 49.5321 53.7874C49.5321 59.8724 42.5598 66.1826 38.3765 66.1826C34.1931 66.1826 27.2208 59.8724 27.2208 53.7874C27.2208 51.5555 28.1587 49.2934 29.553 47.3234C27.583 48.7177 25.3209 49.6556 23.089 49.6556C17.004 49.6556 10.6939 42.6833 10.6939 38.4999C10.6939 34.3166 17.004 27.3443 23.0891 27.3443C25.3209 27.3443 27.583 28.2822 29.553 29.6765Z" fill="#72A242"/>
</svg>
