<svg width="72" height="72" viewBox="0 0 72 72" fill="none" xmlns="http://www.w3.org/2000/svg">
<path fill-rule="evenodd" clip-rule="evenodd" d="M61.3518 10.6482C61.7423 11.0388 61.7423 11.6719 61.3518 12.0625L54.3104 19.1038C53.9199 19.4943 53.2868 19.4943 52.8962 19.1038C52.5057 18.7133 52.5057 18.0801 52.8962 17.6896L59.9376 10.6482C60.3281 10.2577 60.9612 10.2577 61.3518 10.6482ZM40.0134 17.5265C40.3269 17.704 40.5207 18.0364 40.5207 18.3967V53.6033C40.5207 53.9636 40.3269 54.296 40.0134 54.4735C39.6999 54.651 39.3151 54.6462 39.0062 54.4608L21.6404 44.0413H15.876V57.124C15.876 57.6763 15.4283 58.124 14.876 58.124C14.3237 58.124 13.876 57.6763 13.876 57.124V44.0413H11.3554C6.91426 44.0413 3.31403 40.4412 3.31403 36C3.31403 31.5588 6.91426 27.9587 11.3554 27.9587H21.6404L39.0062 17.5392C39.3151 17.3538 39.6999 17.349 40.0134 17.5265ZM38.5207 20.1629L22.4318 29.8162C22.2764 29.9094 22.0986 29.9587 21.9174 29.9587H11.3554C8.01881 29.9587 5.31403 32.6634 5.31403 36C5.31403 39.3366 8.01881 42.0413 11.3554 42.0413H21.9174C22.0986 42.0413 22.2764 42.0906 22.4318 42.1838L38.5207 51.8371V20.1629ZM67.686 37H60.6447C60.0924 37 59.6447 36.5523 59.6447 36C59.6447 35.4477 60.0924 35 60.6447 35H67.686C68.2383 35 68.686 35.4477 68.686 36C68.686 36.5523 68.2383 37 67.686 37ZM52.8962 52.8962C53.2868 52.5057 53.9199 52.5057 54.3104 52.8962L61.3518 59.9375C61.7423 60.3281 61.7423 60.9612 61.3518 61.3518C60.9612 61.7423 60.3281 61.7423 59.9376 61.3518L52.8962 54.3104C52.5057 53.9199 52.5057 53.2867 52.8962 52.8962Z" fill="#202020"/>
</svg>
