<svg width="72" height="72" viewBox="0 0 72 72" fill="none" xmlns="http://www.w3.org/2000/svg">
<path fill-rule="evenodd" clip-rule="evenodd" d="M36 7.75C20.398 7.75 7.75 20.398 7.75 36C7.75 51.602 20.398 64.25 36 64.25C51.602 64.25 64.25 51.602 64.25 36C64.25 20.398 51.602 7.75 36 7.75ZM5.75 36C5.75 19.2934 19.2934 5.75 36 5.75C52.7066 5.75 66.25 19.2934 66.25 36C66.25 52.7066 52.7066 66.25 36 66.25C19.2934 66.25 5.75 52.7066 5.75 36ZM35.8275 17.75C36.3798 17.75 36.8275 18.1977 36.8275 18.75V21.545H37.8975C39.5148 21.545 40.9594 21.7229 42.2546 22.2709C43.5697 22.8273 44.6575 23.7336 45.6112 25.0688C45.9322 25.5182 45.8282 26.1427 45.3787 26.4637C44.9293 26.7847 44.3048 26.6807 43.9838 26.2312C43.2125 25.1514 42.4028 24.5052 41.4754 24.1128C40.5281 23.7121 39.3852 23.545 37.8975 23.545H36.8275V35.345H38.2425C40.3377 35.345 42.3471 36.1773 43.8286 37.6589C45.3102 39.1404 46.1425 41.1498 46.1425 43.245C46.1425 45.3402 45.3102 47.3496 43.8286 48.8311C42.3471 50.3127 40.3377 51.145 38.2425 51.145H36.8275V53.25C36.8275 53.8023 36.3798 54.25 35.8275 54.25C35.2752 54.25 34.8275 53.8023 34.8275 53.25V51.145H34.1292C32.6642 51.2213 31.202 50.947 29.8639 50.3449C28.5172 49.7389 27.3357 48.8185 26.4187 47.661C26.0757 47.2281 26.1486 46.5992 26.5815 46.2562C27.0144 45.9132 27.6433 45.9861 27.9863 46.419C28.7046 47.3256 29.6299 48.0464 30.6846 48.5211C31.7394 48.9957 32.8926 49.2102 34.0475 49.1465C34.0658 49.1455 34.0841 49.145 34.1025 49.145H34.8275V37.345H33.7575C31.6623 37.345 29.6529 36.5127 28.1714 35.0311C26.6898 33.5496 25.8575 31.5402 25.8575 29.445C25.8575 27.3498 26.6898 25.3404 28.1714 23.8589C29.6529 22.3773 31.6623 21.545 33.7575 21.545H34.8275V18.75C34.8275 18.1977 35.2752 17.75 35.8275 17.75ZM34.8275 23.545H33.7575C32.1927 23.545 30.692 24.1666 29.5856 25.2731C28.4791 26.3795 27.8575 27.8802 27.8575 29.445C27.8575 31.0098 28.4791 32.5105 29.5856 33.6169C30.692 34.7234 32.1927 35.345 33.7575 35.345H34.8275V23.545ZM36.8275 37.345V49.145H38.2425C39.8073 49.145 41.308 48.5234 42.4144 47.4169C43.5209 46.3105 44.1425 44.8098 44.1425 43.245C44.1425 41.6802 43.5209 40.1795 42.4144 39.0731C41.308 37.9666 39.8073 37.345 38.2425 37.345H36.8275Z" fill="#202020"/>
</svg>
