<svg width="72" height="72" viewBox="0 0 72 72" fill="none" xmlns="http://www.w3.org/2000/svg">
<path fill-rule="evenodd" clip-rule="evenodd" d="M10.1454 12.5602C8.48859 12.5602 7.14545 13.9033 7.14545 15.5602V61.6814C7.14545 63.3382 8.48859 64.6814 10.1454 64.6814H56.2666C57.9235 64.6814 59.2666 63.3382 59.2666 61.6814V21.0371H61.2666V61.6814C61.2666 64.4428 59.0281 66.6814 56.2666 66.6814H10.1454C7.38402 66.6814 5.14545 64.4428 5.14545 61.6814V15.5602C5.14545 12.7988 7.38402 10.5602 10.1454 10.5602H51.7914V12.5602H10.1454Z" fill="#202020"/>
<path fill-rule="evenodd" clip-rule="evenodd" d="M55.171 6.78307C57.1236 4.83044 60.2895 4.83045 62.2421 6.78307L65.3901 9.93107C67.3427 11.8837 67.3427 15.0495 65.3901 17.0021L40.5651 41.8272C40.09 42.3022 39.5241 42.6766 38.9012 42.9281L27.074 47.7024C25.4379 48.3629 23.8103 46.7353 24.4708 45.0991L29.245 33.272C29.4965 32.649 29.871 32.0831 30.346 31.6081L55.171 6.78307ZM60.8279 8.19729C59.6563 7.02571 57.7568 7.02571 56.5852 8.19728L31.7602 33.0223C31.4752 33.3073 31.2505 33.6469 31.0996 34.0206L26.3254 45.8478L38.1525 41.0735C38.5263 40.9226 38.8658 40.698 39.1509 40.4129L63.9759 15.5879C65.1474 14.4164 65.1474 12.5169 63.9759 11.3453L60.8279 8.19729Z" fill="#202020"/>
</svg>
