<svg width="72" height="72" viewBox="0 0 72 72" fill="none" xmlns="http://www.w3.org/2000/svg">
<path fill-rule="evenodd" clip-rule="evenodd" d="M34.56 7C33.4623 7 32.56 7.90228 32.56 9V10.6675C32.5601 10.6768 32.5601 10.6861 32.56 10.6953V12C32.56 13.0977 33.4623 14 34.56 14H37.56C38.6577 14 39.56 13.0977 39.56 12V10.6958C39.5599 10.6863 39.5599 10.6767 39.56 10.667V9C39.56 7.90228 38.6577 7 37.56 7H34.56ZM41.56 9.81291V9C41.56 6.79772 39.7623 5 37.56 5H34.56C32.3577 5 30.56 6.79772 30.56 9V9.8079C19.3847 11.5486 10.7443 20.9627 10.2705 32.5097H9.81C7.60759 32.5097 5.81 34.3078 5.81 36.51V39.51C5.81 41.7123 7.60772 43.51 9.81 43.51H12.81C15.0123 43.51 16.81 41.7123 16.81 39.51V36.51C16.81 34.3078 15.0124 32.5097 12.81 32.5097H12.2724C12.7401 22.0742 20.489 13.5492 30.56 11.8343V12C30.56 14.2023 32.3577 16 34.56 16H37.56C39.7623 16 41.56 14.2023 41.56 12V11.8412C51.5713 13.6089 59.2622 22.1057 59.7277 32.5097H59.19C56.9876 32.5097 55.19 34.3078 55.19 36.51V39.51C55.19 41.7123 56.9877 43.51 59.19 43.51H62.19C64.3923 43.51 66.19 41.7123 66.19 39.51V36.51C66.19 34.3078 64.3924 32.5097 62.19 32.5097H61.7295C61.2577 20.9935 52.6752 11.6079 41.56 9.81291ZM60.7253 34.5097C60.7335 34.5099 60.7417 34.51 60.75 34.51C60.7583 34.51 60.7665 34.5099 60.7747 34.5097H62.19C63.2876 34.5097 64.19 35.4122 64.19 36.51V39.51C64.19 40.6077 63.2877 41.51 62.19 41.51H59.19C58.0923 41.51 57.19 40.6077 57.19 39.51V36.51C57.19 35.4122 58.0924 34.5097 59.19 34.5097H60.7253ZM11.2253 34.5097C11.2335 34.5099 11.2417 34.51 11.25 34.51C11.2583 34.51 11.2665 34.5099 11.2747 34.5097H12.81C13.9076 34.5097 14.81 35.4122 14.81 36.51V39.51C14.81 40.6077 13.9077 41.51 12.81 41.51H9.81C8.71229 41.51 7.81 40.6077 7.81 39.51V36.51C7.81 35.4122 8.71242 34.5097 9.81 34.5097H11.2253ZM36.045 31.1681C37.6485 31.1681 39.1945 31.9402 40.3246 33.3706L40.3254 33.3716L49.4732 44.9786C49.4736 44.979 49.474 44.9795 49.4744 44.98C50.6661 46.4816 51.4253 47.9235 51.2833 49.4611C51.1416 50.994 50.1324 52.3095 48.6337 53.6383C48.6336 53.6384 48.6338 53.6382 48.6337 53.6383L43.88 57.8702L44.9873 62.7584C45.3242 64.3118 44.9128 65.7789 43.9276 66.8471C42.9524 67.9042 41.4846 68.5003 39.81 68.5003H32.25C29.0759 68.5003 26.3564 65.8675 27.0752 62.7473C27.0753 62.7467 27.0755 62.7461 27.0756 62.7454L28.185 57.8479L23.4696 53.6501C21.9022 52.3589 20.8828 51.04 20.7605 49.481C20.6394 47.9359 21.4286 46.4756 22.6156 44.98C22.616 44.9795 22.6164 44.979 22.6168 44.9786L31.7654 33.3706C32.8956 31.9402 34.4415 31.1681 36.045 31.1681ZM30.0788 58.5406L29.0253 63.1912L29.0244 63.1952C28.6646 64.7541 30.0247 66.5003 32.25 66.5003H39.81C41.0154 66.5003 41.9176 66.0764 42.4574 65.491C42.9864 64.9175 43.2351 64.1212 43.0336 63.1864C43.0333 63.185 43.033 63.1836 43.0327 63.1822L41.9812 58.5406H30.0788ZM42.3657 56.5406H29.7243L24.7849 52.1434C24.7751 52.1346 24.765 52.1261 24.7549 52.1177C23.301 50.923 22.8117 50.0555 22.7544 49.3246C22.6957 48.5752 23.0609 47.6359 24.1832 46.222L24.1854 46.2193L33.3346 34.6106C33.8405 33.9703 34.4282 33.5584 35.0301 33.345C35.03 33.3501 35.03 33.3552 35.03 33.3603V40.9503C35.03 41.5026 35.4777 41.9503 36.03 41.9503C36.5823 41.9503 37.03 41.5026 37.03 40.9503V33.3603C37.03 33.3517 37.0299 33.3431 37.0297 33.3345C37.6421 33.5447 38.241 33.9596 38.7554 34.6106L47.9046 46.2193L47.9068 46.222C49.0244 47.6299 49.3596 48.5426 49.2917 49.277C49.2234 50.0164 48.7178 50.8909 47.3066 52.142L42.3657 56.5406Z" fill="#202020"/>
</svg>
