<svg width="72" height="72" viewBox="0 0 72 72" fill="none" xmlns="http://www.w3.org/2000/svg">
<path fill-rule="evenodd" clip-rule="evenodd" d="M51.1244 8.3728H20.8756C19.771 8.3728 18.8756 9.26823 18.8756 10.3728V61.6272C18.8756 62.7318 19.771 63.6272 20.8756 63.6272H51.1244C52.229 63.6272 53.1244 62.7318 53.1244 61.6272V10.3728C53.1244 9.26823 52.229 8.3728 51.1244 8.3728ZM20.8756 6.3728C18.6664 6.3728 16.8756 8.16366 16.8756 10.3728V61.6272C16.8756 63.8363 18.6664 65.6272 20.8756 65.6272H51.1244C53.3336 65.6272 55.1244 63.8363 55.1244 61.6272V10.3728C55.1244 8.16366 53.3336 6.3728 51.1244 6.3728H20.8756Z" fill="#202020"/>
<path d="M38.608 56.0491C38.608 57.4895 37.4403 58.6571 36 58.6571C34.5596 58.6571 33.392 57.4895 33.392 56.0491C33.392 54.6088 34.5596 53.4412 36 53.4412C37.4403 53.4412 38.608 54.6088 38.608 56.0491Z" fill="#202020"/>
</svg>
