<svg width="72" height="72" viewBox="0 0 72 72" fill="none" xmlns="http://www.w3.org/2000/svg">
<path fill-rule="evenodd" clip-rule="evenodd" d="M15.071 10.8036C15.392 10.0813 16.1082 9.61584 16.8986 9.61584H30.0431C30.687 9.61584 31.2915 9.92583 31.6672 10.4487C32.043 10.9716 32.144 11.6434 31.9387 12.2536L24.5244 34.2906H29.8125C30.9171 34.2906 31.8125 35.1861 31.8125 36.2906V60.7348C31.8125 61.8394 30.9171 62.7348 29.8125 62.7348H4.90714C3.80257 62.7348 2.90714 61.8394 2.90714 60.7348V38.5967C2.90714 38.3168 2.96586 38.0401 3.07951 37.7844L15.071 10.8036ZM21.7413 36.2906L30.0431 11.6158H16.8986L4.90714 38.5967V60.7348H29.8125V36.2906H21.7413ZM51.9679 10.8036C52.2889 10.0813 53.0051 9.61584 53.7955 9.61584H66.94C67.5839 9.61584 68.1884 9.92583 68.5641 10.4487C68.9398 10.9716 69.0409 11.6434 68.8356 12.2536L61.4212 34.2906H66.7094C67.814 34.2906 68.7094 35.1861 68.7094 36.2906V60.7348C68.7094 61.8394 67.814 62.7348 66.7094 62.7348H41.804C40.6994 62.7348 39.804 61.8394 39.804 60.7348V38.5967C39.804 38.3168 39.8627 38.0401 39.9764 37.7844L51.9679 10.8036ZM58.6382 36.2906L66.94 11.6158H53.7955L41.804 38.5967V60.7348H66.7094V36.2906H58.6382Z" fill="#202020"/>
</svg>
