<svg width="72" height="72" viewBox="0 0 72 72" fill="none" xmlns="http://www.w3.org/2000/svg">
<path fill-rule="evenodd" clip-rule="evenodd" d="M57.1686 37.8515C57.1314 37.8817 57.0939 37.9116 57.0561 37.9414C55.6025 39.087 53.5612 40.0749 51.1278 40.886C48.3991 41.7955 45.1078 42.5056 41.4546 42.9547C41.0055 46.6079 40.2955 49.8991 39.3859 52.6279C38.5748 55.0613 37.5869 57.1026 36.4414 58.5562C36.4116 58.594 36.3816 58.6315 36.3515 58.6686C47.0112 56.9274 55.4274 48.5113 57.1686 37.8515ZM32.25 61.0001C47.2997 61.0001 59.5 48.7999 59.5 33.7501C59.5 18.7003 47.2998 6.50006 32.25 6.50006C17.2001 6.50006 5 18.7003 5 33.7501C5 48.7999 17.2001 61.0001 32.25 61.0001ZM7.33141 37.8515C9.07263 48.5113 17.4888 56.9274 28.1485 58.6686C28.1184 58.6315 28.0884 58.594 28.0586 58.5562C26.9131 57.1026 25.9252 55.0613 25.1141 52.6279C24.2045 49.8991 23.4945 46.6079 23.0454 42.9547C19.3921 42.5056 16.1009 41.7955 13.3722 40.886C10.9388 40.0749 8.89743 39.087 7.44386 37.9414C7.40607 37.9116 7.36859 37.8817 7.33141 37.8515ZM7.33142 29.6486C9.07265 18.9889 17.4888 10.5727 28.1486 8.83148C28.1184 8.86866 28.0884 8.90615 28.0586 8.94394C26.9131 10.3975 25.9252 12.4389 25.1141 14.8723C24.2045 17.601 23.4945 20.8922 23.0454 24.5454C19.3922 24.9945 16.1009 25.7046 13.3722 26.6141C10.9388 27.4253 8.89743 28.4132 7.44386 29.5587C7.40607 29.5885 7.36859 29.6185 7.33142 29.6486ZM22.8252 26.5893C19.4749 27.0258 16.4782 27.687 14.0046 28.5115C11.6877 29.2838 9.88488 30.1814 8.68182 31.1295C7.46749 32.0865 7 32.9796 7 33.7501C7 34.5205 7.46749 35.4136 8.68182 36.3706C9.88488 37.3187 11.6877 38.2163 14.0046 38.9886C16.4782 39.8131 19.4749 40.4743 22.8251 40.9109C22.6129 38.6279 22.5 36.2262 22.5 33.7501C22.5 31.2739 22.6129 28.8722 22.8252 26.5893ZM25.0892 24.3252C25.5258 20.975 26.1869 17.9783 27.0115 15.5047C27.7838 13.1878 28.6813 11.385 29.6295 10.1819C30.5865 8.96755 31.4796 8.50006 32.25 8.50006C33.0204 8.50006 33.9135 8.96755 34.8705 10.1819C35.8187 11.385 36.7162 13.1878 37.4885 15.5047C38.3131 17.9783 38.9742 20.975 39.4108 24.3252C37.1278 24.113 34.7261 24.0001 32.25 24.0001C29.7738 24.0001 27.3722 24.113 25.0892 24.3252ZM39.6433 26.3567C37.3059 26.1251 34.8244 26.0001 32.25 26.0001C29.6756 26.0001 27.1941 26.1251 24.8567 26.3567C24.625 28.6942 24.5 31.1757 24.5 33.7501C24.5 36.3244 24.625 38.8059 24.8567 41.1434C27.1941 41.375 29.6756 41.5001 32.25 41.5001C34.8244 41.5001 37.3059 41.375 39.6433 41.1434C39.875 38.8059 40 36.3244 40 33.7501C40 31.1757 39.875 28.6942 39.6433 26.3567ZM41.6749 26.5893C45.0251 27.0258 48.0217 27.687 50.4953 28.5115C52.8122 29.2838 54.6151 30.1814 55.8182 31.1295C57.0325 32.0865 57.5 32.9796 57.5 33.7501C57.5 34.5205 57.0325 35.4136 55.8182 36.3706C54.6151 37.3187 52.8122 38.2163 50.4953 38.9886C48.0217 39.8131 45.0251 40.4743 41.6749 40.9108C41.8871 38.6279 42 36.2262 42 33.7501C42 31.2739 41.8871 28.8723 41.6749 26.5893ZM41.4546 24.5454C41.0055 20.8922 40.2955 17.601 39.3859 14.8723C38.5748 12.4389 37.5869 10.3975 36.4414 8.94394C36.4116 8.90615 36.3816 8.86866 36.3514 8.83148C47.0112 10.5727 55.4273 18.9889 57.1686 29.6486C57.1314 29.6185 57.0939 29.5885 57.0561 29.5587C55.6025 28.4132 53.5612 27.4253 51.1278 26.6141C48.399 25.7046 45.1078 24.9945 41.4546 24.5454ZM39.4108 43.1749C38.9742 46.5251 38.3131 49.5218 37.4885 51.9954C36.7162 54.3123 35.8187 56.1152 34.8705 57.3182C33.9135 58.5326 33.0204 59.0001 32.25 59.0001C31.4796 59.0001 30.5865 58.5326 29.6295 57.3182C28.6813 56.1152 27.7838 54.3123 27.0115 51.9954C26.1869 49.5218 25.5258 46.5252 25.0892 43.1749C27.3722 43.3872 29.7738 43.5001 32.25 43.5001C34.7262 43.5001 37.1278 43.3872 39.4108 43.1749Z" fill="#202020"/>
<path fill-rule="evenodd" clip-rule="evenodd" d="M50.2106 51.8861C50.5497 51.4502 51.178 51.3716 51.6139 51.7107L65.1139 62.2107C65.5499 62.5498 65.6284 63.1781 65.2894 63.614C64.9503 64.0499 64.322 64.1285 63.8861 63.7894L50.3861 53.2894C49.9501 52.9503 49.8716 52.3221 50.2106 51.8861Z" fill="#202020"/>
</svg>
