<svg width="72" height="72" viewBox="0 0 72 72" fill="none" xmlns="http://www.w3.org/2000/svg">
<path fill-rule="evenodd" clip-rule="evenodd" d="M33 10C20.2974 10 10 20.2974 10 33C10 45.7026 20.2974 56 33 56C39.3506 56 45.0999 53.4263 49.262 49.265C49.2645 49.2624 49.2671 49.2598 49.2696 49.2573C49.2718 49.2551 49.274 49.2529 49.2762 49.2508C53.4309 45.0896 56 39.3449 56 33C56 20.2974 45.7026 10 33 10ZM51.3761 49.9508C55.488 45.4953 58 39.541 58 33C58 19.1929 46.8072 8 33 8C19.1929 8 8 19.1929 8 33C8 46.8072 19.1929 58 33 58C39.5467 58 45.5056 55.4837 49.9623 51.3654L62.2926 63.7068C62.6829 64.0975 63.3161 64.0978 63.7068 63.7074C64.0975 63.3171 64.0978 62.6839 63.7074 62.2932L51.3761 49.9508ZM32 18C32 17.4477 32.4477 17 33 17C41.8365 17 49 24.1635 49 33C49 33.5523 48.5523 34 48 34C47.4477 34 47 33.5523 47 33C47 25.268 40.7319 19 33 19C32.4477 19 32 18.5523 32 18Z" fill="#202020"/>
</svg>
