<svg width="72" height="72" viewBox="0 0 72 72" fill="none" xmlns="http://www.w3.org/2000/svg">
<path fill-rule="evenodd" clip-rule="evenodd" d="M36 8C36.2652 8 36.5196 8.10536 36.7071 8.2929C39.1611 10.7469 41.5815 12.1239 44.4491 12.9155C47.3557 13.7179 50.7558 13.9298 55.2082 13.9825L55.2491 13.9829C56.0657 13.9926 56.7374 14.0005 57.2821 14.0504C57.8457 14.102 58.3637 14.2046 58.8453 14.4551C59.5934 14.8441 60.1903 15.4481 60.5704 16.2006C60.5704 16.2006 60.5704 16.2007 60.5704 16.2006C60.8143 16.6835 60.9113 17.1976 60.9565 17.7567C61 18.2953 61 18.9569 61 19.759V36C61 43.735 56.7857 50.3308 51.9599 55.3582C47.123 60.3973 41.558 63.9815 38.5979 65.7085C38.5718 65.7237 38.5457 65.7389 38.5201 65.7539C37.9259 66.1008 37.4652 66.3697 36.8388 66.5041C36.3367 66.6117 35.6634 66.6117 35.1613 66.5041C34.5349 66.3697 34.0741 66.1008 33.4799 65.7539C33.4543 65.7389 33.4284 65.7238 33.4023 65.7086C30.4421 63.9816 24.8769 60.3973 20.04 55.3582C15.2143 50.3308 11 43.735 11 36L11 19.7591C11 18.957 11 18.2954 11.0435 17.7567C11.0887 17.1976 11.1857 16.6835 11.4296 16.2006C11.8096 15.448 12.4066 14.844 13.1546 14.4551C13.6362 14.2046 14.1543 14.102 14.7179 14.0504C15.2626 14.0005 15.9344 13.9926 16.7509 13.9829L16.7918 13.9825C21.2442 13.9298 24.6442 13.7179 27.5509 12.9155C30.4185 12.1239 32.8389 10.7469 35.2929 8.2929C35.4804 8.10536 35.7348 8 36 8ZM28.0831 14.8434C24.9055 15.7206 21.2778 15.9296 16.8154 15.9823C15.948 15.9926 15.3563 16.0003 14.9003 16.0421C14.4543 16.0829 14.2297 16.1502 14.0773 16.2295C13.7011 16.4251 13.4059 16.7238 13.2148 17.1022C13.1365 17.2573 13.0724 17.4805 13.037 17.9178C13.0008 18.3664 13 18.9468 13 19.8V36C13 42.9902 16.8167 49.112 21.4829 53.9733C26.138 58.8229 31.5259 62.2984 34.4099 63.9809C35.1057 64.3867 35.2969 64.4877 35.5806 64.5485C35.8063 64.5969 36.1937 64.5969 36.4194 64.5485C36.7031 64.4877 36.8943 64.3867 37.5901 63.981C40.474 62.2984 45.862 58.8229 50.5171 53.9733C55.1833 49.112 59 42.9902 59 36V19.8C59 18.9468 58.9992 18.3664 58.963 17.9178C58.9276 17.4805 58.8635 17.2573 58.7852 17.1023C58.5941 16.7239 58.2989 16.4251 57.9226 16.2295C57.7703 16.1503 57.5457 16.0829 57.0997 16.0421C56.6437 16.0003 56.052 15.9926 55.1846 15.9823C50.7222 15.9296 47.0945 15.7206 43.9168 14.8434C40.9819 14.0332 38.4601 12.6623 36 10.3875C33.5399 12.6623 31.0181 14.0332 28.0831 14.8434Z" fill="#202020"/>
</svg>
