<svg width="72" height="72" viewBox="0 0 72 72" fill="none" xmlns="http://www.w3.org/2000/svg">
<path fill-rule="evenodd" clip-rule="evenodd" d="M36 64.0139C51.4717 64.0139 64.0139 51.4717 64.0139 36C64.0139 20.5283 51.4717 7.98608 36 7.98608C20.5283 7.98608 7.98608 20.5283 7.98608 36C7.98608 51.4717 20.5283 64.0139 36 64.0139ZM36 66.0139C52.5763 66.0139 66.0139 52.5763 66.0139 36C66.0139 19.4238 52.5763 5.98608 36 5.98608C19.4238 5.98608 5.98608 19.4238 5.98608 36C5.98608 52.5763 19.4238 66.0139 36 66.0139Z" fill="#202020"/>
<path fill-rule="evenodd" clip-rule="evenodd" d="M26.6273 48.3669C28.8444 51.0843 32.2202 52.8197 36 52.8197C39.7798 52.8197 43.1556 51.0843 45.3727 48.3669H26.6273ZM46.698 46.3669H25.302C24.7109 45.2473 24.2905 44.0237 24.0755 42.7308H47.9246C47.7096 44.0237 47.2891 45.2473 46.698 46.3669ZM49.9489 42.725C48.9802 49.5617 43.1042 54.8197 36 54.8197C28.8959 54.8197 23.0198 49.5617 22.0511 42.725C21.8962 41.6313 22.8065 40.7308 23.9111 40.7308H48.0889C49.1935 40.7308 50.1038 41.6313 49.9489 42.725Z" fill="#202020"/>
<path fill-rule="evenodd" clip-rule="evenodd" d="M25.7994 27.8913C23.6489 27.8913 21.9057 29.6346 21.9057 31.785C21.9057 32.3373 21.4579 32.785 20.9057 32.785C20.3534 32.785 19.9057 32.3373 19.9057 31.785C19.9057 28.53 22.5444 25.8913 25.7994 25.8913C29.0544 25.8913 31.693 28.53 31.693 31.785C31.693 32.3373 31.2453 32.785 30.693 32.785C30.1408 32.785 29.693 32.3373 29.693 31.785C29.693 29.6346 27.9498 27.8913 25.7994 27.8913Z" fill="#202020"/>
<path fill-rule="evenodd" clip-rule="evenodd" d="M46.2007 27.8913C44.0503 27.8913 42.307 29.6346 42.307 31.785C42.307 32.3373 41.8593 32.785 41.307 32.785C40.7547 32.785 40.307 32.3373 40.307 31.785C40.307 28.53 42.9457 25.8913 46.2007 25.8913C49.4557 25.8913 52.0944 28.53 52.0944 31.785C52.0944 32.3373 51.6467 32.785 51.0944 32.785C50.5421 32.785 50.0944 32.3373 50.0944 31.785C50.0944 29.6346 48.3511 27.8913 46.2007 27.8913Z" fill="#202020"/>
</svg>
