<svg xmlns="http://www.w3.org/2000/svg" xmlns:xlink="http://www.w3.org/1999/xlink" width="821.25" height="927.84" viewBox="0 0 821.25 927.84"><defs><clipPath id="a"><path d="M69.52,459.64l-13.23-7.16C43.05,364.21,69.06,346.25,83.51,335.19c19.77-15.14,37.6-36.67,39.86-56.84l.83-7.32c3-26.51,19.48-50.07,44.36-63.32h0c28.6-15.23,47.59-42.32,51-72.79h0c1.94-17.12,13.34-32.06,30.09-39.4L273.59,85C301,73,318.37,47.33,318.15,19.18h0C318-3,328.66-24.12,347.2-38.14L393.35-73H794.9s56-11.84,67.6-4.66-2.33,24.93,3.09,33.91-6.77,17.36-5.94,26V13.94l-.34,525.41-25.27,25c-23.44,23.15-56.67,35.51-90.82,33.78l-.9-.05c-25.59-1.3-50.19,9.37-65.57,28.43h0c-14.08,17.45-36.19,27.72-59.66,27.69l-25.66,0c-24.59-3-49,6.46-64.13,24.73l-35.78,43.27Z" fill="#f8b8ad"/></clipPath><clipPath id="b"><path d="M752.85,259.1c11.29,15.3,14.39,30.94,15.84,50,.09,1.15.23,3.32-.39,4.29s-6.78,2.71-7.81,3.11c-18.16,7-33.33,4.15-52.55,1.31q7.37-31.56,15.46-62.94l26.59-.59Z" fill="#fff"/></clipPath><clipPath id="c"><ellipse cx="822" cy="301" rx="43.17" ry="25.97" transform="translate(502.35 1115.93) rotate(-88.69)" fill="#f8b8ad"/></clipPath><clipPath id="d"><path d="M513.49,353.46c1.4,2.61,0,6.05-2.4,7.75s-5.55,2-8.5,1.83-5.89-.74-8.84-.57c-7.92.45-9.43,4.74-15.31,10.06-4.21,3.82-7.67,7.79-11.89,11.6a2.33,2.33,0,0,1-4-.14c-8-7.95-13.21-15.47-20.25-24.32-3.16,2.77-8.62,5.86-12,8.3,7.79,10.34,13.37,17.46,21.16,27.8,2.42,3.22,7.39,8.55,11.38,9.09,3.71.51,7.19-1.71,10.25-3.87,5.26-3.72,6.42-5.44,11.8-9.28,2.17-1.55,4.2-4.08,6.53-5.38-.49,3.51-1.82,6.48-2.31,10-.23,1.68-1.33,3.7-1.15,5.38.26,2.56,3.57,8.8,4.61,11.15,4.31,9.75,4.58,15.9,4.7,26.56,12.43,1.68,28.61.55,41-1.19,3.13-16.54,3.62-30.66,8.07-46.89,18.79,20.54,36.35,40.85,53,63.16a17,17,0,0,0,10.08-5.77l1.6-2.5-47.34-69.58c-4.32-6.34-9.5-13.25-17.1-14.34-2.55-.37-5.14,0-7.72-.13s-5.31-.81-7-2.77c-2.58-3-1.62-7.59-.51-11.41" fill="#0a7354"/></clipPath><clipPath id="e"><path d="M149.43,489.13c-1.22-5.89-4.48-14.56-5.45-20.49-1-6.51-3.47-12.86-3.26-20.51.4-14.28.4-26,.13-40.24a64.82,64.82,0,0,0-1.41-14.53c-1.22-4.89-3.81-9.76-8.23-12.19-4.9-2.69-11.82-1.13-17.34-.25a12.86,12.86,0,0,1-5.87,3.95c-6.27,2.46-13.6,3.1-19.62.07-7.24,2.78-14.89,6.58-18.87,13.24-3.77,6.33-3.2,14.25-2.32,21.57a420.33,420.33,0,0,0,9.56,51.61c.84,3.32.74,5.75,1.5,9.09l4.16,18.19Z" fill="#ee373f"/></clipPath><clipPath id="f"><path d="M339.5,570.83l148.32-25.05c15.59-2.63,31.64-5.26,47.11-2,14.65,3.06,27.56,11.14,40.11,19.07,17.12,10.82,34.25,21.65,50.8,33.26,71.37,50,132,114.57,208.78,156.43,3,1.61,6.08,3.33,7.74,6.18,1.46,2.52,1.55,5.54,1.61,8.42L847.84,951a1758.14,1758.14,0,0,1-221.59-31.54c-9.67-2-19.43-4.14-28.31-8.35-18.74-8.9-31.57-26-44.49-41.86-54.61-67-124.12-123-169-196.55-21-34.39-36-71.8-51-109" fill="#a55c42"/></clipPath><clipPath id="g"><path d="M601.72,963.5,48.25,759.27c-6.54-2.43-11.9-9.78-11.9-16.32V480.89c0-6.54,5.36-9.9,11.9-7.47L601.72,677.65c6.54,2.44,11.89,9.78,11.89,16.32V956C613.61,962.58,608.26,965.94,601.72,963.5Z" fill="#1e1f29"/></clipPath><clipPath id="h"><path d="M691.57,650.41a157.84,157.84,0,0,0-62.06-14.85c-13.39-.42-26.77.83-40.11,2.09L457.81,650c-2.76.26-5.59.54-8,1.74-5.88,2.89-7.44,10-6.83,16.06,2.5,24.72,29.32,42,55.9,47.23s54.25,2,81.31,4.46c11.1,1,22.27,3.07,32.15,7.8,16.67,8,27.9,62.37,48.2,91.52,31.83,45.69,90.72,69.09,147.8,57.35,8.05-1.65,17.34-63.1,18.21-70.6.55-4.73-2.6-9.08-5.63-13A1168.94,1168.94,0,0,0,687.31,649.21" fill="#a55c42"/></clipPath><clipPath id="i"><path d="M-34.09,717.43c82.23-11.71,135.77,4.87,210.67,40.79s140.92,88,201.93,144.4c25,23.11,49.36,47.08,76.56,67.56a387.32,387.32,0,0,0,88.16,49.8c46.54,18.74,96.57,28.36,141.91,49.85-176.2,15-353.31,14-530.14,13-87.2-.48-97.67,5.36-184.35-4.21" fill="#282a44"/></clipPath></defs><title>social</title><rect x="-51.55" y="-61.81" width="880.52" height="1039.07" rx="0.01" ry="0.01" fill="#1e1f29"/><path d="M69.52,459.64l-13.23-7.16C43.05,364.21,69.06,346.25,83.51,335.19c19.77-15.14,37.6-36.67,39.86-56.84l.83-7.32c3-26.51,19.48-50.07,44.36-63.32h0c28.6-15.23,47.59-42.32,51-72.79h0c1.94-17.12,13.34-32.06,30.09-39.4L273.59,85C301,73,318.37,47.33,318.15,19.18h0C318-3,328.66-24.12,347.2-38.14L393.35-73H794.9s56-11.84,67.6-4.66-2.33,24.93,3.09,33.91-6.77,17.36-5.94,26V13.94l-.34,525.41-25.27,25c-23.44,23.15-56.67,35.51-90.82,33.78l-.9-.05c-25.59-1.3-50.19,9.37-65.57,28.43h0c-14.08,17.45-36.19,27.72-59.66,27.69l-25.66,0c-24.59-3-49,6.46-64.13,24.73l-35.78,43.27Z" fill="#f8b8ad"/><g clip-path="url(#a)"><path d="M139.45,99.41c-.66-17.72,12.31-56.55,36-61.79,28.92-6.4,57.41,18.39,66.81,37.83s29.5,24.07,40.66,18.9S314,85.73,330.74,99s14.82,29.86,29.61,38.64,30.09-.35,43.71,8.64,26.32,26.27,26.32,26.27l13-9.18s-20.89-27.23-34.51-36.22-28.92.15-43.7-8.64S352.37,93.2,335.59,79.9,298.91,70,287.74,75.22s-31.26.55-40.65-18.9-29.56-38.73-59.47-34.84C164,24.57,141.23,62,139.15,80.76a15.56,15.56,0,0,0-.09,1.81Z" fill="#e05034"/><path d="M149.56,163.61s-10-53.14-10.65-70.85,14.66-53.76,38.33-59c28.92-6.4,56,21.33,65.43,40.78s29.5,24.07,40.66,18.89,31.07-8.62,47.85,4.68S346,128,360.79,136.75s30.08-.35,43.7,8.64,27,28,27,28Z" fill="#f2a638"/><rect x="436" y="304.65" width="166.87" height="23.12" transform="translate(11.74 -18.53) rotate(2.07)" fill="#ee373f"/><polygon points="436.48 301.65 603.24 307.66 611.62 298.66 447.28 292.73 436.48 301.65" fill="#ff7d87"/><polygon points="611.64 298.8 603.24 307.66 602.41 330.77 610.82 321.39 611.64 298.8" fill="#ffe445"/><rect x="447.67" y="272.77" width="164.5" height="23.12" transform="translate(10.6 -18.93) rotate(2.07)" fill="#ee373f"/><polygon points="448.14 269.81 612.54 275.75 620.8 266.74 458.8 260.89 448.14 269.81" fill="#ff7d87"/><polygon points="620.82 266.88 612.54 275.75 611.7 298.86 620 289.48 620.82 266.88" fill="#ffe445"/><rect x="459.58" y="240.67" width="161.84" height="23.12" transform="translate(9.45 -19.33) rotate(2.07)" fill="#ee373f"/><polygon points="460.05 237.76 621.79 243.6 629.93 234.58 470.54 228.83 460.05 237.76" fill="#ff7d87"/><polygon points="629.94 234.73 621.79 243.6 620.96 266.71 629.13 257.32 629.94 234.73" fill="#ffe445"/><rect x="471.23" y="208.58" width="159.44" height="23.12" transform="translate(8.3 -19.73) rotate(2.07)" fill="#ee373f"/><polygon points="471.7 205.71 631.03 211.46 639.05 202.44 482.04 196.78 471.7 205.71" fill="#ff7d87"/><polygon points="639.07 202.59 631.03 211.46 630.2 234.57 638.25 225.18 639.07 202.59" fill="#ffe445"/><rect x="482.66" y="176.53" width="157.03" height="23.12" transform="translate(7.15 -20.12) rotate(2.07)" fill="#ee373f"/><polygon points="483.13 173.71 640.06 179.37 647.97 170.35 493.32 164.76 483.13 173.71" fill="#ff7d87"/><polygon points="647.98 170.49 640.06 179.37 639.23 202.48 647.17 193.08 647.98 170.49" fill="#ffe445"/><rect x="493.75" y="144.67" width="154.59" height="23.12" transform="translate(6.01 -20.49) rotate(2.07)" fill="#ee373f"/><polygon points="494.21 141.89 648.71 147.47 656.5 138.44 504.25 132.94 494.21 141.89" fill="#ff7d87"/><polygon points="656.51 138.58 648.71 147.47 647.87 170.58 655.69 161.18 656.51 138.58" fill="#ffe445"/><polygon points="648.95 147.47 692.23 97.16 554.55 92.19 494.45 141.9 648.95 147.47" fill="#ff7d87"/><polygon points="648.71 147.47 692.21 97.71 690.27 118.56 647.87 170.58 648.71 147.47" fill="#ffe445"/><polygon points="494.44 142.03 495.29 118.42 555.32 69.51 554.5 92.19 494.44 142.03" fill="#ee373f"/><rect x="474.61" y="118.4" width="20.06" height="23.55" transform="translate(5.01 -17.39) rotate(2.07)" fill="#ffe445"/><polygon points="475.04 118.04 495.09 118.77 555.32 69.51 537.76 68.88 475.04 118.04" fill="#ff7d87"/><polygon points="475.35 118.02 476.2 94.61 537.5 47.59 537.17 69.16 475.35 118.02" fill="#ee373f"/><rect x="455.06" y="94.58" width="20.52" height="23.35" transform="translate(4.13 -16.71) rotate(2.07)" fill="#ffe445"/><polygon points="455.49 94.22 475.99 94.95 537.53 47.44 519.75 46.8 455.49 94.22" fill="#ff7d87"/><polygon points="455.87 95 456.69 72.55 519.35 26.21 518.57 47.79 455.87 95" fill="#ee373f"/><rect x="435.08" y="72.49" width="21" height="22.41" transform="translate(3.31 -16.01) rotate(2.07)" fill="#ffe445"/><polygon points="435.49 72.12 456.47 72.88 519.35 26.21 500.96 25.55 435.49 72.12" fill="#ff7d87"/><polygon points="436.81 71.51 437.67 47.56 501.42 2.85 500.59 25.85 436.81 71.51" fill="#ee373f"/><polygon points="415.28 69.35 436.6 71.77 437.46 47.9 416.14 45.47 415.28 69.35" fill="#ffe445"/><polygon points="416.14 45.47 437.46 47.9 501.42 2.85 482.75 0.72 416.14 45.47" fill="#ff7d87"/><polygon points="416.48 45.48 417.33 21.73 482.43 -20.95 482.12 0.96 416.48 45.48" fill="#ee373f"/><polygon points="394.46 43.26 416.26 45.74 417.11 22.06 395.31 19.59 394.46 43.26" fill="#ffe445"/><polygon points="395.31 19.59 417.11 22.06 482.47 -21.1 463.56 -23.25 395.31 19.59" fill="#ff7d87"/><polygon points="395.72 20.42 396.55 -2.36 463.09 -44.23 462.3 -22.34 395.72 20.42" fill="#ee373f"/><polygon points="373.19 18.14 395.5 20.67 396.32 -2.04 374.01 -4.58 373.19 18.14" fill="#ffe445"/><path d="M434.69,138.93a8.92,8.92,0,0,0-9.44-2.51,9.27,9.27,0,0,0-6,7.91,10.29,10.29,0,0,1-.44,3.52c-1.33,3-5.66,2.3-8.6,3.65a6.54,6.54,0,0,0-3.06,8.24c1.16,2.62,4.09,5.35,2.49,7.7-.77,1.15-2.28,1.43-3.4,2.22a4.51,4.51,0,0,0-1.75,4.25c.55,3.5,4.81,4.91,8.26,4.64s7-1.45,10.27-.21c3.75,1.43,6.73,6,10.62,5,3.07-.77,4.84-4.82,8-4.89,2.13-.05,3.81,1.77,5.76,2.67a7.21,7.21,0,0,0,8.45-2.06,7.65,7.65,0,0,0,.24-8.89c-1.8-2.53-5.18-3.92-6-6.93-.73-2.67.89-5.32,1.87-7.9s.87-6.29-1.68-7.22c-1.7-.61-3.86.36-5.27-.8s-.79-3.7-1-5.68a5.61,5.61,0,0,0-4-4.83,5.44,5.44,0,0,0-5.78,2.25" fill="#070201"/><path d="M417.53,186.15c-.28.09-.57.17-.85.23-3.69.82-8.17.4-11.92.22,1.24,4.17,2.75,8.48,5.89,11.43,3.86,3.62,9.46,4.51,14.7,4.45,7.69-.08,15.84-2.13,21-7.95-3-.82-6.13-1.68-8.74-3.46-4.95-3.39-6.21-11.48.5-14a22.69,22.69,0,0,0,4-1.62,6.57,6.57,0,0,0,2.89-3.9,4.92,4.92,0,0,0-.84-4.36,3.13,3.13,0,0,0-3.43-1.07c1.38-6.42,1.26-15.2-4.87-18.73s-13.33-1.61-17.76,5.32c-2.85,3.9-3.89,18.67-.74,22.6a14.09,14.09,0,0,1,2.25,2.94c.92,2.11,1.09,5.58-.84,7.21A4,4,0,0,1,417.53,186.15Z" fill="#ffd8cc" stroke="#231f20" stroke-miterlimit="10"/><path d="M420.72,286.67a255.63,255.63,0,0,0,4.8,53.74c1.43,7.19,3.17,14.25,4.65,21.43a296.61,296.61,0,0,1,5,34.44A9.12,9.12,0,0,0,436,400a3.83,3.83,0,0,0,2.69,1.71,14.21,14.21,0,0,0,10.84-2.13c-.3-20-.62-40.16-2.92-59.92-.75-6.39-1.7-12.75-2-19.21-.52-10.89.78-21.78.93-32.7a2.59,2.59,0,0,0-.28-1.52,1.1,1.1,0,0,0-.93-.37l-21.06-1.06Z" fill="#ffd8cc" stroke="#231f20" stroke-miterlimit="10"/><path d="M426.88,392.81a25.27,25.27,0,0,1-7.4,17.24c-3.2,3.1-7.3,5.31-9.57,9.25-2.54,4.43-2.19,10-1.77,15.21l45.48-5.11q-1-19-2.74-38Z" fill="#fff" stroke="#231f20" stroke-miterlimit="10"/><path d="M390.71,280.61a258.93,258.93,0,0,0-1.3,54.11c.61,7.41,1.53,14.76,2.19,22.16a308.75,308.75,0,0,1,1.09,35.1,9.53,9.53,0,0,0,.4,3.81,4.33,4.33,0,0,0,2.47,2.26,13.89,13.89,0,0,0,10.95.22c1.95-19.86,3.9-39.8,3.85-59.83,0-6.46-.25-12.95.17-19.4.71-10.87,3.22-21.35,4.6-32.1a2.8,2.8,0,0,0-.11-1.56,1.2,1.2,0,0,0-.88-.57l-20.68-5.56Z" fill="#ffd8cc" stroke="#231f20" stroke-miterlimit="10"/><path d="M385.55,387.24a23.06,23.06,0,0,1-8.8,15.61c-3.36,2.45-7.48,3.83-10,7.29-2.87,3.89-3.12,9.49-3.24,14.7l43.69,3.81q.94-19,1.3-38.1Z" fill="#fff" stroke="#231f20" stroke-miterlimit="10"/><path d="M443.79,191.67c2.84,1.49,4.76-2,10.49,2.83,8.35,7,20,23.13,22.33,25.57a6.57,6.57,0,0,0,2.5,1.88,7.12,7.12,0,0,0,4.12-.28,112.57,112.57,0,0,0,16.71-6.33c4.89-2.24,7.39-8.51,10.57-12.57,1.09,0,1.43,1.39,1.25,2.41a10.42,10.42,0,0,1-1.72,4.06,32.86,32.86,0,0,1,10.16-6.33c1.41-.55,3.08-1,4.38-.23,1.75,1,1.58,3.56.61,5.28-2,3.49-6,5.39-9.59,7.44-6,3.43-10.7,8.19-16.29,12.09a110.78,110.78,0,0,1-17,9.53c-2.25,1-4.76,2-7.21,1.52a11.37,11.37,0,0,1-4.68-2.72c-7-5.87-20.15-15.16-25.71-22.31Z" fill="#ffd8cc" stroke="#231f20" stroke-miterlimit="10"/><path d="M402.73,189.9c-3.93,5.06-17.52,27.5-21.87,32.15a4.2,4.2,0,0,1-2,1.41,4.39,4.39,0,0,1-2-.18l-15.35-3.77a7.94,7.94,0,0,1-2.69-1c-1-.71-1.53-1.95-2.39-2.84-3.19-3.3-4.57-4.44-7.92-5.29a1.22,1.22,0,0,0-1.31,1.8,7.56,7.56,0,0,0,3,3c-2.84-.94-8.25-2.37-10.91-1.25-1.18.5-2.38,1.31-2.22,3,.14,1.53,2.84,3.58,4.18,4.18l11.69,4c9,4,17.62,9.22,26.58,13.26,1.68.75,3.53,1.53,5.22,1a7.21,7.21,0,0,0,2.89-2.19c6.9-7.34,32.67-32.95,39.57-40.29Z" fill="#ffd8cc" stroke="#231f20" stroke-miterlimit="10"/><path d="M447.67,190a14.67,14.67,0,0,1,15,4.42c2,2.31,3.25,5.21,5.2,7.57s5,4.2,7.9,3.27c-.11,3.09-3.49,4.81-6.4,5.64s-6.35,1.88-7.28,4.82c-.33,1-.27,2.17-.54,3.23-.78,3-4.25,4.66-7.2,4s-5.3-3-6.64-5.81a30.86,30.86,0,0,1-2.31-8.92l-.86-5.49c-.68-4.39-1.06-9.67,2.3-12.48" fill="#a1cd51"/><path d="M410.19,186.58c-3.35-1.65-6.54-2.09-9.8-.34s-6.15,4.21-9.54,5.71-7.62,1.89-10.56-.43c2.18,2.58,2.3,6.27,2.95,9.61s2.54,7.07,5.84,7.42a22.18,22.18,0,0,0,4-.41c1.33-.1,2.88.3,3.45,1.53a6.52,6.52,0,0,1,.35,2.07,6.56,6.56,0,0,0,3.62,5.06,2.15,2.15,0,0,0,1.65.22,2.71,2.71,0,0,0,1.31-1.52c4.69-9.77,7-18,6.77-28.92" fill="#a1cd51"/><path d="M450.05,220.16c-3.37-9.33-5.19-19.56-3.68-29.38-3.5-.55-6.95,0-10.26-1.38A11.73,11.73,0,0,1,425.2,194c-4.08-.6-7.78-4.11-9.25-8.06-1.7-.35-3.11.16-6.49.16-2.34,9.48-5.1,14.63-10.51,22.69a29.13,29.13,0,0,0-1.14,4.88,24.7,24.7,0,0,0,.25,7.72c.34,1.78.88,7.91.91,9.72.11,6-4.14,11.58-7,16.51-5.08,8.83-10.44,18-16.61,26.13,4.35,1.83,5.7,7.46,9.08,10.81a10.92,10.92,0,0,0,11.85,2.2c1.65-.74,3.11-1.89,4.81-2.5,10.39-3.73,14.89,8.95,22.84,12,5.07,1.94,10-1.73,14.17-4.43,3-2,6.64-3.79,10.14-2.88a35.14,35.14,0,0,1,4.49,2,13.11,13.11,0,0,0,14.87-3.69c4-5,.28-8.67-2.25-13.45-1.76-3.32-3.47-6.68-5.16-10.05-3.5-6.94-7-13.91-10.68-20.74a25.92,25.92,0,0,1-1.54-4.81,15.92,15.92,0,0,1,0-4.52c1-5.13,1.24-6.74,2.49-11.81Z" fill="#4abc33"/><polygon points="523.49 195.36 521.85 218.87 510.31 219.99 503.55 197.13 523.49 195.36" fill="#ee373f" stroke="#1e1f29" stroke-miterlimit="10"/><path d="M748.34,153.82c-1.47-4-6.86-4.81-10.91-3.62a19.27,19.27,0,0,0-13.12,14.23c-.88,4.21-.32,8.72-1.87,12.73s-6.73,7.18-10.13,4.54c5.12,9.62,17.11,13.12,28,14.14,10.42,1,22.4-.13,28.91-8.32-3.9-.63-6.32-4.65-7.27-8.48-1.37-5.51-.84-11.39-2.4-16.86s-6.47-10.79-12.07-9.79" fill="#edce91" stroke="#1e1f29" stroke-miterlimit="10"/><path d="M681.48,199.83l-1.62-7.17c-.34-1.48-.78-3.12-2-3.94a.73.73,0,0,0-.51-.15c-.43.07-.49.65-.44,1.09l.2,2q-3-3.4-6.25-6.66a4.45,4.45,0,0,0-1.91-1.34c-1.6-.4-3.14,1.23-3.3,2.89a8.38,8.38,0,0,0,1.44,4.71c2.34,4.2,5.09,8.26,8.82,11.25a1.07,1.07,0,0,0,1.5.12l3-1.67c.55-.3,1.2-.83,1-1.43" fill="#773d1f"/><path d="M797.5,332.44a166.61,166.61,0,0,1-25.44,19.16c-4.11,2.46-9.3,4.7-13.43,2.29-3-1.73-4.32-5.29-5.38-8.6a329.76,329.76,0,0,1-8.69-32.43c6.48-1.66,13.69-2.95,20.29-4.08l2.95,25.84q11.93-3.53,23.55-8c2.93,1.69,2.39.62,4.34,3.41Z" fill="#773d1f"/><path d="M712.5,342.55c.34-14.06-.2-21.88.26-32.45a177.1,177.1,0,0,0,20.88,4.23c-1.95,12.46-3.42,53.37-5.69,65.77-4.7-1.56-7,3.79-11.71,2.22l-3.45-32.65A54.56,54.56,0,0,1,712.5,342.55Z" fill="#773d1f"/><path d="M752.85,259.1c11.29,15.3,14.39,30.94,15.84,50,.09,1.15.23,3.32-.39,4.29s-6.78,2.71-7.81,3.11c-18.16,7-33.33,4.15-52.55,1.31q7.37-31.56,15.46-62.94l26.59-.59Z" fill="#fff"/><g clip-path="url(#b)"><path d="M718,271.62a104.63,104.63,0,0,0,14.42,2q1.43-9.09,2.47-18.25l-11.28-1a1.42,1.42,0,0,0-.89.11,1.41,1.41,0,0,0-.48.78l-5.66,16.31c-.07.2-.12.47.06.58s.35-.3.14-.26" fill="#1e1f29"/><path d="M748.25,255l2.39,17.12a47.74,47.74,0,0,0,9.84-2.46,1.77,1.77,0,0,0,.85-.52,1.82,1.82,0,0,0,0-1.6,95.34,95.34,0,0,0-4.29-11.75l-8.46-1.67" fill="#1e1f29"/><polygon points="732.43 273.62 731.22 293.43 751.94 293.43 750.64 272.08 732.43 273.62" fill="#1e1f29"/><polygon points="751.94 293.43 753.26 310.9 771.03 310.1 768.77 289.16 751.94 293.43" fill="#1e1f29"/><polygon points="731.22 292.27 729.7 311.54 710.06 308.78 714.59 289.93 731.22 292.27" fill="#1e1f29"/><polygon points="729.7 311.54 728.91 323.06 754.63 323.06 753.26 310.9 729.7 311.54" fill="#1e1f29"/></g><path d="M733.82,192.86c1,1.91,0,4.44-1.74,5.69a9.59,9.59,0,0,1-6.16,1.35,55.5,55.5,0,0,0-6.42-.42c-5.74.33-6.84,3.48-11.11,7.4-3.06,2.8-5.57,5.72-8.62,8.53a2.32,2.32,0,0,1-1.36.75,2.28,2.28,0,0,1-1.52-.86c-5.84-5.84-9.58-11.38-14.7-17.88-2.29,2-6.25,4.3-8.73,6.1,5.66,7.6,9.7,12.84,15.36,20.44,1.76,2.36,5.36,6.28,8.26,6.68,2.69.37,5.22-1.25,7.44-2.84,3.81-2.74,4.66-4,8.56-6.83,1.57-1.14,3-3,4.73-3.95-.35,2.58-1.32,4.77-1.67,7.34-.17,1.24-1,2.72-.84,4,.19,1.88,2.6,6.47,3.35,8.2,3.13,7.16,3.32,11.68,3.41,19.52,9,1.24,20.76.4,29.78-.88,2.27-12.15,2.63-22.53,5.86-34.47a601.77,601.77,0,0,1,38.46,46.44,12.45,12.45,0,0,0,7.32-4.24l1.16-1.85-34.36-51.15c-3.13-4.66-6.89-9.74-12.4-10.54a55,55,0,0,0-5.6-.09,6.92,6.92,0,0,1-5.07-2c-1.87-2.22-1.17-5.58-.37-8.38" fill="#1e1f29"/><path d="M737,163.57c1.91,3.07,3.83,5.28,8.09,10.27a3.17,3.17,0,0,0,1,.85,3.77,3.77,0,0,0,1.57.16c4.23,0,7.8,4.63,6.82,8.79s-6.24,6.63-10,4.7a9.39,9.39,0,0,1-13.14,3.31c-5.14-3.55-5.33-11.18-3.89-17.31,1.55-6.64,2.91-9.56,6.87-15.17Z" fill="#773d1f"/><path d="M267.63,405.23a38.08,38.08,0,0,0-2.35,15.93,182.37,182.37,0,0,0,41.61,2.35c.43-5.45-2.85-10.73-7.37-13.81s-10.09-4.22-15.55-4.51-10.92.21-16.39.11" fill="none" stroke="#231f20" stroke-miterlimit="10"/><path d="M222.63,402.7a38.08,38.08,0,0,0-3.19,15.78A182.23,182.23,0,0,0,260.87,423c.72-5.42-2.28-10.87-6.63-14.18s-9.85-4.76-15.29-5.34-10.92-.37-16.37-.75" fill="none" stroke="#231f20" stroke-miterlimit="10"/><path d="M572.51,24.51a103.91,103.91,0,0,0,1.4,49.69l5.76-12.08a31.79,31.79,0,0,0,2.12-5.21,31.92,31.92,0,0,0,.77-8.57V28.89a1.72,1.72,0,0,0-.27-1.14,1.81,1.81,0,0,0-1.09-.47,22.08,22.08,0,0,1-7.88-3.17" fill="#3d1d18"/><path d="M595.32,152.6a100.37,100.37,0,0,0-5.91,22.07,3.54,3.54,0,0,0,.16,2.21,3.47,3.47,0,0,0,2.43,1.37,52.91,52.91,0,0,0,15.72,1.2,1.62,1.62,0,0,0,.94-.27,1.68,1.68,0,0,0,.41-1.39,124.54,124.54,0,0,0-2.49-22.44,20.44,20.44,0,0,1-11.18-2.86" fill="#1e1f29"/><path d="M557.27,151.54c-5.23,4.42-7.17,8.46-11,14.12a111.48,111.48,0,0,0,20.31,17.85c1.66-6.31.67-11.21-.81-17.56q-.87-3.76-1.77-7.52a7.54,7.54,0,0,0-1.35-3.24c-1.44-1.67-4.32-2.07-4.94-4.18" fill="#1e1f29"/><path d="M625.47,16.53c-4.88,15.12-8,27-12.09,42.39-11.41.79-21.47.24-32.36-3.28-.32-14.34.68-29,.36-43.38,14.67-.93,23.43-1.42,37.69,2.14Z" fill="#264199"/><path d="M611.69,152.17c4.36-12.25,5.72-15.52,9-26.68,1.17-4,3.14-9.75,3.27-13.89.1-3.24-2.74-16.46-3.54-19.6-3.9-15.38-5-19.35-8.87-34.73a70.91,70.91,0,0,1-28.45-3.55,61.24,61.24,0,0,0-10.71,30.91c-.68,11.06.76,22.13,2.58,33.05-8.72,13.71-13.69,22.4-21.48,36.65,3.83,5.18,8.72,8.82,15.08,9.82,12.08-15.24,20.8-27.29,30.45-44.17-1.22,10.39-4.54,24.71-5.76,35.1,4.41,4.3,9.86,5.25,15.73,3.35Z" fill="#264199"/><path d="M602.36-27.56c-8.79,2.48-11.66,10.21-12.89,18.31s-1.33,15.88-2.4,24c-1.12,8.45-4.37,16.37-8.18,24.18a109,109,0,0,0,22.76,3.33,11.23,11.23,0,0,0,5.24-.79c2.21-1.11,3.21-3.42,4-5.56a115,115,0,0,0,6.57-48.38c-.28-3.49-.76-7.07-2.65-10.14a10.62,10.62,0,0,0-9.24-5.31Z" fill="#cecece" stroke="#231f20" stroke-miterlimit="10"/><path d="M621.94,81.7l-.59,8.84a1.79,1.79,0,0,0,.39,1.56,1.21,1.21,0,0,0,1.63-.35,3.51,3.51,0,0,0,.55-1.75c.12-.88.49-1.78.6-2.67.62,2.11.39,4.36.37,6.56s.25,4.55,1.63,6.26a2.08,2.08,0,0,0,1,.74c.9.28,1.78-.45,2.36-1.19a16.75,16.75,0,0,0,3.31-9.35c.22-3.35-.91-6.1-1.4-9.42A175.54,175.54,0,0,1,632.17,27a55.07,55.07,0,0,0-12.71,3.44l-1,1.45c.32,5.93-.22,11.87-.15,17.81.13,10.2,2.08,20.28,4,30.3" fill="#3d1d18"/><path d="M583.35,11.84a9.42,9.42,0,0,0-11.26,2.68,10.3,10.3,0,0,0-.3,11.73,5.49,5.49,0,0,0,1.05,1.2,7,7,0,0,0,1.78.93l6.72,2.72c1.55-3.13,3.13-6.33,3.63-9.79s-.22-7.28-2.71-9.73" fill="#264199"/><path d="M618.61,34.05l1.73-.16c3.11-.29,6.35-.61,9-2.24A9.66,9.66,0,0,0,634,24.14a8.47,8.47,0,0,0-4-7.73,7.52,7.52,0,0,0-8.55.8c-4.15,3.73-3.85,10.69-3.23,16.23" fill="#264199"/><ellipse cx="473.58" cy="491.38" rx="27.71" ry="24.94" transform="translate(-147.1 775.07) rotate(-70.62)" fill="#ee373f"/><path d="M463.57,515.3l-3.25,4.8a1.11,1.11,0,0,0-.27.92c.1.29.42.44.7.56l4.64,1.87a38.63,38.63,0,0,0,1.34-7l-3.51-1.26" fill="#ee373f"/><path d="M252.06,149.17c.79,5.09,4.1,10.38,8.87,8.44,2.44,5.71,12.51,8.7,17.68,5.27,7.28-4.84,7.55-24.24,3.35-33.47-1.76-3.89-7.63-4.79-11.9-4.75a16.24,16.24,0,0,0-11.48,4.83,22.59,22.59,0,0,0-4.1,6.39c-2,4.39-2.49,12.16-2.74,12.1" fill="#eaac8c" stroke="#1e1f29" stroke-miterlimit="10"/><path d="M276.46,163.69c-1.42,2.19-.45,5.31,1.55,7s4.75,2.16,7.36,2.23a70.29,70.29,0,0,1,7.82.13c6.94,1,12.3,6.38,17.09,11.49,3.44,3.66,6.87,11.61,10.31,15.27.44.47.94-3.33,1.57-3.26s1.37,3.89,1.93,3.42a55.51,55.51,0,0,1,5.54-4c5.49-3.68,10.59-12.11,15.3-16.74,3.74-3.68,2-11.87,6.75-14.38a1,1,0,0,1,.63-.14c.51.13.53.84.44,1.36l-.44,2.34q4-3.78,8.23-7.36a5.22,5.22,0,0,1,2.44-1.41c2-.32,3.69,1.77,3.73,3.78s-1.09,3.84-2.21,5.5c-3.25,4.79-7,9.39-11.8,12.6l-3.31,4c-7,8.49-11.05,14.55-18.36,22.76-2.36,2.66-5.12,5.51-8.67,5.7-3.3.18-6.21-2-8.75-4.14-4.36-3.65-7.3-5.42-11.76-9.19-1.79-1.52-6.37-5.16-8.33-6.47.18,3.12,1.14,5.84,1.32,9,.08,1.5.9,3.35.62,4.82-.41,2.23-3.77,7.49-4.86,9.48-4.5,8.28-4.55,17.26-5.42,26.64-11.07.59-26-1.12-36.83-3.55-1.57-14.79-.83-31.29-3.58-45.9-9.93,10.66-19.12,18.69-29.05,29.35,11.49,8.21,21.18,15.89,32.76,22a12.65,12.65,0,0,1-7.56,12.65c-.07-2.9-3.3-4.68-5.32-6.77a35.08,35.08,0,0,0-7-5.15c-8.86-5.48-17.37-11.88-26.23-17.36-.95-.58,1.2-1.76.71-2.77a5.06,5.06,0,0,1-.42-2.94c.45-2.35-1.05-3.62.37-5.54,7.68-10.44,16.13-20.29,23.42-31,4.69-6.87,10.78-17.52,20.17-18.1,2.27-.14,4.53.36,6.8.44s4.74-.33,6.35-1.93c2.49-2.48,2-6.57,1.27-10" fill="#eaac8c" stroke="#1e1f29" stroke-miterlimit="10"/><path d="M289.35,240.14c1.64,20.58,11.85,151.44,13.48,172-20.91-.48-66.74-1.76-87.21-5.4C220,384.4,235.4,257.28,247.38,237.83c12.74,2.53,24.6,4.28,37.53,2.92Z" fill="#fff"/><path d="M270.33,266.4l-4.59,3.27a3.14,3.14,0,0,0-.88.82,3,3,0,0,0-.35,1.39c-.78,8.25-2.24,130.63-3,138.88" fill="none" stroke="#231f20" stroke-miterlimit="10"/><path d="M350.4,159.94l7,24.74a20.7,20.7,0,0,0,14.81-3.12q-1.51-12.87-3.85-25.63C362.72,156.86,350.4,159.94,350.4,159.94Z" fill="#ee373f" stroke="#1e1f29" stroke-miterlimit="10"/><path d="M259.23,162.44a133.47,133.47,0,0,0,19.42,2.3c-.73,1.37.71,2.75,2,3.67a8.73,8.73,0,0,0,4.4,1.33c6.72.67,14.12.15,19.5,4.23a25.56,25.56,0,0,1,4.94,5.48q5.83,7.94,11.06,16.3a121,121,0,0,1,14.83-12.19c2.65-1.78,5.7-3.52,8.85-3a17,17,0,0,0,7.5,5.6,70.18,70.18,0,0,1-18.59,27.13,20.39,20.39,0,0,1-7.56,4.69,17.46,17.46,0,0,1-9.93-.56c-6.52-2-12.19-6.07-17.73-10.05a143.73,143.73,0,0,1-8.63,36.69c-2.75,1.3-6.2,1.59-9.24,1.65a113.92,113.92,0,0,1-34-4.57c-1.4-11.67-3.48-23-4.51-34.71-5.12,5.84-10.82,10.53-16.92,15.34,9.32,7.16,18,15.44,24.38,25.29-.37,6-3.58,10.6-8.65,13.84a221.38,221.38,0,0,1-33.57-24.6,25.74,25.74,0,0,1-5.31-6,9.67,9.67,0,0,1-1.17-7.73c2.3-7,6.36-12.38,10.73-18.29l12.46-16.85c4-5.39,8-10.8,12.86-15.42a19.58,19.58,0,0,1,5.09-3.73c3-1.38,6.38-1.44,9.63-2s6.7-1.78,8.36-4.63" fill="#8086ff"/><path d="M258.12,144.62c-1.48-1.65-4.47-.86-5.6,1s-.47,4.33.27,6.41c-2.32-4.92-5-10-5.38-15.43s1.83-11.39,6.62-14c1.62-.87,3.86-1.22,5.11.14a15.44,15.44,0,1,1,23.15,20.37,10.72,10.72,0,0,0,.77-7.49c-1.68,4.19-6.07,6.52-10.13,8.49a13.29,13.29,0,0,0,1.82-8.58c-2.28,6.39-7.15,10-13.38,12.67-.19-1.63-1.1,2.17-1.29.55" fill="#231f20"/><circle cx="622.99" cy="269.43" r="32.31" fill="#070201"/><path d="M641,303.12a6.61,6.61,0,0,0,.9.24c3.87.84,8.58.41,12.52.23-1.3,4.28-2.89,8.7-6.19,11.73-4,3.72-10,4.63-15.45,4.57-8.08-.08-16.66-2.19-22.1-8.17,3.19-.84,6.44-1.71,9.18-3.55,5.21-3.48,6.54-11.77-.52-14.37a23,23,0,0,1-4.19-1.66,6.69,6.69,0,0,1-3-4,5,5,0,0,1,.88-4.47,3.33,3.33,0,0,1,3.61-1.1c-1.45-6.59-1.33-15.6,5.12-19.23s14-1.65,18.66,5.47c3,4,4.09,19.15.78,23.19a14.65,14.65,0,0,0-2.35,3c-1,2.17-1.15,5.73.88,7.41A4,4,0,0,0,641,303.12Z" fill="#2b0d06"/><path d="M644.39,481.07a142.29,142.29,0,0,1,11.31-46.6,7.65,7.65,0,0,0,.8-2.78,7.41,7.41,0,0,0-.91-3.18c-3.4-7.38-6.69-15.22-10.09-22.59a96.17,96.17,0,0,1,23.79-10.26q5.79,14.14,10.65,28.65a22.17,22.17,0,0,1,1.53,7.15c0,3.24-1.45,6.29-2.85,9.21q-9,18.88-19.08,37.29a39.75,39.75,0,0,0-3.22,7.85Z" fill="#2b0d06"/><path d="M637.65,412.62a118.13,118.13,0,0,1-5,37.09c-1.5,5-3.33,9.84-4.89,14.79a140.85,140.85,0,0,0-5.28,23.77,4.57,4.57,0,0,1-.87,2.54,4.64,4.64,0,0,1-2.83,1.17,21.56,21.56,0,0,1-11.4-1.47c.33-13.83.66-27.71,3.08-41.36a132.3,132.3,0,0,0,2.11-13.25c.55-7.52-.82-15-1-22.57a1.34,1.34,0,0,1,.29-1.05,1.59,1.59,0,0,1,1-.26l22.13-.73Z" fill="#2b0d06"/><path d="M625,485.22A18.62,18.62,0,0,0,631,498.35c2.62,2.37,6,4,7.83,7,2.09,3.38,1.8,7.64,1.45,11.59l-37.24-3.89q.85-14.48,2.24-28.93Z" fill="#723a1e"/><path d="M662.51,478.26a18.68,18.68,0,0,0,2.88,14.18c2,2.9,4.89,5.31,6,8.66,1.24,3.76,0,7.85-1.26,11.61l-35.35-12.35q4.17-13.91,8.84-27.64Z" fill="#723a1e"/><path d="M613.44,307.84c-3,1.53-5-1.11-11.07,3.85-8.77,7.24-21,23.74-23.47,26.26a6.94,6.94,0,0,1-2.63,1.92,7.54,7.54,0,0,1-4.32-.29,118.5,118.5,0,0,1-17.57-6.5c-5.14-2.29-7.77-8.73-11.12-12.89-1.14-.05-1.5,1.43-1.31,2.47a10.76,10.76,0,0,0,1.81,4.17,34.68,34.68,0,0,0-10.69-6.5c-1.47-.57-3.23-1-4.59-.24-1.85,1.05-1.67,3.65-.64,5.42,2.08,3.58,6.31,5.53,10.08,7.64,6.28,3.52,11.24,8.4,17.12,12.41A119.18,119.18,0,0,0,573,355.34c2.37,1.08,5,2.1,7.58,1.56a12,12,0,0,0,4.92-2.79c7.4-6,21.18-15.56,27-22.9Z" fill="#2b0d06"/><path d="M643,307.71c4.07-5.36,23.07-25.29,26.62-31a3.35,3.35,0,0,0,.24-4.31L662.19,258a7.68,7.68,0,0,0-1.72-2.43c-1-.81-2.33-1-3.45-1.62-4.11-2.29-5.59-3.37-7.29-6.51a1.29,1.29,0,0,1,1.46-1.82,7.61,7.61,0,0,1,3.77,2.2c-1.66-2.6-4.47-7.65-4-10.64.2-1.33.7-2.77,2.47-3.08,1.56-.28,4.3,1.86,5.24,3l7,10.67c6.32,7.91,13.7,15.19,20,23.1,1.19,1.49,2.43,3.14,2.33,5a7.72,7.72,0,0,1-1.46,3.51c-5.59,9-24.67,42.09-30.27,51.08Z" fill="#2b0d06"/><path d="M606.82,338a59.42,59.42,0,0,0,3.34-29.85c3.68-.56,7.83-.27,11.32-1.73a12.19,12.19,0,0,0,21.15-3,36.21,36.21,0,0,0,5.94-3.71,81.06,81.06,0,0,0,12,26.64,29.41,29.41,0,0,1,1.21,5,24.54,24.54,0,0,1-.27,7.93c-.35,1.82-.92,8.12-1,10-.12,6.13,4.35,11.89,7.33,16.95,3.76,6.4,7.65,13.08,12,19.06.58.8,3.72,3.94,3.63,4.8-.67,6.15-7.33,10.92-13.36,9.58a17.24,17.24,0,0,1-6.43,8.87c-3.12,2-7.38,2.53-10.57.61a11,11,0,0,1-10.12,8.3,11.94,11.94,0,0,1-8.41-2.83,14.41,14.41,0,0,1-9.24,6.08c-3.64.57-8.25-.85-10-4.25-2.66,2.55-7.14,4.57-10.85,3.27a9.74,9.74,0,0,1-6-8.45c-5.7,4-12.52,1.8-15.57-4.44,10.48-17.31,15.36-28.91,24.51-45.33a25.77,25.77,0,0,0,1.63-4.94,16.78,16.78,0,0,0,0-4.64c-1-5.26-1.31-6.92-2.63-12.12Z" fill="#ffcd2c" stroke="#231f20" stroke-miterlimit="10"/><path d="M608.76,355.87a61.41,61.41,0,0,0,51.77-5.66" fill="none" stroke="#231f20" stroke-miterlimit="10"/><path d="M598.12,411.71a38.57,38.57,0,0,0,4.19-7.87,312.54,312.54,0,0,0,11.13-32.26" fill="none" stroke="#231f20" stroke-miterlimit="10"/><path d="M615.44,416.41a241.43,241.43,0,0,0,7.5-43.76" fill="none" stroke="#231f20" stroke-miterlimit="10"/><path d="M634.44,414.38q-.63-21.17-2.5-42.26" fill="none" stroke="#231f20" stroke-miterlimit="10"/><path d="M653,409.13q-4.29-19.86-9.53-39.48" fill="none" stroke="#231f20" stroke-miterlimit="10"/><path d="M670.06,399.88q-8.23-16.68-15.92-33.64" fill="none" stroke="#231f20" stroke-miterlimit="10"/><polygon points="529.62 312.58 531.34 336.71 543.47 337.86 550.58 314.39 529.62 312.58" fill="#ee373f" stroke="#1e1f29" stroke-miterlimit="10"/><path d="M723.48,453.48,894.57,313V98.94s-32.16,6.36-50.25,40.27,0,69.95-18.1,86.9-42.21,2.12-52.26,36,4,59.35-26.13,80.54S723.48,453.48,723.48,453.48Z" fill="#b493c4"/><path d="M723.48,453.48s-5.8-89.61,24.35-110.8,16.08-46.63,26.13-80.54,34.17-19.07,52.26-36,0-53,18.1-86.9,50.25-40.27,50.25-40.27l-31.47-.1s-27.54,9.82-37.25,35.9c-10.21,27.4,1.18,62.57-11.14,76.33-10,11.15-54.4,14.74-57.92,49.42-3.95,38.81,1.76,55.74-30.1,79.06C701.34,358.1,703.92,453.1,703.92,453.1Z" fill="#264199"/><ellipse cx="822" cy="301" rx="43.17" ry="25.97" transform="translate(502.35 1115.93) rotate(-88.69)" fill="#f8b8ad"/><g clip-path="url(#c)"><path d="M817.72,256.05c13.52,13.21,16.75,38.24,13.28,56.89-2.71,14.49-9.86,25.27-22.87,32,6.68,4.52,16,4,22.89-.18s11.65-11.35,14.22-19,3.19-15.89,3.46-24c.28-8.73.15-17.66-2.73-25.9a40.38,40.38,0,0,0-6.31-11.56,25.08,25.08,0,0,0-9.58-7.84,14.23,14.23,0,0,0-12.07.15" fill="#264199"/></g><path d="M601.93,452.32a36.39,36.39,0,0,0,4.59,10.06c1,1.58,2.54,3.23,4.37,3a6.15,6.15,0,0,0-.75-4.36,22.07,22.07,0,0,0,7.24,3.11,7.52,7.52,0,0,0,7.17-2.36,3,3,0,0,0,.73-2.17,3.37,3.37,0,0,0-1-1.74c-4.64-4.88-12.07-6.18-16.26-11.49a26.93,26.93,0,0,1-4.74,5.56" fill="#ffc9ab" stroke="#231f20" stroke-miterlimit="10"/><path d="M742.69,633s1,9.6-2,15.66-11.62,8.59-14.14,14.15S724,675.46,724,675.46l39.92-4.54-7.58-37.38Z" fill="#fff" stroke="#231f20" stroke-miterlimit="10"/><path d="M696.2,635.06s-3,9.59-5.55,14.14-15.66,9.6-18.19,15.15A19,19,0,0,0,670.94,675l42.95-3.54-4.55-36.87Z" fill="#fff" stroke="#231f20" stroke-miterlimit="10"/><path d="M761.19,504.2a161.15,161.15,0,0,1-.78,33.66c-4.3,32.68-9.65,38.26-1.74,98.31-4.45.89-11.74,1.54-16.24,2.09-13.26-40.21-13.61-68.61-12.54-101.69-5.21,9.43-8.19,17.48-12.58,27.32a88.69,88.69,0,0,0-6.48,21.94,125.19,125.19,0,0,0-1.08,19.06c.19,10.94,1.37,22.72,2.44,33.55a82.42,82.42,0,0,1-17.2-.56A173.26,173.26,0,0,1,711.67,502.7c15.88,1.19,28.65,2.22,45.56,1.5Z" fill="#0d2a35"/><path d="M680.5,389.34l.55-16.15a1.79,1.79,0,0,0-.19-1.07,1.25,1.25,0,0,0-1.73-.15,3.53,3.53,0,0,0-1.06,1.6l-1.33,3.08a67.68,67.68,0,0,0-2.68-8.12A14.54,14.54,0,0,0,671.5,364a5.75,5.75,0,0,0-4.6-2,5.61,5.61,0,0,0-4.35,3.38,11.69,11.69,0,0,0-.77,5.66c.48,7.15,3.87,13.76,7.41,20a6.23,6.23,0,0,0,2.44,2.77c1.3.62,2.83.28,4.22-.07a9,9,0,0,0,3.94-1.69,3.12,3.12,0,0,0,.83-3.88" fill="#ffd8d4" stroke="#231f20" stroke-miterlimit="10"/><path d="M805.23,393.05a50.9,50.9,0,0,1,1.68-12.47,1.72,1.72,0,0,1,.5-.95c.78-.58,1.76.49,1.93,1.44s.19,2.13,1,2.58a26.74,26.74,0,0,1,5.93-10.53,10.25,10.25,0,0,1,3.67-2.8,4.72,4.72,0,0,1,4.44.35c2.24,1.64,1.9,5,1.15,7.71A65.22,65.22,0,0,1,816,398.51a28.62,28.62,0,0,1-11.14-5.3" fill="#ffd8d4" stroke="#231f20" stroke-miterlimit="10"/><path d="M744,439.46c0-4,2-11.29,4.44-14.22,2.13-2.54,3.65-1.46,5.78-4a14.54,14.54,0,0,0,2.86-9c-.16-2.84-3.81-5.33-5.9-3.4.37-20.94-13.41-21.83-23.14-16-5,4.47-5.58,11.93-5.84,18.61-.19,4.87-.2,10.27,3,13.9,1.41,1.59,3.32,2.67,4.76,4.25s2.23,6.71,1.1,8.52" fill="#ffd8d4" stroke="#231f20" stroke-miterlimit="10"/><path d="M769.79,467.09c20.18-21.54,41.4-44.94,51.6-72.63a168.44,168.44,0,0,1-16.4-5.3c-8.66,13.8-17.6,27.88-30.41,37.95s-30.44,15.57-45.72,9.88a52.89,52.89,0,0,1-14.26-8.56,99.71,99.71,0,0,1-31.13-43c-5.11,2.16-11.47,3.28-16.81,4.78,4.87,25.7,22.12,47.63,41.89,64.77,5,4.31,1.18,22.44.27,27.9-1.5,9.09-4.55,16.5.09,25.5,10.88,2.48,17.05,3,28.18,4,6.16.56,21.7,1.57,24.61-1.11C772.3,501.42,767.64,480.56,769.79,467.09Z" fill="#5da3c1"/><path d="M752.77,409.28a18,18,0,0,1-2,6.14,10,10,0,0,1-.74-3.31l-3.13,4.32a51.4,51.4,0,0,0-.83-17.27,21.88,21.88,0,0,1-12.43,3.1,39.64,39.64,0,0,0,5-5.24,55.51,55.51,0,0,1-12.18,1.87,19.13,19.13,0,0,1-11.64-3.44,14.12,14.12,0,0,0,10.26-1.05,17.46,17.46,0,0,1-5-11.73,11.08,11.08,0,0,0,8.06,3.63,34.08,34.08,0,0,1-3.81-17.39,30.77,30.77,0,0,0,16,18.14,12.74,12.74,0,0,1-.88-6.4,22.28,22.28,0,0,0,4.56,6c2.76,2.57,7,2.7,9.91,5.15,3.39,2.92,4.84,7.82,4.89,12.15.05,4.87,0,8.13-2.3,12.6,1.29-5.26,0-7.19-3.72-8.74Z" fill="#ffce76" stroke="#231f20" stroke-miterlimit="10"/><path d="M731.34,434.76a12.36,12.36,0,0,0-3.72,6.29c-1.14,4.29,2.86,27.18,2.86,27.18s14-21.17,14.88-24.32-.86-7.43-.86-7.43" fill="none" stroke="#231f20" stroke-miterlimit="10" stroke-width="0.5"/><ellipse cx="730.63" cy="468.23" rx="1.29" ry="2.29" fill="#231f20"/><path d="M666,358.52l-6.35,27.3s.63,3.18,5.08,5.72a19.9,19.9,0,0,0,8.89,2.53l15.87-25.39Z" fill="#ee373f" stroke="#1e1f29" stroke-miterlimit="10"/><path d="M759.62,515.45v3.47" fill="none" stroke="#ea9518" stroke-miterlimit="10"/><path d="M759.09,522.66a5.06,5.06,0,0,1,.19,2.56" fill="none" stroke="#ea9518" stroke-miterlimit="10"/><path d="M758.73,530l-.31,2.83" fill="none" stroke="#ea9518" stroke-miterlimit="10"/><path d="M758,537.2l-.51,2.86" fill="none" stroke="#ea9518" stroke-miterlimit="10"/><path d="M756.83,543.83l-.34,2.52" fill="none" stroke="#ea9518" stroke-miterlimit="10"/><path d="M755.82,550.75l-.54,2.23" fill="none" stroke="#ea9518" stroke-miterlimit="10"/><path d="M754.58,557.38l-.6,3.16" fill="none" stroke="#ea9518" stroke-miterlimit="10"/><path d="M753.31,563.68v3.47" fill="none" stroke="#ea9518" stroke-miterlimit="10"/><path d="M752.72,570.94l-.4,2.83" fill="none" stroke="#ea9518" stroke-miterlimit="10"/><path d="M752.05,577.87v2.52" fill="none" stroke="#ea9518" stroke-miterlimit="10"/><path d="M752.05,584.49v2.84" fill="none" stroke="#ea9518" stroke-miterlimit="10"/><path d="M752.18,591.72a10.23,10.23,0,0,1,.16,3.49" fill="none" stroke="#ea9518" stroke-miterlimit="10"/><path d="M752.31,600a10,10,0,0,1,.37,3.45" fill="none" stroke="#ea9518" stroke-miterlimit="10"/><path d="M753,607.51l.39,2.83" fill="none" stroke="#ea9518" stroke-miterlimit="10"/><path d="M753.59,613.82l.38,4.09" fill="none" stroke="#ea9518" stroke-miterlimit="10"/><path d="M754,621.66a2.63,2.63,0,0,1,.29,2.25" fill="none" stroke="#ea9518" stroke-miterlimit="10"/><path d="M755,627.34a12.49,12.49,0,0,1,.16,3.81" fill="none" stroke="#ea9518" stroke-miterlimit="10"/><path d="M755.93,633.66l.44,2.55" fill="none" stroke="#ea9518" stroke-miterlimit="10"/><path d="M709.8,511.35l-1.27,2.84" fill="none" stroke="#ea9518" stroke-miterlimit="10"/><path d="M706.64,517.34a5.29,5.29,0,0,0-1.26,2.52" fill="none" stroke="#ea9518" stroke-miterlimit="10"/><path d="M703.42,523.93l-1.51,2.87" fill="none" stroke="#ea9518" stroke-miterlimit="10"/><path d="M700.31,530.58a7.33,7.33,0,0,1-1.21,2.86" fill="none" stroke="#ea9518" stroke-miterlimit="10"/><path d="M697.82,537.84l-.94,2.52" fill="none" stroke="#ea9518" stroke-miterlimit="10"/><path d="M695.68,544.16,695,547" fill="none" stroke="#ea9518" stroke-miterlimit="10"/><path d="M694.24,550.72l-.85,2.24" fill="none" stroke="#ea9518" stroke-miterlimit="10"/><path d="M692.85,556.45l-.73,3.45" fill="none" stroke="#ea9518" stroke-miterlimit="10"/><path d="M691.48,564l-.66,3.14" fill="none" stroke="#ea9518" stroke-miterlimit="10"/><path d="M690.3,571.26l-.29,3.15" fill="none" stroke="#ea9518" stroke-miterlimit="10"/><path d="M689.4,577.83a3.71,3.71,0,0,1-.13,2.87" fill="none" stroke="#ea9518" stroke-miterlimit="10"/><path d="M689.61,584.81v2.84" fill="none" stroke="#ea9518" stroke-miterlimit="10"/><path d="M689.61,591.43v3.15" fill="none" stroke="#ea9518" stroke-miterlimit="10"/><path d="M689.72,599.28a6.43,6.43,0,0,1,.18,2.86" fill="none" stroke="#ea9518" stroke-miterlimit="10"/><path d="M690.2,606.25l.38,4.41" fill="none" stroke="#ea9518" stroke-miterlimit="10"/><path d="M690.91,613.81l.53,3.8" fill="none" stroke="#ea9518" stroke-miterlimit="10"/><path d="M692.12,621.07a9.7,9.7,0,0,1,.67,3.15" fill="none" stroke="#ea9518" stroke-miterlimit="10"/><path d="M694,629l.6,3.15" fill="none" stroke="#ea9518" stroke-miterlimit="10"/><path d="M514.27,562.86c1.84-15.44,3.3-31,4-46.54A247.52,247.52,0,0,0,547,522.07q-4,25.41-8.72,50.71c-6.49-2.13-13.52-5.46-20-7.59Z" fill="#ffc9ab" stroke="#231f20" stroke-miterlimit="10"/><path d="M533.06,296c10.16.77,17.94,9.22,22.76,18.19s7,19.11,10.42,28.7a109.08,109.08,0,0,0,19.63,33.75c3.91,4.57,8.24,8.88,11.1,14.17s4.07,11.92,1.37,17.29c-4.55,9-17.29,10-26.93,7-15.75-4.95-28.49-17-37.44-30.89s-14.57-29.59-20.11-45.14c-2.13-6-4.29-12.13-4.16-18.48.27-12.85,5.71-23.8,18.52-24.82Z" fill="#ea5a1b"/><path d="M441.35,363l-2.24-9.76c-.46-2-1.06-4.24-2.8-5.35a1,1,0,0,0-.7-.21c-.59.09-.68.89-.62,1.48l.28,2.69q-4.2-4.64-8.6-9.06a6,6,0,0,0-2.63-1.82c-2.21-.55-4.33,1.66-4.55,3.92s.87,4.43,2,6.41c3.22,5.71,7,11.23,12.15,15.3a1.47,1.47,0,0,0,2.07.16l4.12-2.26c.76-.42,1.65-1.13,1.37-2" fill="#ffc9ab" stroke="#231f20" stroke-miterlimit="10"/><path d="M480.47,559.49c1.84-15.43,3.31-31,4-46.54a250.08,250.08,0,0,0,28.78,5.76q-4,25.39-8.72,50.7c-6.48-2.12-13.52-5.46-20-7.59Z" fill="#ffc9ab" stroke="#231f20" stroke-miterlimit="10"/><path d="M539.71,443.58c15.55,20.8,19.83,42.08,21.83,68,.12,1.58.32,4.52-.54,5.85s-9.34,3.69-10.76,4.23c-25,9.51-45.93,5.64-72.42,1.77q10.15-42.93,21.31-85.61l36.63-.8Z" fill="#287399"/><path d="M513.49,353.46c1.4,2.61,0,6.05-2.4,7.75s-5.55,2-8.5,1.83-5.89-.74-8.84-.57c-7.92.45-9.43,4.74-15.31,10.06-4.21,3.82-7.67,7.79-11.89,11.6a2.33,2.33,0,0,1-4-.14c-8-7.95-13.21-15.47-20.25-24.32-3.16,2.77-8.62,5.86-12,8.3,7.79,10.34,13.37,17.46,21.16,27.8,2.42,3.22,7.39,8.55,11.38,9.09,3.71.51,7.19-1.71,10.25-3.87,5.26-3.72,6.42-5.44,11.8-9.28,2.17-1.55,4.2-4.08,6.53-5.38-.49,3.51-1.82,6.48-2.31,10-.23,1.68-1.33,3.7-1.15,5.38.26,2.56,3.57,8.8,4.61,11.15,4.31,9.75,4.58,15.9,4.7,26.56,12.43,1.68,28.61.55,41-1.19,3.13-16.54,3.62-30.66,8.07-46.89,18.79,20.54,36.35,40.85,53,63.16a17,17,0,0,0,10.08-5.77l1.6-2.5-47.34-69.58c-4.32-6.34-9.5-13.25-17.1-14.34-2.55-.37-5.14,0-7.72-.13s-5.31-.81-7-2.77c-2.58-3-1.62-7.59-.51-11.41" fill="#0a7354"/><g clip-path="url(#d)"><line x1="542.86" y1="359.51" x2="533.71" y2="441.87" fill="none" stroke="#094732" stroke-miterlimit="10"/><line x1="535.35" y1="359.04" x2="525.95" y2="441.03" fill="none" stroke="#094732" stroke-miterlimit="10"/><line x1="525.95" y1="347.62" x2="519.23" y2="441.7" fill="none" stroke="#094732" stroke-miterlimit="10"/><line x1="517.88" y1="350.98" x2="511.83" y2="439.68" fill="none" stroke="#094732" stroke-miterlimit="10"/><line x1="507.8" y1="359.71" x2="506.46" y2="440.35" fill="none" stroke="#094732" stroke-miterlimit="10"/><line x1="499.07" y1="361.06" x2="499.07" y2="443.71" fill="none" stroke="#094732" stroke-miterlimit="10"/><line x1="493.69" y1="359.04" x2="491" y2="431.62" fill="none" stroke="#094732" stroke-miterlimit="10"/><line x1="604.57" y1="453.8" x2="541.4" y2="377.18" fill="none" stroke="#094732" stroke-miterlimit="10"/><line x1="609.73" y1="449.38" x2="542.11" y2="363.57" fill="none" stroke="#094732" stroke-miterlimit="10"/><path d="M493,377.18s-21.77,19.68-28.49,21-34.64-37.7-34.64-37.7" fill="none" stroke="#094732" stroke-miterlimit="10"/><path d="M493,369s-24.69,20.64-27.58,21.17-29.67-31.32-29.67-31.32" fill="none" stroke="#094732" stroke-miterlimit="10"/></g><path d="M517.88,313.63c2.64,4.18,5.28,7.17,11.15,14a4,4,0,0,0,1.35,1.16,5.44,5.44,0,0,0,2.17.22c5.82,0,10.75,6.3,9.39,12s-8.6,9-13.8,6.39c-3.28,6.21-12.32,8.46-18.12,4.5-7.08-4.83-7.34-15.2-5.36-23.55,2.14-9,4-13,9.47-20.63Z" fill="#ffc9ab" stroke="#231f20" stroke-miterlimit="10"/><path d="M420,341.7c7.41-2.2,10.54-8.59,14.76-15.07,4.08-6.24,8.48-14,14.81-16.27a.79.79,0,0,1,1.05.69c.1,1.24-1,2.58-2.06,3.45-1.37,1.09-2.66,3.28-1.27,4.36,1,.75,2.39.1,3.37-.65,2.65-2,4.78-4.63,7.32-6.78a27,27,0,0,1,13.17-6c1.26-.2,2.81-.18,3.51.89,1.21,1.9-1.72,4.19-3.62,4.45a3.46,3.46,0,0,0-2.77,1.87c-1.66,3.61,2.79,4.6,5.51,3.62,2.33-.85,5.07-2.21,7.06-.74a2,2,0,0,1,.61.69c.77,1.5-1.17,2.94-2.81,3.35-4.05,1-8.33.78-12.43,1.62a23.71,23.71,0,0,0-10.42,5,5.84,5.84,0,0,0-2.37,3.48,2.73,2.73,0,0,0,.25,1.46,3.23,3.23,0,0,1-2.57,4.63,9.1,9.1,0,0,1-1,0c-2.42-.07-5-.73-7.2.23a16.67,16.67,0,0,0-3.46,2.49,15.23,15.23,0,0,1-16.48,1.19" fill="#ffac48" stroke="#fff" stroke-miterlimit="10"/><path d="M439.83,341.48l-10.17,27.27a23.48,23.48,0,0,1-16.42-4.87q2.88-14.38,6.7-28.57C426.21,336.88,439.83,341.48,439.83,341.48Z" fill="#ee373f" stroke="#1e1f29" stroke-miterlimit="10"/><path d="M453,300a8.36,8.36,0,0,0,5.88-4.74,1.86,1.86,0,0,0,.2-1.1,1.42,1.42,0,0,0-2-.72,4.15,4.15,0,0,0-1.58,1.85l-3,5.43" fill="#ffac48" stroke="#fff" stroke-miterlimit="10"/><circle cx="510.1" cy="449.02" r="3.03" fill="#e8a91c"/><circle cx="508.39" cy="470.64" r="3.03" fill="#e8a91c"/><circle cx="506.11" cy="492.83" r="3.03" fill="#e8a91c"/><circle cx="504.41" cy="513.88" r="3.03" fill="#e8a91c"/><path d="M274.14,330.82c.9,5.76,4.65,11.75,10,9.56,2.76,6.46,14.17,9.84,20,5.95,8.23-5.47,8.54-27.44,3.79-37.89-2-4.39-8.64-5.42-13.47-5.37a18.39,18.39,0,0,0-13,5.47,25.9,25.9,0,0,0-4.64,7.23c-2.3,5-2.82,13.77-3.11,13.7" fill="#bc693b"/><path d="M301.76,347.25c-1.6,2.48-.51,6,1.76,7.91s5.37,2.45,8.33,2.52,5.92-.26,8.85.15c7.86,1.1,13.92,7.22,19.35,13l11.67,12.43a3.14,3.14,0,0,0,1.78,1.17,3.09,3.09,0,0,0,2.18-1,64.84,64.84,0,0,1,6.28-4.52,121.31,121.31,0,0,0,17.32-14.09c4.23-4.16,2.29-13.44,7.64-16.27a1,1,0,0,1,.71-.16c.58.14.6,1,.49,1.53l-.49,2.66q4.56-4.27,9.31-8.33a6,6,0,0,1,2.77-1.6c2.24-.37,4.18,2,4.21,4.28s-1.22,4.34-2.5,6.22c-3.67,5.43-7.89,10.63-13.35,14.26L384.32,372c-7.9,9.61-12.51,16.47-20.78,25.76-2.68,3-5.8,6.24-9.82,6.46-3.74.2-7-2.29-9.9-4.69-4.94-4.13-8.26-6.13-13.31-10.4-2-1.72-7.22-5.84-9.43-7.33.2,3.54,1.28,6.61,1.48,10.15.1,1.69,1,3.79.72,5.46-.47,2.52-4.28,8.48-5.51,10.73-5.09,9.37-5.15,19.54-6.14,30.15-12.53.67-29.45-1.27-41.69-4-1.78-16.74-.94-35.43-4.05-52-11.24,12.07-21.65,21.16-32.89,33.23,13,9.29,24,18,37.08,24.93a14.3,14.3,0,0,1-8.55,14.32c-.08-3.28-3.74-5.3-6-7.66a40,40,0,0,0-7.91-5.84c-10-6.2-19.66-13.45-29.69-19.65a6.67,6.67,0,0,1-2.76-2.52,4.86,4.86,0,0,1-.25-3.11c.51-2.65,2.15-4.93,3.75-7.1,8.7-11.83,18.27-23,26.52-35.06,5.31-7.78,12.2-19.84,22.83-20.49,2.57-.16,5.13.4,7.71.49s5.36-.36,7.18-2.18c2.82-2.81,2.23-7.44,1.44-11.33" fill="#bc693b"/><path d="M316.23,356.36l5,18.5c2,7.42,4,15.22,2.19,22.7-2.17,9-9.65,16.47-10.09,25.74a4.6,4.6,0,0,1-.75,3,4,4,0,0,1-2.31,1,70.2,70.2,0,0,1-42.55-6.11c-1-7.4-2-14.82-2.25-22.29-.56-15.71.14-31.62,5.92-46.24,2.91-.49,7.72-1.55,10.12-3.26,2.64,3.33,6.24,6.1,10.43,6.88s8.94-.77,11.17-4.4C307,354.31,316.23,356.36,316.23,356.36Z" fill="#bea4ff" stroke="#231f20" stroke-miterlimit="10"/><path d="M313.93,433.8c1.85,23.3,9.88,96.64,11.73,119.94-23.67-.54-61.07-27-84.68-25.24,4.9-25.32,14.3-75.3,27.86-97.31,14.43,2.86,27.85,4.84,42.48,3.3Z" fill="#264199"/><path d="M294.83,463.53l-5.2,3.7a3.56,3.56,0,0,0-1,.93,3.51,3.51,0,0,0-.4,1.57c-.88,9.34-3.89,61.74-4.77,71.08" fill="none" stroke="#231f20" stroke-miterlimit="10"/><path d="M309.14,311.44a15.18,15.18,0,0,0-26.36,13c-1.77-2.08-5.47-1.28-7,1s-1.52,5.24-1,7.92c-2.83-5.75-4.55-12.25-3.62-18.59s4.86-12.45,10.8-14.85c4.55-1.84,9.69-1.39,14.5-.43a17.5,17.5,0,0,1,7.21,2.72c2.83,2.12,4.3,5.55,5.65,8.82" fill="#15171e"/><path d="M282.64,290.34a4.84,4.84,0,0,1,3.86,2.14,10.34,10.34,0,1,1-17.67,10.36,7.67,7.67,0,0,1-.61-3,8.07,8.07,0,0,1,1.38-4.11,13.25,13.25,0,0,1,9.9-6Z" fill="#15171e"/><path d="M405.54,341.43c-7.78-.77-13.4-7.57-17.86-14-4-5.82-8.44-12.19-14.86-14.77a1,1,0,0,0-1.09,1.67c.67.69,1.32,1.41,1.09,2.21-.36,1.25-2.24.85-3.33.14-6.14-4-11.23-9.82-18.16-12.19-1.49-.51-3.76-.38-3.9,1.19-.08,1,.83,1.73,1.66,2.27,8.21,5.35,17.45,9.65,23.53,17.33.47.59.93,1.4.55,2s-1.65.53-2.49.18l-4.92-2.05c-1.28.18-.63,2.2.38,3,3.63,2.81,8.31,3.95,12,6.61,4,2.86,6.87,7.42,11.49,9.1,5.41,2,11.32-.62,16.48-3.17" fill="#ffac48" stroke="#fff" stroke-miterlimit="10"/><path d="M362,297.06a38.27,38.27,0,0,0-3.6-6.89c-.87-1.32-2.41-2.75-3.82-2a2.37,2.37,0,0,0-.67,3.19,6.88,6.88,0,0,0,2.71,2.35l5.48,3.28" fill="#ffac48" stroke="#fff" stroke-miterlimit="10"/><path d="M349.2,319.72a18.93,18.93,0,0,1-5.5,1,6.42,6.42,0,0,1-5-2.16c1.22-1.41,3.51-1,5.2-.22s3.49,1.85,5.3,1.39" fill="#ffac48" stroke="#fff" stroke-miterlimit="10"/><path d="M385.47,343l7.92,28a23.43,23.43,0,0,0,16.76-3.52q-1.71-14.58-4.35-29C399.41,339.52,385.47,343,385.47,343Z" fill="#ee373f" stroke="#1e1f29" stroke-miterlimit="10"/><polygon points="300.43 382.98 296.43 369.2 292.43 382.98 278.34 375.82 283.99 391.22 273.77 400.18 285.58 403.77 287.1 417.49 300.43 406.97 307.05 421.32 307.05 402.67 318.94 394.8 304.38 393.17 316.22 376.89 300.43 382.98" fill="#ffe445"/><ellipse cx="763.93" cy="99.42" rx="33.29" ry="32.92" fill="#fff"/><line x1="763.93" y1="1.73" x2="763.93" y2="72.95" fill="none" stroke="#fff" stroke-miterlimit="10" stroke-width="3"/><ellipse cx="371.94" cy="529.09" rx="24.94" ry="27.71" transform="translate(-224.58 279.22) rotate(-32.17)" fill="#e05034"/><path d="M384.45,551.8l1.74,5.53c.1.32.24.68.55.79a1.11,1.11,0,0,0,.87-.2l4.36-2.47a39.36,39.36,0,0,0-4.66-5.4l-3.16,2" fill="#e05034"/><ellipse cx="370.16" cy="444.56" rx="25.81" ry="23.23" transform="translate(-157.99 208.52) rotate(-26.14)" fill="#ffe445"/><path d="M347.89,453.93,342.6,455c-.3.06-.65.15-.78.43a1,1,0,0,0,.1.83l1.86,4.27a36.62,36.62,0,0,0,5.46-3.78l-1.51-3.12" fill="#ffe445"/><ellipse cx="177.45" cy="310.52" rx="27.71" ry="24.94" transform="translate(-131.79 130.85) rotate(-30.1)" fill="#ee373f"/><path d="M200.61,298.84l5.58-1.53c.33-.09.69-.22.81-.53a1.09,1.09,0,0,0-.17-.88l-2.31-4.44a39.09,39.09,0,0,0-5.56,4.46l1.84,3.23" fill="#ee373f"/><ellipse cx="613.88" cy="569.87" rx="24.94" ry="27.71" transform="translate(-52.17 1077.79) rotate(-80.2)" fill="#ffe445"/><path d="M639.13,575.76l5.28,2.4a1.1,1.1,0,0,0,1,.12,1.12,1.12,0,0,0,.43-.79l1.07-4.88a38.49,38.49,0,0,0-7.12-.15l-.66,3.66" fill="#ffe445"/></g><path d="M70.76,379.3A28.22,28.22,0,0,1,65,359.51a8.65,8.65,0,0,1,1.6-4.76,3.72,3.72,0,0,1,4.54-1.13c1.28.75,1.74,2.35,2.09,3.8l1.91,7.87a1.32,1.32,0,0,1,1.44-1.37,2.14,2.14,0,0,1,1.67,1.41,6.3,6.3,0,0,1,.33,2.25l.2,8.95a1.51,1.51,0,0,1-.24,1.05,1.47,1.47,0,0,1-.59.35c-2.21.9-4.52,1.81-6.9,1.63" fill="#6d3e1f"/><path d="M149.16,382l-43.71,16a6.11,6.11,0,0,1-2.17.49A5.75,5.75,0,0,1,100,396.8a137.24,137.24,0,0,1-22-23.91L64.44,380c4,9.81,10.35,19,15.57,28.26,2.09,3.7,4.24,7.48,7.46,10.25A10.07,10.07,0,0,0,92.21,421a13.64,13.64,0,0,0,3.93-.09,222.9,222.9,0,0,0,42.71-9.72c5.05-1.64,10.17-3.5,14.25-6.9s7-8.67,6.23-13.93-6.09-9.83-11.26-8.6" fill="#efae49"/><path d="M96.08,391.32c-.53-4.06-3.62-12.59-7.56-13.69-2.85-.79-4.21.6-7-.25A7.53,7.53,0,0,1,77.09,374a8.5,8.5,0,0,1-1.58-6.76c.33-2.5,3.89-3.79,6.2-2.79-4-7-7.35-15.65-3.72-22.83,2.86-5.65,9.46-8.64,15.79-8.82,15.52-.43,23,19.17,22.44,34.27-.11,3.21-2.87,5.75-4,8.75s-1.32,6.76.9,9.08" fill="#bc693b"/><path d="M145.37,375.38a18.47,18.47,0,0,0-2.23-11.49c-1.42-2.5-3.42-4.66-4.51-7.31-2.46-6,.37-12.9,4.18-18.17,4.27-5.91,11.28-14.12,18.82-15.44,12.35-2.17,21,10,19.36,21.37-1.08,7.53-6,14.16-12.13,18.59-1.92,1.37-2.6.72-4,2.6s-1.14,5.49.31,7.36Z" fill="#6d3e1f"/><path d="M137.26,392.55c-.18,13.4-.35,26.82.47,40.2,1.18,19.11-1.62,55.26,3.57,73.68,13,1.54,33.32,1.84,46.69-.66,1.55-23.79-1.14-70.66-.07-94.48.24-5.26.46-10.58-.46-15.77-1.51-8.56-6.1-13.67-13-18.42a33.57,33.57,0,0,1-8.41-8.36,48.69,48.69,0,0,1-26.44,4.86Z" fill="#1e1f29"/><path d="M108.56,340.32c-2.71-5.44-3.64-8.48-6.32-13a7.69,7.69,0,0,0-2.45-2.87,7,7,0,0,0-4.18-.55,40.77,40.77,0,0,0-29.9,18,7,7,0,0,0-1.23,2.78,7.4,7.4,0,0,0,.74,3.64,132.36,132.36,0,0,0,10.17,19.91c1-4.23,4.61-3.86,8-3.14-2-3.69-2.41-7.64-3.45-11.72-.44-1.73-.74-3.66.16-5.19a12.8,12.8,0,0,1,2-2.79c6.39-5.14,12.25-7.29,20-8.85a4.15,4.15,0,0,1,3.73,1.12Z" fill="#2b0d06"/><path d="M149.43,489.13c-1.22-5.89-4.48-14.56-5.45-20.49-1-6.51-3.47-12.86-3.26-20.51.4-14.28.4-26,.13-40.24a64.82,64.82,0,0,0-1.41-14.53c-1.22-4.89-3.81-9.76-8.23-12.19-4.9-2.69-11.82-1.13-17.34-.25a12.86,12.86,0,0,1-5.87,3.95c-6.27,2.46-13.6,3.1-19.62.07-7.24,2.78-14.89,6.58-18.87,13.24-3.77,6.33-3.2,14.25-2.32,21.57a420.33,420.33,0,0,0,9.56,51.61c.84,3.32.74,5.75,1.5,9.09l4.16,18.19Z" fill="#ee373f"/><g clip-path="url(#e)"><path d="M142.84,426.69s-17,3.77-30,5.48-44.27,4.11-44.27,4.11l4.17,24.66s28-1.72,39.16-2.57,32.33-6.49,32.33-6.49Z" fill="#264199"/><path d="M150.57,475.85s-17,3.77-30.06,5.48-44.26,4.11-44.26,4.11l4.17,24.66s28-1.72,39.15-2.57S151.91,501,151.91,501Z" fill="#264199"/><path d="M99.39,496.29c-3.8-19-6.82-45.64-9.26-64.84" fill="none" stroke="#231f20" stroke-miterlimit="10"/><path d="M130.49,426.34a527.19,527.19,0,0,0,12.85,69.07" fill="none" stroke="#231f20" stroke-miterlimit="10"/><path d="M139.82,376.49s-18.61,3.77-33,5.48-48.58,4.11-48.58,4.11l4.57,24.66s30.76-1.71,43-2.57,35.49-6.49,35.49-6.49Z" fill="#264199"/></g><path d="M105.67,472.32a27.22,27.22,0,0,1-16.46,8.41,8.55,8.55,0,0,1-5.06-.58c-1.52-.82-2.58-2.71-2-4.31.52-1.3,1.89-2,3.15-2.58l6.1-2.84a4.2,4.2,0,0,1-3.5-.13c-.45-.23-.9-.7-.72-1.17a1.19,1.19,0,0,1,.77-.56l10-3.71a1.43,1.43,0,0,1,.78-.14,1.52,1.52,0,0,1,.83.64l5.14,6.42" fill="#6d3e1f"/><path d="M116.58,346.16a5.77,5.77,0,0,0-3.06.25c-3.64.94-7.23,2.23-10.78,3.44Q93.26,353.09,84,357A2.32,2.32,0,0,0,83,360.34,16.11,16.11,0,0,0,89,366.7a8,8,0,0,0,4,1c5.38-.24,7.59-5.66,8.63-10.4a16.2,16.2,0,0,0,7.25,4.35c5,1.41,8.41-1.55,9-7a15.1,15.1,0,0,0,0-2.93C117.71,348.43,117.88,346.62,116.58,346.16Z" fill="#1e1f29"/><path d="M105.4,369.05a1.1,1.1,0,0,1,.89.74,1.23,1.23,0,0,1-.22,1.21,5.63,5.63,0,0,1-2.35,1,4.69,4.69,0,0,0-3,3.37,2.41,2.41,0,0,1-.41,1.13,1.25,1.25,0,0,1-1.91-.43,2.75,2.75,0,0,1,.06-2.23,7.8,7.8,0,0,1,5.25-4.72,4,4,0,0,1,1.47-.09A1.38,1.38,0,0,1,105.4,369.05Z" fill="#fff"/><path d="M182.32,396.45c3.63,15-10.57,32.08-20.93,42.21-8,7.81-17.15,14.53-26.64,20.79-9.2,6.06-18.58,12.16-29.48,15.48a2.51,2.51,0,0,1-1.4.14,2.21,2.21,0,0,1-1-.82q-3.66-4.41-7-9c-.8-1.08,9.85-6.93,22.09-19.46,8.09-8.28,16.26-16.5,23.4-25.62,6.74-8.61,12.75-17.94,19.83-26.26,5.44-6.4,14.65-11.39,19.53-1.88A19.9,19.9,0,0,1,182.32,396.45Z" fill="#efae49"/><path d="M164.38,323.87c-3.17,8.67-5.17,17.93-2.74,26.83.13-3.47,2.67-6.5,4.32-9.55-2.26,6.54-4.07,14.6-3.34,21.49s.4,13.18-5,17.48c5.31-3.77,11.24-6,12-12.43.27,6.07-.75,9.08-4.28,14,5.35-3.72,8.65-6.48,8.55-13-.8,7.55,3.3,11.69,10,15.34a19.76,19.76,0,0,1-5.34-16.53,13.74,13.74,0,0,0,5,8.95c-2.1-2.75-2.2-6.6-1.28-9.94s4.46-6.57,5.94-9.7c3.64-7.73,5.46-16,2.81-24.11s-12.19-15.49-20.74-15.43c-4.47,0-8.77,1.84-12.55,4.22-4.47,2.82-8.5,6.61-10.63,11.44a22.86,22.86,0,0,1,17-9.07" fill="#070201"/><line x1="162.62" y1="344.36" x2="156.44" y2="341.39" fill="none" stroke="#030303" stroke-miterlimit="10"/><line x1="149.43" y1="338.58" x2="144.4" y2="336.28" fill="none" stroke="#030303" stroke-miterlimit="10"/><ellipse cx="157.61" cy="344.01" rx="1.1" ry="2.03" fill="#030303"/><ellipse cx="145.49" cy="338.58" rx="1.1" ry="2.03" fill="#030303"/><line x1="162.54" y1="337.77" x2="156.36" y2="334.8" fill="none" stroke="#030303" stroke-miterlimit="10"/><line x1="151.91" y1="333.64" x2="146.95" y2="331.26" fill="none" stroke="#030303" stroke-miterlimit="10"/><path d="M103.87,475.07a95.24,95.24,0,0,0,25-11.78,302.26,302.26,0,0,0,27.51-20c10.73-8.68,19.57-20.17,22.37-26.87" fill="none" stroke="#070201" stroke-miterlimit="10"/><path d="M188.45,319.14s-7.55,10.61-5.83,15.08,6.94,4.92,9.35,1S188.45,319.14,188.45,319.14Z" fill="#8bcbf2" stroke="#231f20" stroke-miterlimit="10"/><path d="M339.5,570.83l148.32-25.05c15.59-2.63,31.64-5.26,47.11-2,14.65,3.06,27.56,11.14,40.11,19.07,17.12,10.82,34.25,21.65,50.8,33.26,71.37,50,132,114.57,208.78,156.43,3,1.61,6.08,3.33,7.74,6.18,1.46,2.52,1.55,5.54,1.61,8.42L847.84,951a1758.14,1758.14,0,0,1-221.59-31.54c-9.67-2-19.43-4.14-28.31-8.35-18.74-8.9-31.57-26-44.49-41.86-54.61-67-124.12-123-169-196.55-21-34.39-36-71.8-51-109" fill="#a55c42"/><g clip-path="url(#f)"><path d="M414.93,588.06c18.68.71,37.42-.89,56.07.41,61,4.25,115.19,38.72,166.41,72.14-49.15-8.18-101-5.6-146.77-25.18-29-12.4-53.68-32.93-77.88-53.18" fill="#8bcbef" opacity="0.3"/></g><path d="M613.67,981.52,36.3,766.67c-7.17-2.67-13-10.72-13-17.88V461.54c0-7.17,5.86-10.86,13-8.19L613.67,668.2c7.17,2.66,13,10.71,13,17.88V973.33C626.7,980.5,620.84,984.18,613.67,981.52Z" fill="#54576d"/><path d="M631.58,973.84,53.86,760c-7.17-2.65-13-10.69-13.06-17.86l-.48-287.25c0-7.17,5.85-10.86,13-8.21L631.06,660.52c7.17,2.66,13.05,10.7,13.07,17.87l.47,287.24C644.61,972.8,638.75,976.5,631.58,973.84Z" fill="#54576d"/><path d="M601.72,963.5,48.25,759.27c-6.54-2.43-11.9-9.78-11.9-16.32V480.89c0-6.54,5.36-9.9,11.9-7.47L601.72,677.65c6.54,2.44,11.89,9.78,11.89,16.32V956C613.61,962.58,608.26,965.94,601.72,963.5Z" fill="#1e1f29"/><g clip-path="url(#g)"><polygon points="315.18 665.65 115.74 591.45 115.74 498.09 315.18 572.29 315.18 665.65" fill="#8894bc"/><polygon points="213.89 724.62 115.74 688.23 115.74 594.87 213.89 631.26 213.89 724.62" fill="#8894bc"/><polyline points="217.03 632.37 315.18 668.75 315.18 762.11 217.03 725.72" fill="#8894bc"/><polygon points="213.89 820.97 115.74 784.58 115.74 691.22 213.89 727.61 213.89 820.97" fill="#8894bc"/><polyline points="217.03 728.72 315.18 765.11 315.18 858.46 217.03 822.07" fill="#8894bc"/><polygon points="416.7 799.48 318.54 763.09 318.54 669.73 416.7 706.12 416.7 799.48" fill="#8894bc"/><polyline points="419.83 707.23 517.99 743.61 517.99 836.97 419.83 800.58" fill="#8894bc"/><polygon points="416.7 895.83 318.54 859.44 318.54 766.08 416.7 802.47 416.7 895.83" fill="#8894bc"/><polyline points="419.83 803.58 517.99 839.97 517.99 933.32 419.83 896.93" fill="#8894bc"/><polygon points="619.4 874.44 521.25 838.05 521.25 744.69 619.4 781.08 619.4 874.44" fill="#8894bc"/><polygon points="619.4 970.79 521.25 934.4 521.25 841.04 619.4 877.43 619.4 970.79" fill="#8894bc"/><polygon points="416.64 703.01 318.48 666.62 318.48 573.26 416.64 609.65 416.64 703.01" fill="#8894bc"/><polyline points="419.77 610.76 517.93 647.14 517.93 740.5 419.77 704.11" fill="#8894bc"/><polygon points="619.34 777.97 521.18 741.58 521.18 648.22 619.34 684.61 619.34 777.97" fill="#8894bc"/><rect x="539.14" y="645.82" width="91.45" height="322.05" fill="#1e1f29"/><ellipse cx="596.55" cy="817.2" rx="7.83" ry="10.82" transform="translate(-387.34 581.27) rotate(-40.39)" fill="none" stroke="#fff" stroke-miterlimit="10"/><line x1="588.09" y1="903.83" x2="605.58" y2="909.51" fill="none" stroke="#fff" stroke-miterlimit="10"/><line x1="588.23" y1="909.1" x2="605.44" y2="914.7" fill="none" stroke="#fff" stroke-miterlimit="10"/><line x1="588.23" y1="914.41" x2="605.44" y2="920.01" fill="none" stroke="#fff" stroke-miterlimit="10"/><path d="M605.58,722l-9.15,6.19-9.14-12.13Z" fill="none" stroke="#fff" stroke-miterlimit="10"/><polygon points="566.79 906.57 558.08 903.74 551.12 909.31 558.08 919.41 566.79 922.25 566.79 906.57" fill="none" stroke="#626b8e" stroke-miterlimit="10"/><path d="M555.59,833.94a10.29,10.29,0,0,1,5.26,4.16,9.1,9.1,0,0,1,1.6,4.92c0,3.78-3.07,5.85-6.86,4.62s-6.85-5.29-6.85-9.08S551.81,832.71,555.59,833.94Z" fill="none" stroke="#626b8e" stroke-miterlimit="10"/><line x1="560.85" y1="838.1" x2="569.17" y2="831.53" fill="none" stroke="#626b8e" stroke-miterlimit="10"/><path d="M549.12,758.25v13.68a4.51,4.51,0,0,0,3,4l13.69,4.45a2.1,2.1,0,0,0,3-2V764.64a4.53,4.53,0,0,0-3-4l-13.69-4.44A2.1,2.1,0,0,0,549.12,758.25Z" fill="none" stroke="#626b8e" stroke-miterlimit="10"/><polygon points="558.95 764.36 554.25 769.2 563.97 772.36 558.95 764.36" fill="none" stroke="#626b8e" stroke-miterlimit="10"/><ellipse cx="558.95" cy="698.9" rx="9.13" ry="12.61" transform="translate(-319.64 528.72) rotate(-40.39)" fill="none" stroke="#626b8e" stroke-miterlimit="10"/><ellipse cx="556.89" cy="698.24" rx="4.48" ry="6.19" transform="translate(-319.7 527.22) rotate(-40.39)" fill="#626b8e"/><path d="M567.26,708.39S559,706.15,559,698.9s8.31-4.08,8.31-4.08l2.11,4.63v5.42Z" fill="#626b8e"/><line x1="579.25" y1="665.79" x2="579.25" y2="957.96" fill="none" stroke="#424556" stroke-miterlimit="10"/><path d="M99.57,789.15h0c-5.08-1.65-9.23-7.15-9.23-12.23v-58.4c0-5.07,4.15-7.88,9.23-6.23l.56.19c4.79,1.55,8.67,6.69,8.67,11.48v59C108.8,788,104.65,790.8,99.57,789.15Z" fill="none" stroke="#626b8e" stroke-miterlimit="10"/><path d="M99.57,706.91h0c-5.08-1.65-9.23-7.16-9.23-12.23V659.15c0-5.07,4.15-7.88,9.23-6.23l.56.18c4.79,1.56,8.67,6.7,8.67,11.49v36.09C108.8,705.75,104.65,708.55,99.57,706.91Z" fill="none" stroke="#626b8e" stroke-miterlimit="10"/><path d="M99.57,647.28h0c-5.08-1.65-9.23-7.15-9.23-12.23V613.33c0-5.07,4.15-7.87,9.23-6.22l.56.18c4.79,1.55,8.67,6.69,8.67,11.48v22.28C108.8,646.12,104.65,648.93,99.57,647.28Z" fill="none" stroke="#626b8e" stroke-miterlimit="10"/><path d="M99.57,602h0c-5.08-1.65-9.23-7.15-9.23-12.22v-52.4c0-5.08,4.15-7.88,9.23-6.23l.56.18c4.79,1.56,8.67,6.7,8.67,11.49v52.95C108.8,600.89,104.65,603.69,99.57,602Z" fill="none" stroke="#626b8e" stroke-miterlimit="10"/><path d="M99.57,526.43h0c-5.08-1.65-9.23-7.15-9.23-12.22V471.62c0-5.07,4.15-7.87,9.23-6.23l.56.19c4.79,1.55,8.67,6.69,8.67,11.48V520.2C108.8,525.28,104.65,528.08,99.57,526.43Z" fill="none" stroke="#626b8e" stroke-miterlimit="10"/><path d="M69.18,759h0C64.11,757.38,60,751.88,60,746.8V495c0-5.07,4.16-7.88,9.23-6.23l.56.18c4.79,1.56,8.67,6.7,8.67,11.49V752.8C78.41,757.87,74.26,760.68,69.18,759Z" fill="#626b8e"/><path d="M68.19,742.32a4.58,4.58,0,0,1,2.33,1.84,4,4,0,0,1,.7,2.17,2.13,2.13,0,0,1-3,2,4.55,4.55,0,0,1-3-4A2.12,2.12,0,0,1,68.19,742.32Z" fill="none" stroke="#1e1f29" stroke-miterlimit="10"/><line x1="70.52" y1="744.16" x2="74.19" y2="741.25" fill="none" stroke="#1e1f29" stroke-miterlimit="10"/></g><line x1="49.39" y1="457.52" x2="418.68" y2="594.26" fill="none" stroke="#f8b8ad" stroke-miterlimit="10" stroke-width="2"/><line x1="630.59" y1="697.84" x2="630.59" y2="970.73" fill="none" stroke="#f8b8ad" stroke-miterlimit="10" stroke-width="2"/><path d="M38.27,473.37l-123,43.22s-2.59,382.9,0,387.8,822.13,209.73,822.13,209.73L613.61,681.23,50,473.5A17.47,17.47,0,0,0,38.27,473.37Z" fill="#8bcbef" opacity="0.2"/><path d="M691.57,650.41a157.84,157.84,0,0,0-62.06-14.85c-13.39-.42-26.77.83-40.11,2.09L457.81,650c-2.76.26-5.59.54-8,1.74-5.88,2.89-7.44,10-6.83,16.06,2.5,24.72,29.32,42,55.9,47.23s54.25,2,81.31,4.46c11.1,1,22.27,3.07,32.15,7.8,16.67,8,27.9,62.37,48.2,91.52,31.83,45.69,90.72,69.09,147.8,57.35,8.05-1.65,17.34-63.1,18.21-70.6.55-4.73-2.6-9.08-5.63-13A1168.94,1168.94,0,0,0,687.31,649.21" fill="#a55c42"/><g clip-path="url(#h)"><path d="M454.94,644c5.47,25,30,42,54.9,47.88s51,3.3,76.58,3.63,52.77,4.32,72.41,20.77c14.93,12.5,23.66,30.64,33.72,47.3A289.67,289.67,0,0,0,804.21,869.16c-7.2,9.1-25.38,8.86-36.92,10-34.26,3.49-63.81-2.25-92.13-21.85-18.85-13-34.37-30.33-52.61-44.21-51.79-39.39-124-50.38-166.24-99.84-8.73-10.21-16-22.17-18.05-35.43s1.84-28,12.2-36.51" fill="#8bcbef" opacity="0.3"/></g><path d="M-34.09,717.43c82.23-11.71,135.77,4.87,210.67,40.79s140.92,88,201.93,144.4c25,23.11,49.36,47.08,76.56,67.56a387.32,387.32,0,0,0,88.16,49.8c46.54,18.74,96.57,28.36,141.91,49.85-176.2,15-353.31,14-530.14,13-87.2-.48-97.67,5.36-184.35-4.21" fill="#282a44"/><g clip-path="url(#i)"><path d="M-170.27,795.06c88.53-55.41,204.71-49.58,301.58-10.54S252,839.68,332.05,906.74a460.39,460.39,0,0,1-107.58-44c71.14,57.51,205.59,161.59,290,196.76s177.53,52.9,268.15,40.45c-60.28-47.89-137.5-67.43-208.35-97.57A716.55,716.55,0,0,1,411.08,905.6C345,853.48,287.27,789.12,212.1,751.33,178.63,734.5,142.59,723.44,106.34,714c-42.49-11.08-85.92-20.1-129.84-20.06s-88.66,9.59-125.65,33.28c-7.76,5-15.29,10.69-20.5,18.3-11,16.08-8.9,39.81,4.72,53.72" fill="#5b64a5"/></g><polygon points="27.27 453.66 46.32 446.1 41.87 456.23 27.27 453.66" fill="#54576d"/><ellipse cx="813.3" cy="504.5" rx="19.91" ry="22.12" transform="translate(177.89 1220.21) rotate(-80.21)" fill="#e05034"/></svg>