<svg width="72" height="72" viewBox="0 0 72 72" fill="none" xmlns="http://www.w3.org/2000/svg">
<path fill-rule="evenodd" clip-rule="evenodd" d="M8 12C8 11.4477 8.44772 11 9 11H63C63.5523 11 64 11.4477 64 12C64 12.5523 63.5523 13 63 13H9C8.44772 13 8 12.5523 8 12ZM22.7587 26H49.2413C50.0464 26 50.7107 26 51.2519 26.0442C51.814 26.0901 52.3307 26.1887 52.816 26.436C53.5689 26.8196 54.1805 27.4316 54.564 28.1839C54.8113 28.6693 54.9099 29.186 54.9558 29.7481C55 30.2893 55 30.9537 55 31.7587V40.2413C55 41.0463 55 41.7107 54.9558 42.2519C54.9099 42.814 54.8113 43.3307 54.564 43.816C54.1804 44.5688 53.5688 45.1804 52.816 45.564C52.3307 45.8113 51.814 45.9099 51.2519 45.9558C50.7107 46 50.0463 46 49.2413 46H22.7587C21.9537 46 21.2894 46 20.7482 45.9558C20.1861 45.9099 19.6694 45.8113 19.184 45.564C18.4316 45.1805 17.8196 44.5689 17.436 43.816C17.1887 43.3307 17.0901 42.814 17.0442 42.2519C17 41.7107 17 41.0463 17 40.2413V31.7587C17 30.9537 17 30.2893 17.0442 29.7481C17.0901 29.186 17.1887 28.6694 17.436 28.184C17.8195 27.4314 18.4314 26.8195 19.184 26.436C19.6693 26.1887 20.1861 26.0901 20.7482 26.0442C21.2894 26 21.9537 26 22.7587 26ZM20.092 28.218C19.7157 28.4097 19.4097 28.7157 19.218 29.092C19.1383 29.2485 19.0734 29.4726 19.0375 29.911C19.0008 30.3611 19 30.9433 19 31.8V40.2C19 41.0566 19.0008 41.639 19.0376 42.089C19.0734 42.5274 19.1383 42.7516 19.218 42.908C19.4097 43.2842 19.7156 43.5901 20.0921 43.782C20.2485 43.8617 20.4727 43.9266 20.911 43.9624C21.3611 43.9992 21.9434 44 22.8 44H49.2C50.0567 44 50.639 43.9992 51.089 43.9624C51.5274 43.9266 51.7516 43.8617 51.908 43.782C52.2844 43.5902 52.5902 43.2844 52.782 42.908C52.8617 42.7516 52.9266 42.5274 52.9624 42.089C52.9992 41.639 53 41.0567 53 40.2V31.8C53 30.9433 52.9992 30.3611 52.9624 29.911C52.9266 29.4727 52.8617 29.2485 52.782 29.0921C52.5901 28.7156 52.2843 28.4097 51.9081 28.218C51.7517 28.1383 51.5275 28.0734 51.089 28.0375C50.639 28.0008 50.0567 28 49.2 28H22.8C21.9434 28 21.3611 28.0008 20.911 28.0375C20.4726 28.0734 20.2484 28.1383 20.092 28.218ZM8 60C8 59.4477 8.44772 59 9 59H63C63.5523 59 64 59.4477 64 60C64 60.5523 63.5523 61 63 61H9C8.44772 61 8 60.5523 8 60Z" fill="#202020"/>
</svg>
