<svg width="72" height="72" viewBox="0 0 72 72" fill="none" xmlns="http://www.w3.org/2000/svg">
<path d="M13.1693 17.7647C20.1299 11.8362 29.2559 13.5669 34.9997 19.5154C39.7769 14.5611 46.8039 12.5803 53.0993 15.4338L51.4956 16.9396C45.9539 14.8544 39.8527 16.8809 35.7589 21.6517C35.5689 21.8731 35.2917 22.0005 35 22.0005C34.987 22.0005 34.9741 22.0003 34.9611 21.9998L34.3471 61.5585C34.5383 61.7268 34.6611 61.8325 34.7619 61.9081C34.8369 61.9645 34.8716 61.982 34.881 61.9861C34.9439 62.0047 35.0184 62.0048 35.0821 61.9861C35.0915 61.982 35.1262 61.9644 35.201 61.9082C35.3201 61.8188 35.4697 61.6878 35.7266 61.461C37.9132 59.5306 42.3406 55.5849 46.7703 51.4169C51.2192 47.2309 55.6077 42.8787 57.7611 40.1167C61.4065 35.4405 61.9664 29.3326 59.4833 24.2964L61.2481 23.3505C64.0989 29.0744 63.4753 36.0398 59.3384 41.3464C57.0754 44.249 52.5734 48.7029 48.1408 52.8735C43.689 57.0622 39.2439 61.0238 37.0502 62.9603L37.0242 62.9833L37.0242 62.9833C36.8008 63.1805 36.5916 63.3651 36.4017 63.5077C36.1925 63.6647 35.9519 63.8141 35.6522 63.9031C35.217 64.0323 34.746 64.0324 34.3107 63.903C34.0112 63.8141 33.7706 63.6648 33.5614 63.5078C33.3706 63.3646 33.1608 63.1793 32.9364 62.9811L32.9363 62.9811L32.9128 62.9603C30.9224 61.2031 27.0785 57.779 23.0578 54.0307L24.1139 52.2806C28.226 56.1226 32.2016 59.6645 34.2365 61.461C34.2758 61.4957 34.3125 61.5281 34.3471 61.5585L34.9611 21.9998C34.6838 21.989 34.4226 21.8633 34.2411 21.6517C29.1165 15.6796 20.7174 13.9629 14.4661 19.2873C8.1052 24.705 7.22361 33.7308 12.202 40.1167C12.7632 40.8366 13.4764 41.6646 14.3028 42.5695L12.3907 43.4366C11.7123 42.6793 11.1158 41.9763 10.6247 41.3464C4.98001 34.1058 6.0029 23.8684 13.1693 17.7647Z" fill="#202020"/>
<path fill-rule="evenodd" clip-rule="evenodd" d="M54.1668 8.35962C54.7293 6.44432 57.4423 6.44435 58.0047 8.35962L60.0964 15.4822L66.3327 18.3899C67.8725 19.1079 67.8725 21.2973 66.3327 22.0152L60.0964 24.923L58.0047 32.0455C57.4423 33.9608 54.7293 33.9608 54.1668 32.0455L52.0751 24.923L45.8389 22.0152C44.2991 21.2973 44.2991 19.1079 45.8389 18.3899L52.0751 15.4822L54.1668 8.35962ZM56.0858 8.92316L53.9941 16.0457C53.8322 16.597 53.4411 17.052 52.9203 17.2948L46.684 20.2026L52.9203 23.1103C53.4411 23.3531 53.8322 23.8081 53.9941 24.3594L56.0858 31.482L58.1774 24.3594C58.3393 23.8081 58.7305 23.3531 59.2512 23.1103L65.4875 20.2026L59.2512 17.2948C58.7305 17.052 58.3393 16.597 58.1774 16.0457L56.0858 8.92316ZM17.4488 31.2511C18.0113 29.3358 20.7243 29.3358 21.2868 31.2511L24.3112 41.55L33.0683 45.6331C34.6081 46.351 34.6081 48.5405 33.0683 49.2584L24.3112 53.3415L21.2868 63.6404C20.7243 65.5557 18.0113 65.5557 17.4488 63.6404L14.4244 53.3415L5.6673 49.2584C4.12752 48.5405 4.12753 46.351 5.6673 45.6331L14.4244 41.55L17.4488 31.2511ZM19.3678 31.8146L16.3434 42.1135C16.1815 42.6648 15.7903 43.1199 15.2696 43.3627L6.51247 47.4457L15.2696 51.5288C15.7903 51.7716 16.1815 52.2267 16.3434 52.7779L19.3678 63.0768L22.3922 52.7779C22.5541 52.2267 22.9453 51.7716 23.466 51.5288L32.2231 47.4457L23.466 43.3627C22.9453 43.1199 22.5541 42.6648 22.3922 42.1135L19.3678 31.8146Z" fill="#202020"/>
</svg>
