<svg width="72" height="72" viewBox="0 0 72 72" fill="none" xmlns="http://www.w3.org/2000/svg">
<path fill-rule="evenodd" clip-rule="evenodd" d="M7.7943 15.9377C7.7943 14.2808 9.13745 12.9377 10.7943 12.9377H61.2057C62.8626 12.9377 64.2057 14.2808 64.2057 15.9377V47.9452C64.2057 49.6021 62.8625 50.9452 61.2057 50.9452H56.6213C56.069 50.9452 55.6213 51.3929 55.6213 51.9452V61.338C55.6213 63.2683 53.157 64.0785 52.0115 62.5248L43.7745 51.3518C43.586 51.0961 43.2872 50.9452 42.9696 50.9452H10.7943C9.13745 50.9452 7.7943 49.602 7.7943 47.9452V15.9377ZM10.7943 14.9377C10.242 14.9377 9.7943 15.3854 9.7943 15.9377V47.9452C9.7943 48.4975 10.242 48.9452 10.7943 48.9452H42.9696C43.9226 48.9452 44.8188 49.3979 45.3843 50.165L53.6213 61.338V51.9452C53.6213 50.2883 54.9645 48.9452 56.6213 48.9452H61.2057C61.758 48.9452 62.2057 48.4975 62.2057 47.9452V15.9377C62.2057 15.3854 61.758 14.9377 61.2057 14.9377H10.7943Z" fill="#202020"/>
<path d="M30.838 32.678C30.838 33.8636 29.8769 34.8247 28.6913 34.8247C27.5058 34.8247 26.5447 33.8636 26.5447 32.678C26.5447 31.4925 27.5058 30.5314 28.6913 30.5314C29.8769 30.5314 30.838 31.4925 30.838 32.678Z" fill="#202020"/>
<path d="M38.0277 32.678C38.0277 33.8636 37.0666 34.8247 35.8811 34.8247C34.6955 34.8247 33.7345 33.8636 33.7345 32.678C33.7345 31.4925 34.6955 30.5314 35.8811 30.5314C37.0666 30.5314 38.0277 31.4925 38.0277 32.678Z" fill="#202020"/>
<path d="M45.2174 32.678C45.2174 33.8636 44.2563 34.8247 43.0708 34.8247C41.8853 34.8247 40.9242 33.8636 40.9242 32.678C40.9242 31.4925 41.8853 30.5314 43.0708 30.5314C44.2563 30.5314 45.2174 31.4925 45.2174 32.678Z" fill="#202020"/>
</svg>
