<svg width="72" height="72" viewBox="0 0 72 72" fill="none" xmlns="http://www.w3.org/2000/svg">
<path fill-rule="evenodd" clip-rule="evenodd" d="M36.9147 30.4089C36.9147 26.9862 39.6894 24.2115 43.1121 24.2115H54.0357C57.4584 24.2115 60.2331 26.9862 60.2331 30.4089C60.2331 33.8316 57.4585 36.6063 54.0357 36.6063H43.1121C39.6894 36.6063 36.9147 33.8316 36.9147 30.4089ZM43.1121 26.2115C40.794 26.2115 38.9147 28.0907 38.9147 30.4089C38.9147 32.727 40.794 34.6063 43.1121 34.6063H54.0357C56.3539 34.6063 58.2331 32.727 58.2331 30.4089C58.2331 28.0907 56.3539 26.2115 54.0357 26.2115H43.1121Z" fill="#202020"/>
<path fill-rule="evenodd" clip-rule="evenodd" d="M36.9147 40.8037C36.9147 37.381 39.6894 34.6063 43.1121 34.6063L55.391 34.6063C58.8137 34.6063 61.5884 37.381 61.5884 40.8037C61.5884 44.2264 58.8137 47.0011 55.391 47.0011H43.1121C39.6894 47.0011 36.9147 44.2264 36.9147 40.8037ZM43.1121 36.6063C40.794 36.6063 38.9147 38.4855 38.9147 40.8037C38.9147 43.1218 40.794 45.0011 43.1121 45.0011H55.391C57.7092 45.0011 59.5884 43.1218 59.5884 40.8037C59.5884 38.4855 57.7092 36.6063 55.391 36.6063L43.1121 36.6063Z" fill="#202020"/>
<path fill-rule="evenodd" clip-rule="evenodd" d="M36.9147 51.1985C36.9147 47.7758 39.6894 45.0011 43.1121 45.0011L54.0357 45.0011C57.4584 45.0011 60.2331 47.7758 60.2331 51.1985C60.2331 54.6212 57.4585 57.3959 54.0357 57.3959H43.1121C39.6894 57.3959 36.9147 54.6212 36.9147 51.1985ZM43.1121 47.0011C40.794 47.0011 38.9147 48.8803 38.9147 51.1985C38.9147 53.5166 40.794 55.3959 43.1121 55.3959H54.0357C56.3539 55.3959 58.2331 53.5166 58.2331 51.1985C58.2331 48.8803 56.3539 47.0011 54.0357 47.0011L43.1121 47.0011Z" fill="#202020"/>
<path fill-rule="evenodd" clip-rule="evenodd" d="M36.9147 61.5932C36.9147 58.1705 39.6894 55.3959 43.1121 55.3959L51.6945 55.3958C55.1172 55.3958 57.8919 58.1705 57.8919 61.5932C57.8919 65.0159 55.1172 67.7906 51.6945 67.7906H43.1121C39.6894 67.7906 36.9147 65.0159 36.9147 61.5932ZM43.1121 57.3959C40.794 57.3959 38.9147 59.275 38.9147 61.5932C38.9147 63.9114 40.794 65.7906 43.1121 65.7906H51.6945C54.0127 65.7906 55.8919 63.9114 55.8919 61.5932C55.8919 59.275 54.0127 57.3958 51.6945 57.3958L43.1121 57.3959Z" fill="#202020"/>
<path fill-rule="evenodd" clip-rule="evenodd" d="M28.973 8.04821C29.888 5.73156 32.1259 4.20941 34.6167 4.20941C37.968 4.20941 40.6847 6.92617 40.6847 10.2775V26.5278H38.6847V10.2775C38.6847 8.03074 36.8634 6.20941 34.6167 6.20941C32.9468 6.20941 31.4466 7.22987 30.8331 8.78296L28.5728 14.5053C27.1015 18.2303 25.0987 21.7226 22.6267 24.8737C21.9501 25.7495 21.2107 26.6407 20.4458 27.5628C18.9856 29.3228 17.4322 31.1953 16.0438 33.2876C13.9598 36.4282 12.4116 39.851 12.4116 43.6156C12.4116 55.8625 22.3397 65.7906 34.5866 65.7906H45.2866V67.7906H34.5866C21.2351 67.7906 10.4116 56.9671 10.4116 43.6156C10.4116 39.291 12.191 35.4765 14.3773 32.1818C15.8186 30.0098 17.5102 27.9681 19.0118 26.1558C19.7541 25.2598 20.45 24.42 21.0462 23.6481L21.8377 24.2595L21.0509 23.6422C23.4047 20.6422 25.3118 17.3171 26.7126 13.7706L28.973 8.04821Z" fill="#202020"/>
</svg>
