<svg width="72" height="72" viewBox="0 0 72 72" fill="none" xmlns="http://www.w3.org/2000/svg">
<path fill-rule="evenodd" clip-rule="evenodd" d="M26.9871 7.25C27.5394 7.25 27.9871 7.69772 27.9871 8.25V14.8732H46.2265C46.7788 14.8732 47.2265 15.3209 47.2265 15.8732C47.2265 16.4255 46.7788 16.8732 46.2265 16.8732H38.7235C38.3752 22.2925 35.285 29.0078 30.913 34.7362C29.7138 36.3074 28.4051 37.8216 27.0125 39.2277C31.1538 42.389 35.9223 44.8224 40.3865 45.4981C40.9326 45.5807 41.3083 46.0904 41.2256 46.6365C41.143 47.1825 40.6333 47.5582 40.0873 47.4756C35.1035 46.7213 29.9309 44.0178 25.5555 40.6302C21.8886 43.9913 17.7395 46.5463 13.5267 47.4639C12.9871 47.5814 12.4543 47.2393 12.3368 46.6996C12.2192 46.16 12.5614 45.6273 13.101 45.5097C16.8043 44.7031 20.5689 42.4376 23.9845 39.356C23.7665 39.171 23.551 38.9844 23.3382 38.7967C20.9395 36.6799 18.8476 34.3756 17.271 32.1196C15.7046 29.8783 14.6005 27.6189 14.2635 25.5968C14.1727 25.052 14.5407 24.5368 15.0855 24.446C15.6303 24.3552 16.1455 24.7232 16.2363 25.268C16.5043 26.8758 17.427 28.8515 18.9103 30.9739C20.3833 33.0815 22.3639 35.2695 24.6616 37.2971C24.9185 37.5238 25.1791 37.7482 25.4429 37.97C26.8167 36.5971 28.1199 35.0993 29.3231 33.5228C33.5465 27.9892 36.3662 21.7118 36.7189 16.8732H7.74765C7.19537 16.8732 6.74765 16.4255 6.74765 15.8732C6.74765 15.3209 7.19537 14.8732 7.74765 14.8732H25.9871V8.25C25.9871 7.69772 26.4348 7.25 26.9871 7.25ZM53.2754 28.2238C53.7084 28.2267 54.0904 28.5079 54.2217 28.9206L61.5244 51.8762C61.5291 51.8899 61.5335 51.9037 61.5376 51.9177L65.2053 63.4468C65.3727 63.9731 65.0818 64.5355 64.5555 64.7029C64.0292 64.8704 63.4668 64.5795 63.2994 64.0532L59.8469 53.2003H46.3418L42.7592 63.9632C42.5848 64.4872 42.0186 64.7706 41.4946 64.5962C40.9706 64.4218 40.6872 63.8556 40.8616 63.3316L44.6646 51.9065C44.6691 51.8916 44.6741 51.8768 44.6793 51.8622L52.3199 28.9079C52.4567 28.4971 52.8424 28.2209 53.2754 28.2238ZM47.0075 51.2003H59.2106L53.2472 32.4547L47.0075 51.2003Z" fill="#202020"/>
</svg>
