<svg width="72" height="72" viewBox="0 0 72 72" fill="none" xmlns="http://www.w3.org/2000/svg">
<path fill-rule="evenodd" clip-rule="evenodd" d="M36.3528 2.01038C36.905 2.01038 37.3528 2.45809 37.3528 3.01038V6.21283H43.2228C44.3274 6.21283 45.2228 7.10826 45.2228 8.21283V19.0561C45.2228 20.1607 44.3274 21.0561 43.2228 21.0561H37.3528V24.1535H52.016C52.4586 24.1535 52.8886 24.3003 53.2388 24.5709L60.2557 29.9925C61.2919 30.7932 61.2919 32.3571 60.2557 33.1578L53.2388 38.5794C52.8886 38.85 52.4586 38.9968 52.016 38.9968H37.3528V42.0938H43.2228C44.3274 42.0938 45.2228 42.9892 45.2228 44.0938V54.9371C45.2228 56.0417 44.3274 56.9371 43.2228 56.9371H37.3528V68.9897C37.3528 69.542 36.905 69.9897 36.3528 69.9897C35.8005 69.9897 35.3528 69.542 35.3528 68.9897V56.9371H19.984C19.5414 56.9371 19.1114 56.7903 18.7612 56.5197L11.7443 51.0981C10.7081 50.2974 10.7081 48.7335 11.7443 47.9328L18.7612 42.5112C19.1114 42.2406 19.5414 42.0938 19.984 42.0938H35.3528V38.9968H28.7772C27.6726 38.9968 26.7772 38.1014 26.7772 36.9968V26.1535C26.7772 25.0489 27.6726 24.1535 28.7772 24.1535H35.3528V21.0561H19.984C19.5414 21.0561 19.1114 20.9093 18.7612 20.6387L11.7443 15.2171C10.7081 14.4164 10.7081 12.8525 11.7443 12.0519L18.7612 6.63021C19.1114 6.35962 19.5414 6.21283 19.984 6.21283H35.3528V3.01038C35.3528 2.45809 35.8005 2.01038 36.3528 2.01038ZM36.4522 36.9968C36.4195 36.9936 36.3863 36.9919 36.3528 36.9919C36.3192 36.9919 36.286 36.9936 36.2533 36.9968H28.7772V26.1535H52.016L59.0329 31.5751L52.016 36.9968H36.4522ZM43.2228 8.21283H19.984L12.9671 13.6345L19.984 19.0561H43.2228L43.2228 8.21283ZM43.2228 44.0938H19.984L12.9671 49.5155L19.984 54.9371H43.2228L43.2228 44.0938Z" fill="#202020"/>
</svg>
